<svg width="243" height="253" viewBox="0 0 243 253" fill="none" xmlns="http://www.w3.org/2000/svg">
<path fill-rule="evenodd" clip-rule="evenodd" d="M85.1585 28.526C85.1585 28.526 62.9009 -3.7178 55.9155 0.355874C54.4551 1.30169 53.728 6.75307 52.6607 14.7549C50.8887 28.04 48.179 48.3554 39.6189 66.7539C38.7641 68.5912 37.901 70.4403 37.0328 72.3001L37.0324 72.3011L37.0303 72.3055C36.4626 73.5216 35.8859 74.7553 35.3016 76.0052C21.7603 104.972 4.14944 142.644 1.02646 171.895C-5.05773 228.881 16.903 272.196 40.5479 318.832C42.5487 322.778 44.5615 326.748 46.5705 330.753C49.4637 336.519 56.1926 340 62.4661 340H64.7156C72.8931 340 68.413 329.341 66.9832 325.939L66.9828 325.938C66.8294 325.573 66.7112 325.291 66.6475 325.116C60.6416 308.554 58.9784 294.427 57.0427 277.986C56.5535 273.831 56.0469 269.528 55.4483 265.001C58.2667 268.362 61.2521 271.575 64.3931 274.626C68.5539 294.316 74.5061 313.435 81.491 331.758C83.4011 336.769 88.1086 340 93.309 340L95.8879 340C100.591 340 103.942 335.263 102.729 330.556C99.9284 319.685 97.9256 308.587 96.608 297.305C108.779 303.241 122.087 307.23 136.205 308.848C186.816 314.647 233.714 288.344 257.966 245.644C258.562 244.64 259.127 243.613 259.66 242.564L259.781 242.338C259.906 242.102 260.017 241.872 260.115 241.648C262.799 236.113 264.595 229.999 265.291 223.481C265.771 218.984 265.699 214.556 265.132 210.268C263.747 199.799 293.973 181.364 323.351 163.447C360.662 140.692 396.603 118.772 364.668 115.068C360.151 114.544 355.637 113.94 351.122 113.336C320.435 109.229 289.72 105.119 257.966 126.146C254.922 132.67 251.899 138.378 248.922 143.374C247.483 168.795 227.129 188.949 202.23 188.949C176.398 188.949 155.457 167.255 155.457 140.494C155.457 131.897 157.618 123.823 161.408 116.823C166.362 104.108 173.723 90.552 179.992 79.0074C187.759 64.7045 193.85 53.4893 191.607 50.7875C186.86 45.0676 165.91 49.1012 152.761 51.6325L152.761 51.6326C150.332 52.1002 148.169 52.5165 146.424 52.8107C136.475 39.2568 121.388 29.7897 103.761 27.77C97.3905 27.0401 91.1387 27.3344 85.1585 28.526ZM60.3239 88.9901C70.3556 93.5797 81.4643 90.3182 85.136 81.7053C88.8077 73.0924 83.6519 62.3897 73.6202 57.8001C67.5822 55.0376 61.1541 55.1194 56.1922 57.5005C52.9103 59.0753 50.2699 61.656 48.8082 65.0849C45.1365 73.6978 50.2923 84.4005 60.3239 88.9901ZM134.011 104.938C130.123 113.992 118.481 117.419 108.006 112.593C97.5308 107.766 92.1907 96.5131 96.0781 87.459C97.6257 83.8545 100.403 81.1418 103.845 79.4867C109.051 76.9844 115.779 76.8994 122.083 79.8046C132.558 84.6313 137.898 95.884 134.011 104.938Z" fill="black"/>
</svg>
