<svg width="243" height="253" viewBox="0 0 243 253" fill="none" xmlns="http://www.w3.org/2000/svg">
<ellipse cx="89.3469" cy="91.4969" rx="54.6124" ry="49.8089" fill="white"/>
<ellipse cx="10.4554" cy="10.8249" rx="10.4554" ry="10.8249" transform="matrix(0.995451 0.095279 -0.0888317 0.996047 56.5168 57.3884)" fill="black"/>
<ellipse cx="112.841" cy="91.4969" rx="11.2133" ry="11.3694" fill="black"/>
<path fill-rule="evenodd" clip-rule="evenodd" d="M85.1585 28.526C85.1585 28.526 62.9009 -3.7178 55.9155 0.355874C54.4551 1.30169 53.728 6.75307 52.6607 14.7549C50.8887 28.04 48.179 48.3554 39.6189 66.7539C38.7641 68.5912 37.901 70.4403 37.0328 72.3001L37.0324 72.3011L37.0303 72.3055C36.4626 73.5216 35.8859 74.7553 35.3016 76.0052C21.7603 104.972 4.14944 142.644 1.02646 171.895C-5.05773 228.881 16.903 272.196 40.5479 318.832C42.5487 322.778 44.5615 326.748 46.5705 330.753C49.4637 336.519 56.1926 340 62.4661 340H64.7156C72.8931 340 68.413 329.341 66.9832 325.939L66.9828 325.938C66.8294 325.573 66.7112 325.291 66.6475 325.116C60.6416 308.554 58.9784 294.427 57.0427 277.986C56.5535 273.831 56.0469 269.528 55.4483 265.001C58.2667 268.362 61.2521 271.575 64.3931 274.626C68.5539 294.316 74.5061 313.435 81.491 331.758C83.4011 336.769 88.1086 340 93.309 340L95.8879 340C100.591 340 103.942 335.263 102.729 330.556C99.9284 319.685 97.9256 308.587 96.608 297.305C108.779 303.241 122.087 307.23 136.205 308.848C186.816 314.647 233.714 288.344 257.966 245.644C258.562 244.64 259.127 243.613 259.66 242.564L259.781 242.338C259.906 242.102 260.017 241.872 260.115 241.648C262.799 236.113 264.595 229.999 265.291 223.481C265.771 218.984 265.699 214.556 265.132 210.268C263.747 199.799 293.973 181.364 323.351 163.447C360.662 140.692 396.603 118.772 364.668 115.068C360.151 114.544 355.637 113.94 351.122 113.336C320.435 109.229 289.72 105.119 257.966 126.146C254.922 132.67 251.899 138.378 248.922 143.374C247.483 168.795 227.129 188.949 202.23 188.949C176.398 188.949 155.457 167.255 155.457 140.494C155.457 131.897 157.618 123.823 161.408 116.823C166.362 104.108 173.723 90.552 179.992 79.0074C187.759 64.7045 193.85 53.4893 191.607 50.7875C186.86 45.0676 165.91 49.1012 152.761 51.6325L152.761 51.6326C150.332 52.1002 148.169 52.5165 146.424 52.8107C136.475 39.2568 121.388 29.7897 103.761 27.77C97.3905 27.0401 91.1387 27.3344 85.1585 28.526ZM60.3239 88.9901C70.3556 93.5797 81.4643 90.3182 85.136 81.7053C88.8077 73.0924 83.6519 62.3897 73.6202 57.8001C67.5822 55.0376 61.1541 55.1194 56.1922 57.5005C52.9103 59.0753 50.2699 61.656 48.8082 65.0849C45.1365 73.6978 50.2923 84.4005 60.3239 88.9901ZM134.011 104.938C130.123 113.992 118.481 117.419 108.006 112.593C97.5308 107.766 92.1907 96.5131 96.0781 87.459C97.6257 83.8545 100.403 81.1418 103.845 79.4867C109.051 76.9844 115.779 76.8994 122.083 79.8046C132.558 84.6313 137.898 95.884 134.011 104.938Z" fill="black"/>
<path fill-rule="evenodd" clip-rule="evenodd" d="M75.0365 98.2823L74.8436 100.71C75.0365 98.2823 75.0369 98.2823 75.0374 98.2823L75.0402 98.2826L75.0448 98.283L75.0566 98.284L75.0911 98.2873C75.1187 98.29 75.1557 98.2937 75.2014 98.2987C75.2928 98.3087 75.4196 98.3238 75.5773 98.3453C75.8923 98.3883 76.3332 98.4576 76.8652 98.5651C77.9232 98.7791 79.372 99.1506 80.9194 99.7855C82.5 100.434 83.9594 101.321 84.9953 102.018C85.5206 102.371 85.9536 102.687 86.2586 102.917C86.4113 103.033 86.5328 103.127 86.6184 103.195C86.6612 103.228 86.6952 103.255 86.7197 103.275L86.7493 103.299L86.7587 103.307L86.7621 103.309L86.7639 103.311C86.7642 103.311 86.7645 103.311 85.3937 105.11L86.7645 103.311C87.7839 104.145 87.9579 105.677 87.1531 106.733C86.3488 107.789 84.8712 107.969 83.8519 107.137L83.8505 107.136L83.85 107.136L83.8373 107.126C83.8239 107.115 83.8016 107.097 83.7708 107.073C83.7091 107.024 83.6139 106.95 83.4896 106.856C83.2403 106.668 82.8769 106.403 82.4334 106.104C82.1355 105.904 81.8087 105.693 81.462 105.484C80.4315 107.692 80.3449 109.258 80.5571 110.258C80.7875 111.344 81.4317 112.077 82.2783 112.496C83.1701 112.938 84.2365 112.998 85.113 112.689C85.9347 112.399 86.5579 111.809 86.828 110.85C87.1916 109.558 88.4972 108.816 89.7441 109.193C90.991 109.57 91.7069 110.922 91.3433 112.214C90.6004 114.852 88.7476 116.554 86.6291 117.302C84.5654 118.03 82.2273 117.872 80.2492 116.892C78.4213 115.987 76.8645 114.354 76.1595 112.062C74.805 112.773 73.3664 113.002 71.9823 112.825C70.0197 112.575 68.285 111.526 67.0904 110.136C65.9079 108.76 65.0749 106.821 65.364 104.731C65.5482 103.399 66.7398 102.474 68.0255 102.665C69.3112 102.856 70.2041 104.09 70.0199 105.422C69.976 105.739 70.0864 106.294 70.6034 106.896C71.1083 107.483 71.8293 107.896 72.5581 107.99C73.2204 108.074 74.0013 107.915 74.8176 107.145C75.4874 106.513 76.2409 105.406 76.8755 103.556C76.5463 103.472 76.2398 103.403 75.9641 103.348C75.5383 103.261 75.1937 103.208 74.9626 103.176C74.8473 103.16 74.7609 103.15 74.7074 103.144C74.6807 103.141 74.6622 103.14 74.6526 103.139L74.6452 103.138C73.3536 103.025 72.3934 101.85 72.4998 100.511C72.6064 99.1695 73.7421 98.1719 75.0365 98.2823Z" fill="black"/>
</svg>
