<svg viewBox="0 0 153 225" fill="none" xmlns="http://www.w3.org/2000/svg">
  <g class="b3">
    <g class="Group 2">
      <path class="shadow-3"
            d="M64.4505 212.88C91.5994 212.88 113.608 209.532 113.608 205.402C113.608 201.272 91.5994 197.924 64.4505 197.924C37.3016 197.924 15.2931 201.272 15.2931 205.402C15.2931 209.532 37.3016 212.88 64.4505 212.88Z"
            fill="#232323"/>
      <g class="tree-2">
        <path class="Vector"
              d="M33.6135 118.383C32.9079 118.18 32.1715 117.921 31.5872 117.462C31.2747 117.216 30.9704 116.87 30.966 116.451C30.9619 116.062 31.2146 115.733 31.4969 115.491C31.928 115.149 32.4254 114.899 32.9578 114.758C33.7745 114.525 34.6219 114.419 35.4707 114.442C35.5796 114.443 35.6596 114.287 35.5662 114.211C34.5569 113.39 33.5376 112.509 32.7608 111.456C32.5309 111.162 32.3427 110.838 32.2016 110.492C32.1105 110.285 32.0796 110.057 32.1126 109.833C32.1297 109.755 32.1638 109.683 32.2125 109.62C32.2613 109.557 32.3234 109.506 32.3944 109.471C32.5855 109.38 32.7958 109.337 33.0071 109.346C33.6935 109.346 34.3826 109.601 34.995 109.89C36.0097 110.383 36.942 111.03 37.7591 111.808C37.7805 111.828 37.8078 111.841 37.837 111.844C37.8662 111.848 37.8957 111.841 37.9211 111.827C37.9466 111.812 37.9665 111.789 37.978 111.762C37.9894 111.735 37.9918 111.705 37.9848 111.676C37.4524 110.013 36.9815 108.283 36.8778 106.532C36.836 106.015 36.8568 105.496 36.9398 104.985C36.997 104.677 37.0988 104.327 37.2835 104.101C37.3414 104.019 37.4191 103.952 37.5095 103.908C37.6 103.863 37.7001 103.842 37.8008 103.847C37.906 103.857 38.0088 103.884 38.1049 103.929C38.2327 103.991 38.352 104.07 38.4598 104.163C39.1605 104.76 39.5853 105.682 39.9018 106.525C40.4408 107.962 40.7095 109.496 40.8304 111.021C40.8486 111.251 40.8634 111.482 40.8747 111.712C40.8758 111.744 40.8881 111.775 40.9096 111.799C40.9311 111.823 40.9604 111.838 40.9922 111.842C41.024 111.847 41.0562 111.84 41.0833 111.822C41.1104 111.805 41.1304 111.779 41.14 111.748C41.5267 110.719 41.9758 109.709 42.453 108.719C42.8668 107.847 43.3255 106.998 43.8273 106.174C44.2839 105.435 44.7864 104.701 45.4172 104.097C45.8304 103.702 46.3991 103.263 47.0103 103.348C47.5076 103.416 47.7124 103.815 47.7366 104.294C47.7723 104.999 47.5502 105.717 47.3245 106.377C47.029 107.214 46.6821 108.032 46.2857 108.826C45.7393 109.948 45.1291 111.033 44.4951 112.107C44.4843 112.125 44.4731 112.143 44.4621 112.161C44.3867 112.283 44.532 112.402 44.6468 112.346C45.0337 112.157 45.433 111.991 45.8347 111.836C46.5667 111.554 47.3368 111.291 48.1206 111.206C48.6174 111.153 49.4756 111.149 49.5529 111.816C49.5884 112.123 49.4284 112.428 49.2679 112.677C49.0531 112.995 48.8031 113.289 48.5226 113.551C48.1169 113.948 47.6781 114.31 47.2112 114.633C47.184 114.65 47.1637 114.676 47.154 114.707C47.1443 114.738 47.1459 114.771 47.1584 114.801C47.1709 114.83 47.1935 114.855 47.2223 114.869C47.251 114.884 47.284 114.887 47.3153 114.88C48.1411 114.704 48.9834 114.617 49.8278 114.622C50.3242 114.628 50.9067 114.654 51.3376 114.932C51.4172 114.979 51.4857 115.043 51.5386 115.12C51.5915 115.196 51.6276 115.283 51.6443 115.374C51.6992 115.768 51.6362 116.17 51.4633 116.528C51.2411 117.003 50.891 117.407 50.4521 117.694C50.328 117.772 50.4058 117.993 50.5561 117.941C50.7553 117.866 50.9717 117.851 51.1793 117.897C51.7164 118.028 51.7103 118.685 51.6504 119.125C51.6414 119.191 51.6653 119.278 51.7447 119.291C52.4178 119.398 53.2183 119.638 53.532 120.309C53.6045 120.465 53.6433 120.635 53.6457 120.807C53.6468 120.865 53.644 120.923 53.6374 120.981C53.641 120.938 53.628 120.896 53.6012 120.862C53.5744 120.829 53.5358 120.807 53.4934 120.801C53.451 120.796 53.408 120.806 53.3732 120.831C53.3384 120.856 53.3146 120.894 53.3066 120.936C53.2986 120.978 53.307 121.021 53.3302 121.057C53.3533 121.094 53.3894 121.119 53.431 121.129C53.4726 121.14 53.5165 121.133 53.5537 121.112C53.5909 121.091 53.6185 121.056 53.6309 121.015C53.5918 121.185 53.8521 121.257 53.8913 121.087C54.0467 120.415 53.6081 119.757 53.0474 119.431C52.6652 119.223 52.2479 119.087 51.8165 119.031L51.9108 119.197C51.9878 118.631 51.9673 117.877 51.3238 117.658C51.0488 117.576 50.7546 117.583 50.4843 117.68L50.5884 117.927C50.9888 117.666 51.324 117.316 51.5685 116.905C51.7848 116.551 51.9089 116.149 51.9293 115.735C51.9415 115.437 51.9121 115.14 51.7152 114.905C51.3752 114.5 50.7534 114.411 50.2592 114.371C49.6289 114.332 48.9963 114.356 48.3708 114.442C47.9937 114.488 47.6157 114.542 47.2435 114.619L47.3476 114.866C47.777 114.569 48.1841 114.24 48.5654 113.883C48.8735 113.604 49.1532 113.295 49.4005 112.961C49.625 112.679 49.7706 112.343 49.8225 111.987C49.8374 111.832 49.8126 111.675 49.7506 111.533C49.6885 111.39 49.5912 111.265 49.4678 111.17C49.1969 110.99 48.8761 110.901 48.5513 110.914C47.7216 110.901 46.8817 111.169 46.1094 111.447C45.5647 111.639 45.031 111.861 44.5106 112.112L44.6953 112.297C45.2767 111.355 45.8092 110.378 46.3075 109.389C46.7252 108.574 47.0994 107.738 47.4285 106.883C47.7042 106.152 47.9611 105.378 48.0049 104.592C48.0334 104.08 47.9397 103.464 47.4369 103.202C46.8802 102.912 46.2342 103.136 45.7536 103.47C45.0659 103.948 44.5332 104.637 44.0619 105.32C43.5115 106.133 43.0156 106.982 42.5775 107.861C41.9541 109.081 41.3954 110.333 40.9039 111.613C40.8957 111.634 40.8876 111.655 40.8796 111.676L41.1449 111.712C41.0614 110.054 40.8229 108.38 40.2873 106.803C39.9605 105.841 39.52 104.81 38.7788 104.088C38.3873 103.707 37.774 103.363 37.2657 103.745C37.0188 103.956 36.8442 104.239 36.7661 104.554C36.6376 105.019 36.5785 105.5 36.5909 105.983C36.5905 107.659 37.0035 109.341 37.4749 110.938C37.5548 111.209 37.638 111.479 37.7245 111.748L37.9502 111.617C37.1696 110.876 36.2879 110.249 35.3315 109.755C34.6561 109.414 33.91 109.122 33.1467 109.08C32.7001 109.056 32.1339 109.14 31.9147 109.588C31.6492 110.131 32.0048 110.8 32.2946 111.254C32.6215 111.748 32.9964 112.209 33.414 112.629C34.0313 113.259 34.6862 113.851 35.3753 114.402L35.4708 114.171C34.6566 114.152 33.8437 114.246 33.0551 114.449C32.4539 114.595 31.8882 114.86 31.3919 115.23C31.0445 115.504 30.7451 115.881 30.7012 116.336C30.6571 116.793 30.9083 117.208 31.2308 117.51C31.8587 118.099 32.7302 118.41 33.5418 118.644C33.5759 118.652 33.6118 118.646 33.6419 118.628C33.6721 118.611 33.6942 118.582 33.7035 118.548C33.7128 118.514 33.7086 118.478 33.6918 118.448C33.6751 118.417 33.647 118.394 33.6136 118.383H33.6135Z"
              fill="#DAD4C5"/>
        <path class="Vector_2"
              d="M42.7528 118.478C42.6596 118.183 42.5443 117.895 42.4078 117.618C42.1903 117.167 41.9087 116.688 41.482 116.406C41.0716 116.135 40.4933 116.178 40.1908 116.593C39.8865 117.011 39.9868 117.615 40.109 118.078C40.2125 118.471 40.3579 118.851 40.5428 119.213L40.6953 119.015C40.0885 118.767 39.2774 118.662 38.6858 118.994C38.4353 119.134 38.2834 119.373 38.39 119.66C38.4889 119.925 38.7227 120.132 38.9393 120.302C39.1067 120.436 39.2839 120.557 39.4694 120.664V120.43C38.9325 120.779 38.5971 121.438 39.0003 122.017C39.0989 122.159 39.3331 122.024 39.2335 121.881C39.1362 121.754 39.085 121.598 39.0883 121.438C39.0916 121.278 39.1492 121.124 39.2516 121.002C39.349 120.869 39.4689 120.755 39.6057 120.663C39.6257 120.651 39.6423 120.634 39.6537 120.614C39.6652 120.593 39.6712 120.57 39.6712 120.547C39.6712 120.523 39.6652 120.501 39.6537 120.48C39.6423 120.46 39.6257 120.442 39.6057 120.43C39.2872 120.25 38.9381 120.017 38.7249 119.715C38.5988 119.536 38.5825 119.374 38.7835 119.25C39.1204 119.041 39.5503 119.033 39.931 119.091C40.1683 119.125 40.4006 119.187 40.6235 119.275C40.7416 119.323 40.8241 119.17 40.7761 119.077C40.6479 118.822 40.5398 118.559 40.4529 118.287C40.3156 117.869 40.1631 117.334 40.3283 116.902C40.4837 116.495 40.9646 116.404 41.3123 116.618C41.6972 116.855 41.947 117.296 42.1428 117.689C42.2826 117.966 42.3996 118.254 42.4924 118.55C42.5433 118.715 42.804 118.645 42.7528 118.478V118.478Z"
              fill="#DAD4C5"/>
      </g>
      <g class="letter-3">
        <path class="Vector_3"
              d="M59.8695 205.888C48.3363 205.888 39.4941 203.831 33.343 199.718C27.192 195.605 24.1165 189.842 24.1165 182.428C24.1165 177.249 25.7568 172.856 29.0373 169.251C32.3179 165.696 37.0081 163.233 43.1079 161.862C40.8012 160.847 38.8021 159.273 37.1106 157.14C35.4703 154.957 34.6501 152.545 34.6501 149.904C34.6501 146.756 35.5472 144.064 37.3412 141.83C39.1353 139.596 41.8264 137.438 45.4145 135.356C40.955 133.477 37.3669 130.43 34.6501 126.216C31.9847 121.95 30.652 116.948 30.652 111.21C30.652 105.117 31.9591 99.9374 34.5733 95.672C37.1875 91.3558 41.0063 88.0805 46.0296 85.8463C51.053 83.5612 57.1271 82.4187 64.2521 82.4187C65.7899 82.4187 67.4558 82.5202 69.25 82.7234C71.095 82.8757 72.787 83.0788 74.324 83.3327C75.913 83.5358 77.118 83.7643 77.938 84.0182H107.386V93.9963L92.931 96.6622C94.315 98.5918 95.417 100.801 96.238 103.289C97.058 105.726 97.468 108.392 97.468 111.287C97.468 120.021 94.418 126.901 88.318 131.928C82.27 136.905 73.914 139.393 63.2525 139.393C60.6896 139.291 58.2036 139.088 55.7944 138.783C53.9491 139.901 52.5395 141.145 51.5656 142.516C50.5916 143.836 50.1047 145.334 50.1047 147.01C50.1047 148.381 50.5916 149.498 51.5656 150.361C52.5395 151.173 53.9747 151.783 55.8713 152.189C57.8191 152.595 60.177 152.798 62.945 152.798H77.631C86.96 152.798 94.085 154.753 99.006 158.663C103.926 162.573 106.387 168.311 106.387 175.877C106.387 185.475 102.389 192.863 94.392 198.043C86.396 203.273 74.888 205.888 59.8695 205.888ZM60.5615 193.32C66.8663 193.32 72.172 192.711 76.477 191.492C80.783 190.273 84.038 188.521 86.242 186.236C88.446 184.002 89.548 181.336 89.548 178.239C89.548 175.497 88.856 173.389 87.472 171.917C86.088 170.444 84.012 169.429 81.244 168.87C78.476 168.311 75.042 168.032 70.941 168.032H57.5628C54.231 168.032 51.2836 168.54 48.7207 169.555C46.1577 170.622 44.1587 172.145 42.7234 174.126C41.3394 176.106 40.6475 178.493 40.6475 181.285C40.6475 185.145 42.3646 188.115 45.7989 190.197C49.2845 192.279 54.2054 193.32 60.5615 193.32ZM64.0983 127.663C69.378 127.663 73.299 126.241 75.862 123.397C78.425 120.503 79.707 116.441 79.707 111.21C79.707 105.523 78.374 101.258 75.708 98.4141C73.094 95.5705 69.199 94.1486 64.0214 94.1486C58.9468 94.1486 55.0768 95.5958 52.4113 98.4902C49.7971 101.385 48.49 105.676 48.49 111.363C48.49 116.491 49.7971 120.503 52.4113 123.397C55.0768 126.241 58.9725 127.663 64.0983 127.663Z"
              fill="#DAD4C5"/>
        <g class="Group" filter="url(#filter0_f_140_816)">
          <path class="Vector_4"
                d="M49.7392 131.286C48.3254 142.807 53.4917 152.921 61.2785 153.877C69.0654 154.832 76.524 146.267 77.9379 134.746C79.3517 123.225 74.1854 113.111 66.3985 112.155C58.6117 111.2 51.1531 119.765 49.7392 131.286Z"
                fill="#2B2B2B" fill-opacity="0.5"/>
        </g>
        <g class="Group_2" filter="url(#filter1_f_140_816)">
          <path class="Vector_5"
                d="M62.679 74.4737C61.8983 80.8357 70.0889 87.0761 80.9734 88.4118C91.8579 89.7475 101.314 85.6728 102.095 79.3108C102.876 72.9487 94.6852 66.7084 83.8007 65.3726C72.9163 64.0369 63.4598 68.1116 62.679 74.4737Z"
                fill="#2B2B2B" fill-opacity="0.3"/>
        </g>
      </g>
      <g class="picture">
        <path class="sky"
              d="M106.929 27.4633H55.1096C54.1293 27.4633 53.3345 28.258 53.3345 29.2384V66.4075C53.3345 67.3879 54.1293 68.1826 55.1096 68.1826H106.929C107.909 68.1826 108.704 67.3879 108.704 66.4075V29.2384C108.704 28.258 107.909 27.4633 106.929 27.4633Z"
              fill="#458DC9"/>
        <path class="Vector_6"
              d="M106.928 67.8907H55.5373C55.3999 67.8907 55.2623 67.8927 55.1248 67.8907C54.7268 67.8891 54.3455 67.7299 54.0646 67.4479C53.7837 67.1659 53.626 66.784 53.626 66.3859C53.6177 65.785 53.626 65.1833 53.626 64.5823V31.383C53.626 30.6924 53.6235 30.0018 53.626 29.3112C53.6291 28.4655 54.2415 27.7698 55.1097 27.7547C55.2092 27.753 55.3089 27.7547 55.4084 27.7547H105.621C106.053 27.7547 106.485 27.7477 106.917 27.7547C107.316 27.7574 107.697 27.918 107.977 28.2014C108.257 28.4847 108.413 28.8675 108.412 29.266C108.414 29.4603 108.412 29.6548 108.412 29.8491V65.6661C108.412 65.8879 108.413 66.1097 108.412 66.3314C108.409 67.1806 107.799 67.8722 106.928 67.8907C106.554 67.8987 106.552 68.4821 106.928 68.4741C107.479 68.4656 108.005 68.2409 108.391 67.8483C108.778 67.4558 108.995 66.9269 108.995 66.3759C108.998 66.175 108.995 65.9738 108.995 65.7729V29.8259C108.995 29.6371 108.998 29.4482 108.995 29.2595C108.993 28.71 108.775 28.1834 108.388 27.7929C108.001 27.4024 107.477 27.1792 106.928 27.1714C106.542 27.1643 106.155 27.1714 105.769 27.1714H55.3763C55.2369 27.1714 55.0954 27.1664 54.9563 27.1779C54.432 27.2237 53.9442 27.4651 53.5897 27.854C53.2351 28.243 53.0399 28.751 53.0428 29.2773C53.0383 29.9249 53.0428 30.5726 53.0428 31.2202V64.608C53.0428 65.2022 53.0333 65.7974 53.0428 66.3916C53.0465 66.9403 53.2652 67.4658 53.652 67.8551C54.0388 68.2444 54.5627 68.4666 55.1115 68.474C55.2233 68.4759 55.3354 68.474 55.4472 68.474H106.928C107.304 68.474 107.304 67.8907 106.928 67.8907Z"
              fill="black"/>
        <path class="mountain"
              d="M53.3345 65.8084V53.175L65.8169 39.6848C66.2159 39.2536 66.6982 38.9078 67.2346 38.6683C67.771 38.4287 68.35 38.3005 68.938 38.2912C69.525 38.2819 70.108 38.3918 70.652 38.6143C71.196 38.8368 71.689 39.1672 72.101 39.5856L84.826 52.4945L92.991 44.3293C93.797 43.5229 94.888 43.0658 96.029 43.0567C97.169 43.0475 98.268 43.4871 99.087 44.2805L108.704 53.5945V70.8473H53.3944L53.3345 65.8084Z"
              fill="#389B48"/>
        <path class="Vector_7"
              d="M53.626 65.8084V53.1749L53.5406 53.3812L54.9713 51.835L58.3275 48.2078L62.2051 44.0171L65.2003 40.7802C65.9563 39.9631 66.6529 39.1286 67.7652 38.7758C68.397 38.5757 69.067 38.532 69.719 38.6483C70.371 38.7647 70.985 39.0377 71.508 39.4438C71.755 39.6509 71.989 39.8731 72.208 40.1092L74.755 42.6933L78.645 46.6396L82.409 50.4579L84.52 52.6002L84.619 52.7007C84.675 52.7544 84.749 52.7844 84.826 52.7844C84.903 52.7844 84.977 52.7544 85.032 52.7007L88.782 48.9504C90.231 47.502 91.679 46.0536 93.127 44.6052C93.648 44.0691 94.305 43.6848 95.027 43.4934C95.75 43.302 96.511 43.3107 97.228 43.5185C98.101 43.7781 98.728 44.3389 99.359 44.9501L104.303 49.7388L106.957 52.3091C107.445 52.7815 107.915 53.2896 108.429 53.7342C108.453 53.7549 108.474 53.7786 108.497 53.8006L108.412 53.5944V70.8473L108.703 70.5556H55.6423C54.9287 70.5556 54.1986 70.5108 53.4859 70.5556C53.4557 70.5575 53.4247 70.5556 53.3943 70.5556L53.686 70.8473L53.6336 66.4465L53.6261 65.8084C53.6216 65.4333 53.0383 65.4323 53.0427 65.8084L53.0951 70.2091L53.1027 70.8473C53.1038 70.9243 53.1349 70.9978 53.1894 71.0522C53.2438 71.1067 53.3173 71.1378 53.3943 71.1389H106.455C107.174 71.1389 107.894 71.1523 108.612 71.1389C108.642 71.1383 108.673 71.1389 108.703 71.1389C108.78 71.1378 108.854 71.1068 108.908 71.0523C108.963 70.9978 108.994 70.9243 108.995 70.8473V54.1845C108.995 53.9253 109.066 53.5551 108.874 53.3532C107.938 52.3729 106.919 51.4602 105.946 50.5176L101.324 46.041L99.735 44.5022C99.347 44.093 98.914 43.7301 98.443 43.4208C97.774 43.0265 97.018 42.8044 96.243 42.7744C95.467 42.7443 94.697 42.9074 94 43.2488C93.369 43.5589 92.88 44.0273 92.392 44.5156L88.467 48.4403L84.823 52.0843L84.619 52.2883H85.032L82.527 49.7474L77.359 44.5042L73.045 40.1278C72.799 39.8786 72.555 39.6275 72.308 39.3801C71.696 38.7674 70.927 38.3362 70.085 38.1344C69.243 37.9325 68.362 37.968 67.5385 38.2368C66.0545 38.7373 65.079 40.0531 64.0525 41.1625L59.3317 46.2644L54.6347 51.3406L53.335 52.7452C53.2676 52.818 53.1899 52.8884 53.1295 52.9674C53.0203 53.1101 53.0427 53.2618 53.0427 53.4307V65.8085C53.0427 66.1837 53.626 66.1843 53.626 65.8084Z"
              fill="black"/>
        <path class="sun"
              d="M84.133 40.1521C86.299 40.1521 88.055 38.3961 88.055 36.2301C88.055 34.0641 86.299 32.3081 84.133 32.3081C81.967 32.3081 80.211 34.0641 80.211 36.2301C80.211 38.3961 81.967 40.1521 84.133 40.1521Z"
              fill="#FFC41F"/>
        <path class="Vector_8"
              d="M87.764 36.2297C87.764 36.9771 87.532 37.7062 87.102 38.3174C86.672 38.9286 86.064 39.3921 85.36 39.6446C84.657 39.8972 83.893 39.9265 83.172 39.7284C82.451 39.5304 81.809 39.1148 81.334 38.5383C80.858 37.9617 80.572 37.2525 80.514 36.5073C80.457 35.7621 80.631 35.0173 81.012 34.3746C81.394 33.732 81.965 33.2228 82.646 32.9165C83.328 32.6103 84.088 32.522 84.822 32.6636C85.647 32.8294 86.39 33.2745 86.926 33.924C87.462 34.5735 87.758 35.3877 87.764 36.2297C87.766 36.6049 88.35 36.6058 88.347 36.2297C88.35 35.1381 87.93 34.0879 87.175 33.2992C86.42 32.5104 85.39 32.0443 84.299 31.9985C83.208 31.9527 82.142 32.3308 81.324 33.0535C80.506 33.7762 80 34.7875 79.911 35.8754C79.821 36.9633 80.157 38.0435 80.846 38.8897C81.536 39.7358 82.526 40.2822 83.61 40.4145C84.694 40.5467 85.786 40.2544 86.659 39.5989C87.532 38.9435 88.117 37.9756 88.292 36.8982C88.327 36.6769 88.345 36.4535 88.347 36.2297C88.35 35.8542 87.766 35.8538 87.764 36.2297Z"
              fill="black"/>
      </g>
      <g class="h4-leg-1">
        <g class="h4-leg-1-foot">
          <path class="Vector_9" d="M53.4868 134.624L49.7501 140.512L42.0282 137.519L47.5006 128.465" fill="#FC7F3A"/>
          <path class="Vector_10"
                d="M53.2352 134.476L51.9731 136.465L49.961 139.636L49.4985 140.365L49.8279 140.231L47.209 139.216L43.0579 137.607L42.1059 137.238L42.2802 137.666L44.1366 134.595L47.0738 129.736L47.7527 128.612C47.9474 128.29 47.4431 127.997 47.249 128.318L45.3925 131.389L42.4553 136.249L41.7765 137.372C41.7548 137.41 41.7421 137.454 41.7393 137.498C41.7366 137.542 41.7438 137.587 41.7606 137.628C41.7773 137.669 41.8031 137.706 41.836 137.736C41.8689 137.765 41.9081 137.787 41.9507 137.8L44.5697 138.815L48.7206 140.425L49.6727 140.794C49.7347 140.81 49.8005 140.806 49.8599 140.782C49.9194 140.758 49.9693 140.715 50.0021 140.66L51.2642 138.671L53.2763 135.5L53.7387 134.771C53.9405 134.453 53.4359 134.16 53.2351 134.476H53.2352Z"
                fill="black"/>
          <path class="Vector_11"
                d="M42.8586 135.344L38.7485 141.882L53.2264 151.069C53.2264 151.069 56.0819 147.114 50.9507 143.25C50.4902 142.901 50.1792 142.39 50.0803 141.82C49.9814 141.251 50.102 140.665 50.4177 140.18C50.602 139.896 50.7521 139.666 50.8739 139.481C50.9387 139.383 50.9833 139.272 51.005 139.156C51.0266 139.04 51.025 138.921 51.0002 138.806C50.9754 138.691 50.9279 138.581 50.8604 138.485C50.7929 138.388 50.7068 138.306 50.6072 138.242L49.9876 137.849L47.6938 137.82C47.1123 137.813 46.5445 137.643 46.055 137.329C45.5655 137.015 45.1739 136.57 44.9248 136.044L44.6432 135.45C44.5649 135.285 44.4437 135.144 44.2922 135.042C44.1408 134.94 43.9646 134.88 43.7822 134.869C43.5998 134.858 43.4178 134.897 43.2553 134.98C43.0929 135.064 42.9558 135.19 42.8586 135.344Z"
                fill="#458DC9"/>
          <path class="Vector_12"
                d="M42.607 135.197L41.2132 137.415L39.0043 140.928L38.497 141.735C38.4592 141.802 38.449 141.881 38.4686 141.956C38.4881 142.03 38.5358 142.094 38.6016 142.134L40.0457 143.051L43.4971 145.241L47.6868 147.899L51.2955 150.189C51.8792 150.559 52.4531 150.962 53.0537 151.305C53.0625 151.31 53.0709 151.315 53.0794 151.321C53.1466 151.358 53.2256 151.368 53.3 151.349C53.3743 151.329 53.4382 151.282 53.4785 151.216C53.9687 150.535 54.2168 149.631 54.2908 148.808C54.4748 146.763 53.3461 144.933 51.8634 143.62C51.404 143.213 50.8468 142.9 50.5562 142.339C50.3259 141.886 50.2765 141.363 50.4179 140.874C50.5119 140.597 50.6474 140.334 50.8196 140.097C51.001 139.864 51.1499 139.607 51.2621 139.334C51.3341 139.083 51.3223 138.815 51.2284 138.571C51.1346 138.327 50.9639 138.121 50.7421 137.983C50.6095 137.895 50.4731 137.812 50.3386 137.727C50.2363 137.641 50.1139 137.583 49.9828 137.558C49.7543 137.542 49.5213 137.552 49.2924 137.549C48.6821 137.541 48.0579 137.572 47.4495 137.516C46.3996 137.42 45.5702 136.727 45.13 135.798C44.9759 135.473 44.8484 135.116 44.5628 134.881C44.4186 134.76 44.2502 134.672 44.0691 134.623C43.8879 134.573 43.6981 134.563 43.5127 134.593C43.3272 134.623 43.1504 134.692 42.9942 134.797C42.8379 134.901 42.7059 135.038 42.607 135.197C42.3998 135.512 42.9048 135.804 43.1107 135.492C43.1849 135.378 43.2893 135.286 43.4123 135.228C43.5353 135.17 43.6721 135.147 43.8074 135.162C43.9364 135.18 44.0587 135.23 44.1624 135.309C44.266 135.388 44.3474 135.493 44.3987 135.613C44.6673 136.155 44.8959 136.687 45.3356 137.123C45.9251 137.704 46.7045 138.053 47.5306 138.106C47.9104 138.131 48.2947 138.12 48.6751 138.125L49.9879 138.141L49.8408 138.101L50.2857 138.384C50.458 138.465 50.5989 138.6 50.6867 138.77C50.8087 139.071 50.6401 139.307 50.4809 139.55C50.2549 139.861 50.0641 140.195 49.9122 140.548C49.6804 141.191 49.711 141.9 49.9975 142.52C50.329 143.252 51.0283 143.641 51.598 144.165C52.5414 145.033 53.3327 146.106 53.6183 147.374C53.7979 148.181 53.7574 149.021 53.5012 149.806C53.4732 149.895 53.4429 149.983 53.4103 150.07C53.3964 150.106 53.382 150.143 53.3675 150.18C53.3605 150.197 53.3532 150.215 53.346 150.232C53.3419 150.242 53.3639 150.193 53.3367 150.253C53.283 150.373 53.2273 150.491 53.1652 150.606C53.1087 150.716 53.0451 150.821 52.975 150.922L53.374 150.817L51.9299 149.901L48.4784 147.711L44.2887 145.052L40.68 142.763L39.4826 142.003C39.2988 141.886 39.1162 141.745 38.9217 141.647C38.9128 141.642 38.9045 141.636 38.896 141.631L39.0007 142.03L40.3944 139.812L42.6033 136.299L43.1107 135.492C43.311 135.173 42.8065 134.88 42.607 135.197Z"
                fill="black"/>
          <path class="Vector_13"
                d="M50.1061 141.637C49.9744 141.632 49.8425 141.642 49.7134 141.669C49.4549 141.714 49.2105 141.819 48.9996 141.975C48.8254 142.105 48.6761 142.265 48.5587 142.448C48.5203 142.515 48.5098 142.595 48.5293 142.669C48.5489 142.744 48.597 142.808 48.6634 142.848C48.7305 142.885 48.8095 142.895 48.8839 142.875C48.9583 142.856 49.0222 142.808 49.0624 142.743C49.0768 142.721 49.0914 142.698 49.1068 142.677C49.1143 142.666 49.1219 142.656 49.1297 142.645C49.1034 142.679 49.1 142.684 49.1193 142.659C49.1511 142.622 49.1827 142.586 49.2174 142.551C49.2502 142.519 49.285 142.489 49.3202 142.459C49.3441 142.44 49.3376 142.445 49.3006 142.473C49.3094 142.467 49.3182 142.46 49.3271 142.454C49.3402 142.445 49.3535 142.435 49.367 142.426C49.4352 142.382 49.5067 142.343 49.581 142.31C49.6274 142.289 49.5068 142.339 49.5771 142.312C49.5943 142.306 49.6115 142.299 49.6289 142.293C49.66 142.283 49.6914 142.273 49.7231 142.264C49.7817 142.248 49.8409 142.237 49.9007 142.227C49.9656 142.216 49.8285 142.235 49.8739 142.23C49.8865 142.229 49.8991 142.227 49.9117 142.226C49.9329 142.224 49.954 142.222 49.9752 142.221C50.0188 142.218 50.0625 142.218 50.1061 142.22C50.1834 142.22 50.2574 142.189 50.312 142.135C50.3666 142.08 50.3975 142.006 50.3978 141.929C50.3959 141.852 50.3646 141.779 50.3103 141.725C50.256 141.67 50.1829 141.639 50.1061 141.637Z"
                fill="black"/>
          <path class="Vector_14"
                d="M50.735 142.759C50.6033 142.753 50.4714 142.764 50.3423 142.791C50.0838 142.836 49.8394 142.94 49.6285 143.097C49.4544 143.227 49.305 143.387 49.1877 143.57C49.1493 143.637 49.1387 143.717 49.1583 143.791C49.1778 143.866 49.226 143.93 49.2923 143.969C49.3595 144.007 49.4385 144.017 49.5128 143.997C49.5872 143.978 49.6511 143.93 49.6913 143.865C49.7057 143.842 49.7203 143.82 49.7357 143.799C49.7432 143.788 49.7509 143.778 49.7587 143.767C49.7324 143.801 49.7289 143.806 49.7482 143.781C49.78 143.744 49.8116 143.707 49.8464 143.673C49.8792 143.64 49.914 143.61 49.9492 143.58C49.9731 143.561 49.9665 143.566 49.9295 143.595C49.9383 143.589 49.9471 143.582 49.956 143.576C49.9692 143.566 49.9825 143.557 49.996 143.548C50.0641 143.504 50.1356 143.465 50.2099 143.432C50.2563 143.41 50.1357 143.461 50.2061 143.434C50.2232 143.427 50.2405 143.421 50.2578 143.415C50.2889 143.404 50.3203 143.395 50.3521 143.386C50.4106 143.37 50.4698 143.358 50.5296 143.348C50.5945 143.337 50.4574 143.356 50.5029 143.352C50.5155 143.35 50.5281 143.349 50.5407 143.348C50.5618 143.345 50.5829 143.344 50.6041 143.343C50.6477 143.339 50.6915 143.339 50.7351 143.342C50.8123 143.342 50.8863 143.311 50.9409 143.256C50.9956 143.202 51.0264 143.128 51.0267 143.05C51.0249 142.974 50.9936 142.901 50.9393 142.846C50.885 142.792 50.8118 142.761 50.7351 142.759H50.735Z"
                fill="black"/>
          <path class="Vector_15"
                d="M51.6976 143.679C51.5658 143.673 51.4339 143.684 51.3049 143.711C51.0464 143.756 50.8019 143.861 50.591 144.017C50.4169 144.147 50.2676 144.307 50.1502 144.49C50.1118 144.557 50.1012 144.637 50.1208 144.711C50.1404 144.786 50.1885 144.85 50.2548 144.889C50.322 144.927 50.401 144.937 50.4754 144.917C50.5497 144.898 50.6137 144.85 50.6539 144.785C50.6683 144.762 50.6829 144.74 50.6983 144.719C50.7058 144.708 50.7134 144.698 50.7212 144.687C50.6949 144.721 50.6915 144.726 50.7108 144.701C50.7426 144.664 50.7742 144.627 50.8089 144.593C50.8417 144.56 50.8765 144.53 50.9117 144.5C50.9356 144.481 50.9291 144.486 50.8921 144.515C50.9009 144.509 50.9097 144.502 50.9186 144.496C50.9317 144.486 50.945 144.477 50.9585 144.468C51.0267 144.424 51.0982 144.385 51.1725 144.352C51.2189 144.33 51.0983 144.381 51.1686 144.354C51.1858 144.347 51.203 144.341 51.2204 144.335C51.2515 144.324 51.2829 144.315 51.3146 144.306C51.3731 144.29 51.4324 144.278 51.4922 144.268C51.5571 144.257 51.42 144.276 51.4654 144.272C51.478 144.27 51.4906 144.269 51.5032 144.268C51.5243 144.265 51.5455 144.264 51.5667 144.263C51.6103 144.26 51.654 144.259 51.6976 144.262C51.7749 144.262 51.8489 144.231 51.9035 144.176C51.9581 144.122 51.989 144.048 51.9893 143.97C51.9874 143.894 51.9561 143.821 51.9018 143.766C51.8475 143.712 51.7744 143.681 51.6976 143.679Z"
                fill="black"/>
          <path class="Vector_16"
                d="M53.9206 149.345C53.8033 149.959 53.5675 150.545 53.2264 151.069L38.7485 141.882L39.3907 140.835L39.3827 140.83L40.5311 139.02C40.5311 139.02 42.8865 139.607 44.166 142.597C45.3495 144.165 46.7469 142.964 48.2416 144.185C49.7363 145.405 48.855 145.599 49.8432 146.213C49.8432 146.213 50.9812 147.012 52.2094 146.793C53.4377 146.574 54.2152 147.549 53.9206 149.345Z"
                fill="white"/>
          <path class="Vector_17"
                d="M53.6395 149.268C53.5333 149.859 53.3071 150.422 52.9747 150.922L53.3738 150.817L51.9297 149.901L48.4783 147.711L44.2886 145.053L40.6799 142.763L39.4825 142.003C39.2987 141.886 39.1161 141.746 38.9216 141.647C38.9127 141.643 38.9044 141.636 38.8959 141.631L39.0006 142.03L39.6428 140.982C39.6804 140.915 39.6906 140.836 39.6711 140.761C39.6516 140.687 39.6039 140.623 39.5381 140.583L39.5301 140.578L39.6347 140.977L40.7832 139.167L40.4538 139.301C40.5032 139.314 40.5518 139.33 40.6 139.347C40.6543 139.365 40.7077 139.386 40.7613 139.407C40.773 139.411 40.7845 139.416 40.7961 139.421C40.8599 139.446 40.7348 139.394 40.8007 139.422C40.8417 139.44 40.8826 139.458 40.9231 139.477C41.359 139.681 41.7653 139.942 42.1309 140.255C42.6775 140.726 43.1401 141.287 43.4988 141.913C43.6022 142.091 43.698 142.274 43.7864 142.461C43.8321 142.578 43.8885 142.69 43.9548 142.797C44.0305 142.9 44.1142 142.997 44.205 143.087C44.4847 143.368 44.8316 143.574 45.2129 143.683C45.9065 143.881 46.6474 143.767 47.3345 144.001C47.7483 144.161 48.1208 144.413 48.425 144.736C48.5416 144.845 48.648 144.964 48.7426 145.093C48.7753 145.139 48.8064 145.187 48.8347 145.237C48.8496 145.263 48.8639 145.289 48.8775 145.316C48.8825 145.327 48.9275 145.43 48.9033 145.37C48.9702 145.535 49.0064 145.71 49.0867 145.871C49.2075 146.085 49.3807 146.266 49.5902 146.396C50.0245 146.696 50.5115 146.913 51.0257 147.034C51.2553 147.088 51.4899 147.117 51.7256 147.123C51.9599 147.126 52.1829 147.076 52.4145 147.059C52.6906 147.025 52.9692 147.098 53.1936 147.262C53.7525 147.697 53.742 148.619 53.6395 149.268C53.6213 149.342 53.6323 149.421 53.6701 149.487C53.708 149.554 53.7699 149.604 53.8431 149.626C53.9177 149.646 53.9971 149.636 54.0643 149.598C54.1314 149.56 54.1808 149.497 54.2019 149.423C54.3196 148.678 54.3393 147.814 53.888 147.166C53.7113 146.916 53.4684 146.721 53.1866 146.601C52.9048 146.481 52.5952 146.442 52.2926 146.488C51.8703 146.557 51.4386 146.537 51.0241 146.432C50.7228 146.348 50.4335 146.226 50.1631 146.068C50.0169 145.99 49.8794 145.896 49.7527 145.788C49.7122 145.752 49.6747 145.712 49.6408 145.669C49.6801 145.72 49.6192 145.629 49.6099 145.614C49.5989 145.596 49.5906 145.576 49.5813 145.557C49.6154 145.626 49.5848 145.566 49.5794 145.551C49.5662 145.511 49.5527 145.472 49.54 145.432C49.3387 144.802 48.9123 144.343 48.397 143.938C48.0448 143.656 47.6336 143.457 47.1938 143.355C46.8131 143.284 46.4277 143.241 46.0407 143.226C45.7041 143.218 45.3725 143.143 45.0655 143.004C44.8998 142.918 44.7487 142.807 44.6174 142.675C44.5432 142.607 44.4764 142.532 44.418 142.45C44.351 142.322 44.2907 142.191 44.2372 142.057C43.8847 141.335 43.4124 140.678 42.8404 140.114C42.236 139.525 41.4444 138.949 40.6089 138.739C40.5469 138.723 40.4815 138.728 40.4222 138.752C40.363 138.776 40.313 138.818 40.2795 138.873L39.1311 140.683C39.0933 140.75 39.0831 140.829 39.1026 140.903C39.1222 140.978 39.1699 141.042 39.2357 141.082L39.2437 141.087L39.1391 140.688L38.4969 141.735C38.4592 141.803 38.449 141.882 38.4686 141.956C38.4881 142.031 38.5358 142.095 38.6015 142.135L40.0456 143.051L43.497 145.241L47.6867 147.899L51.2954 150.189C51.8791 150.56 52.453 150.962 53.0537 151.305C53.0625 151.31 53.0708 151.316 53.0794 151.321C53.1466 151.359 53.2256 151.368 53.2999 151.349C53.3742 151.33 53.4382 151.282 53.4784 151.217C53.8387 150.674 54.0849 150.064 54.202 149.423C54.2781 149.056 53.7159 148.9 53.6395 149.268Z"
                fill="black"/>
        </g>
        <path class="Vector_18"
              d="M68.696 86.6525L67.6993 114.627L56.2797 138.999L43.7954 132.094C43.7954 132.094 52.122 115.669 55.5133 111.101L56.1 98.1925C56.2179 95.6005 56.9956 93.0816 58.3594 90.8742L62.1045 84.8132"
              fill="#EA2F2F"/>
        <path class="Vector_19"
              d="M68.404 86.6527L68.308 89.3404L68.077 95.8289L67.7956 103.73L67.5452 110.762L67.4128 114.479C67.408 114.519 67.4066 114.558 67.4086 114.598C67.4216 114.686 67.3621 114.549 67.4458 114.483C67.4 114.519 67.3667 114.652 67.3428 114.703L66.6988 116.077L64.1481 121.521L60.8226 128.618L57.7777 135.117L56.1049 138.687L56.0277 138.852L56.4268 138.747L52.2136 136.417L45.4926 132.7L43.9425 131.843L44.0472 132.242C44.3989 131.548 44.7537 130.856 45.1114 130.165C45.9791 128.482 46.8561 126.805 47.7423 125.132C48.8416 123.059 49.9599 120.995 51.0972 118.941C52.139 117.07 53.198 115.206 54.3332 113.39C54.7548 112.715 55.1863 112.045 55.6536 111.401C55.7508 111.281 55.8059 111.133 55.8104 110.979L55.8342 110.455L56.0528 105.644L56.307 100.05C56.3735 98.5887 56.4044 97.1323 56.7195 95.696C57.0841 94.0418 57.7242 92.4606 58.6129 91.0185C58.8738 90.594 59.1357 90.1701 59.3986 89.7468L62.1594 85.2788L62.3561 84.9604C62.554 84.6402 62.0496 84.3469 61.8524 84.666L59.6132 88.2901C58.6787 89.8027 57.664 91.2927 56.978 92.9393C56.3036 94.5648 55.9105 96.2932 55.8155 98.0505C55.7982 98.3665 55.786 98.6829 55.7717 98.9991L55.5456 103.972L55.2947 109.493L55.2285 110.948C55.2234 110.991 55.2215 111.034 55.2226 111.077C55.223 111.081 55.2192 111.097 55.2216 111.099C55.1805 111.065 55.3017 110.963 55.2213 111.009C55.1903 111.026 55.1603 111.092 55.1397 111.12C54.9266 111.415 54.7219 111.715 54.5212 112.018C53.4233 113.675 52.4275 115.401 51.4466 117.129C50.2829 119.179 49.1548 121.25 48.0424 123.329C47.063 125.159 46.0958 126.996 45.141 128.839C44.6287 129.827 44.1197 130.817 43.6141 131.808C43.5905 131.855 43.567 131.901 43.5435 131.947C43.5058 132.014 43.4957 132.093 43.5152 132.168C43.5347 132.242 43.5824 132.306 43.6481 132.346L47.8613 134.676L54.5823 138.394L56.1324 139.251C56.1993 139.289 56.2787 139.3 56.3533 139.28C56.4279 139.26 56.4919 139.212 56.5314 139.146L57.7162 136.618L60.5314 130.61L63.896 123.429L66.7368 117.366L67.6112 115.5C67.7232 115.26 67.8563 115.022 67.9506 114.775C68.041 114.539 68.005 114.232 68.014 113.984L68.081 112.089L68.31 105.655L68.593 97.7349L68.844 90.6738L68.981 86.8282L68.987 86.6528C69.001 86.2773 68.417 86.2779 68.404 86.6528V86.6527Z"
              fill="black"/>
        <path class="Vector_20"
              d="M45.783 128.318L47.0278 128.96L50.0007 130.492L53.6138 132.354L56.7381 133.964C57.2402 134.222 57.737 134.515 58.2532 134.745C58.2608 134.748 58.2682 134.752 58.2756 134.756C58.4421 134.842 58.5899 134.59 58.4228 134.504L57.178 133.863L54.2051 132.331L50.592 130.469L47.4677 128.859C46.9656 128.6 46.4688 128.308 45.9526 128.078C45.945 128.074 45.9376 128.07 45.9302 128.066C45.7636 127.981 45.6159 128.232 45.783 128.318Z"
              fill="black"/>
        <path class="Vector_21"
              d="M56.2456 96.9683H59.4221L59.1304 96.6766L58.9009 99.8308L58.7737 101.579C58.7304 102.174 58.5819 102.722 58.1414 103.158C57.7504 103.541 57.2251 103.757 56.6774 103.759C56.3994 103.761 56.1214 103.759 55.8434 103.759C55.4681 103.759 55.4675 104.342 55.8434 104.342C56.6377 104.342 57.4131 104.375 58.1126 103.923C58.471 103.687 58.7691 103.371 58.9827 102.999C59.1963 102.627 59.3194 102.21 59.3422 101.782C59.435 100.533 59.5259 99.2834 59.6149 98.0338L59.7137 96.6766C59.7129 96.5995 59.6819 96.5257 59.6274 96.4712C59.5729 96.4167 59.4991 96.3857 59.422 96.3849H56.2456C55.8702 96.3849 55.8696 96.9682 56.2456 96.9682V96.9683Z"
              fill="black"/>
      </g>
      <path class="Vector_22" d="M74.085 138.462V145.437L65.9614 147.046L65.7315 136.47" fill="#FC7F3A"/>
      <path class="Vector_23"
            d="M73.7941 138.462V145.437L74.0081 145.156L71.2521 145.701L66.8854 146.567L65.8837 146.765L66.2529 147.046L66.1749 143.458L66.0516 137.782L66.0231 136.47C66.0149 136.095 65.4316 136.094 65.4397 136.47L65.5177 140.058L65.6411 145.734L65.6696 147.046C65.6705 147.091 65.6814 147.135 65.7016 147.175C65.7218 147.214 65.7507 147.249 65.7862 147.276C65.8217 147.303 65.8629 147.322 65.9066 147.331C65.9504 147.34 65.9956 147.338 66.0388 147.327L68.7941 146.782L73.1611 145.916L74.1631 145.718C74.2241 145.701 74.2781 145.664 74.3171 145.613C74.3551 145.562 74.3761 145.5 74.3771 145.437V138.462C74.3771 138.087 73.7941 138.086 73.7941 138.462Z"
            fill="black"/>
      <path class="Vector_24"
            d="M65.4973 144.765L65.5298 152.488H82.676C82.676 152.488 82.969 147.619 76.566 147.105C75.99 147.057 75.453 146.792 75.065 146.364C74.676 145.936 74.464 145.377 74.471 144.799C74.474 144.46 74.478 144.186 74.482 143.964C74.484 143.846 74.462 143.729 74.418 143.619C74.374 143.51 74.309 143.41 74.226 143.326C74.144 143.242 74.045 143.175 73.936 143.13C73.827 143.084 73.711 143.061 73.593 143.061H72.859L70.907 144.265C70.412 144.571 69.841 144.731 69.259 144.728C68.678 144.725 68.109 144.559 67.6168 144.249L67.0609 143.899C66.9063 143.801 66.7284 143.747 66.5457 143.742C66.3631 143.737 66.1824 143.781 66.0226 143.869C65.8627 143.958 65.7297 144.088 65.6373 144.245C65.5449 144.403 65.4965 144.583 65.4973 144.765Z"
            fill="#458DC9"/>
      <path class="Vector_25"
            d="M65.206 144.766L65.217 147.384L65.2345 151.535L65.2385 152.488C65.2396 152.565 65.2707 152.638 65.3252 152.693C65.3796 152.747 65.4532 152.778 65.5302 152.78H80.564C81.256 152.78 81.954 152.805 82.646 152.78C82.656 152.779 82.667 152.78 82.677 152.78C82.754 152.778 82.827 152.747 82.881 152.692C82.936 152.638 82.967 152.565 82.968 152.488C82.986 151.808 82.857 151.132 82.59 150.506C81.993 149.024 80.787 147.974 79.313 147.399C78.808 147.205 78.285 147.06 77.751 146.966C77.427 146.908 77.099 146.864 76.771 146.832C76.492 146.819 76.218 146.76 75.959 146.659C75.712 146.55 75.49 146.393 75.306 146.196C75.121 146 74.978 145.768 74.885 145.516C74.793 145.239 74.752 144.948 74.764 144.657C74.768 144.336 74.815 143.979 74.738 143.663C74.668 143.401 74.512 143.17 74.294 143.007C74.076 142.845 73.81 142.761 73.539 142.769C73.355 142.769 73.171 142.769 72.988 142.769C72.882 142.761 72.776 142.781 72.68 142.829C72.085 143.163 71.513 143.549 70.932 143.908C70.587 144.136 70.203 144.298 69.799 144.388C69.137 144.514 68.453 144.398 67.8692 144.061C67.5638 143.884 67.2803 143.644 66.9469 143.522C66.749 143.454 66.5376 143.434 66.3303 143.464C66.1231 143.494 65.9261 143.573 65.7557 143.695C65.5853 143.816 65.4465 143.977 65.3508 144.163C65.2552 144.35 65.2056 144.556 65.206 144.766C65.1991 145.141 65.7824 145.141 65.7893 144.766C65.7909 144.633 65.8283 144.504 65.8974 144.391C65.9665 144.278 66.0648 144.186 66.1819 144.124C66.299 144.062 66.4306 144.033 66.5628 144.04C66.695 144.047 66.823 144.089 66.9331 144.163C67.4496 144.478 67.9321 144.807 68.537 144.939C69.399 145.125 70.3 144.974 71.054 144.517C71.355 144.335 71.653 144.148 71.952 143.964L73.006 143.313L72.859 143.353C73.265 143.353 73.855 143.235 74.106 143.643C74.18 143.788 74.208 143.952 74.188 144.114C74.184 144.359 74.176 144.605 74.18 144.851C74.186 145.238 74.278 145.619 74.447 145.968C74.616 146.312 74.86 146.613 75.16 146.851C75.461 147.088 75.811 147.256 76.184 147.341C76.595 147.431 77.024 147.433 77.44 147.502C77.803 147.561 78.163 147.642 78.517 147.744C79.588 148.056 80.575 148.6 81.297 149.451C81.556 149.764 81.774 150.109 81.947 150.477C82.017 150.624 82.078 150.775 82.128 150.929C82.181 151.088 82.227 151.249 82.266 151.412C82.301 151.563 82.328 151.715 82.352 151.868C82.361 151.93 82.343 151.795 82.35 151.855C82.352 151.871 82.354 151.887 82.356 151.902C82.36 151.937 82.364 151.972 82.367 152.006C82.372 152.059 82.376 152.111 82.38 152.164C82.388 152.272 82.39 152.38 82.385 152.488L82.677 152.196H66.2249C66.0074 152.196 65.7773 152.174 65.5606 152.196C65.5507 152.197 65.5402 152.196 65.5302 152.196L65.8218 152.488L65.8108 149.869L65.7933 145.719L65.7893 144.765C65.7878 144.39 65.2044 144.39 65.206 144.766Z"
            fill="black"/>
      <path class="Vector_26"
            d="M62.5592 98.0714C62.1432 103.746 64.5472 141.519 64.5472 141.519L79.45 141.591L75.158 87.649L64.3518 86.1928"
            fill="#EA2F2F"/>
      <path class="Vector_27"
            d="M62.2673 98.0717C62.2069 98.9065 62.215 99.7477 62.2213 100.584C62.2311 101.903 62.2659 103.222 62.3071 104.54C62.3593 106.211 62.4222 107.881 62.4958 109.551C62.5764 111.444 62.6639 113.336 62.7582 115.227C62.8559 117.212 62.9583 119.196 63.0652 121.179C63.1701 123.135 63.2781 125.091 63.3893 127.046C63.4902 128.824 63.5931 130.601 63.6981 132.379C63.7855 133.859 63.8741 135.338 63.9641 136.818C64.0281 137.869 64.0928 138.921 64.1582 139.973C64.1889 140.467 64.212 140.962 64.2511 141.456C64.2528 141.477 64.2538 141.498 64.2552 141.52C64.2567 141.596 64.2879 141.67 64.3423 141.724C64.3967 141.779 64.47 141.81 64.5469 141.811L69.602 141.835L77.599 141.874L79.45 141.883C79.527 141.882 79.601 141.851 79.656 141.796C79.71 141.742 79.741 141.668 79.742 141.591L79.627 140.151L79.314 136.216L78.852 130.414L78.289 123.337L77.67 115.558L77.048 107.734L76.467 100.44L75.977 94.2754L75.624 89.8419C75.568 89.1414 75.518 88.4402 75.457 87.7401C75.454 87.7099 75.452 87.6796 75.45 87.6493C75.449 87.5857 75.427 87.5241 75.389 87.4734C75.35 87.4228 75.297 87.3859 75.236 87.3681L71.584 86.8759L65.7636 86.0916L64.4292 85.9118C64.0621 85.8623 63.9032 86.4243 64.2741 86.4743L67.9262 86.9664L73.746 87.7506L75.081 87.9305L74.866 87.6493L74.981 89.0889L75.294 93.0245L75.756 98.8263L76.319 105.903L76.938 113.682L77.56 121.506L78.141 128.8L78.631 134.965L78.984 139.398C79.039 140.091 79.043 140.812 79.151 141.5C79.156 141.53 79.156 141.561 79.158 141.591L79.45 141.299L74.395 141.275L66.3981 141.237L64.547 141.228L64.8386 141.52C64.8171 141.182 64.7959 140.844 64.7748 140.506C64.7169 139.579 64.6595 138.651 64.6029 137.724C64.518 136.337 64.4343 134.951 64.3518 133.564C64.2497 131.847 64.1493 130.131 64.0508 128.414C63.9409 126.498 63.8336 124.582 63.7289 122.665C63.6201 120.668 63.5151 118.672 63.4138 116.675C63.3165 114.749 63.2245 112.822 63.1377 110.895C63.0604 109.159 62.9906 107.422 62.9283 105.685C62.8791 104.269 62.8364 102.852 62.8146 101.435C62.7997 100.468 62.7872 99.499 62.8256 98.5326C62.8318 98.3788 62.8396 98.2251 62.8507 98.0716C62.8778 97.6971 62.2944 97.6988 62.2674 98.0716L62.2673 98.0717Z"
            fill="black"/>
      <path class="Vector_28"
            d="M74.997 146.19C74.884 146.255 74.779 146.332 74.685 146.422C74.477 146.614 74.316 146.853 74.217 147.119C74.15 147.305 74.116 147.502 74.117 147.7C74.117 147.777 74.147 147.851 74.202 147.906C74.257 147.961 74.331 147.991 74.408 147.991C74.486 147.991 74.56 147.961 74.614 147.906C74.669 147.851 74.7 147.777 74.7 147.7C74.7 147.662 74.701 147.625 74.704 147.588C74.705 147.567 74.708 147.546 74.71 147.525C74.713 147.493 74.705 147.562 74.705 147.559C74.708 147.548 74.709 147.537 74.711 147.525C74.723 147.455 74.741 147.386 74.764 147.318C74.769 147.303 74.774 147.288 74.78 147.274C74.783 147.267 74.786 147.259 74.788 147.252C74.798 147.223 74.772 147.29 74.774 147.287C74.79 147.256 74.802 147.223 74.818 147.193C74.847 147.139 74.878 147.087 74.913 147.037C74.921 147.026 74.928 147.015 74.936 147.004C74.94 146.999 74.944 146.994 74.948 146.989C74.966 146.964 74.918 147.027 74.922 147.022C74.94 147.002 74.957 146.98 74.975 146.96C75.007 146.922 75.042 146.887 75.078 146.853C75.11 146.823 75.142 146.796 75.175 146.769C75.225 146.728 75.11 146.817 75.166 146.776C75.179 146.767 75.191 146.758 75.204 146.749C75.232 146.729 75.262 146.711 75.292 146.694C75.358 146.655 75.406 146.591 75.426 146.516C75.445 146.441 75.435 146.362 75.396 146.295C75.356 146.23 75.292 146.182 75.218 146.163C75.144 146.143 75.065 146.153 74.997 146.19Z"
            fill="black"/>
      <path class="Vector_29"
            d="M76.129 146.8C76.016 146.864 75.911 146.942 75.817 147.032C75.608 147.224 75.448 147.462 75.349 147.728C75.281 147.914 75.247 148.111 75.248 148.309C75.248 148.386 75.279 148.46 75.333 148.515C75.388 148.57 75.462 148.601 75.54 148.601C75.617 148.601 75.691 148.57 75.746 148.515C75.801 148.46 75.831 148.386 75.831 148.309C75.831 148.272 75.833 148.235 75.835 148.197C75.837 148.176 75.839 148.156 75.841 148.135C75.844 148.102 75.836 148.171 75.837 148.169C75.839 148.158 75.84 148.146 75.842 148.135C75.855 148.064 75.872 147.995 75.895 147.927C75.9 147.913 75.906 147.898 75.911 147.883C75.914 147.876 75.917 147.869 75.92 147.862C75.93 147.832 75.903 147.899 75.905 147.896C75.921 147.865 75.934 147.833 75.95 147.802C75.978 147.748 76.01 147.696 76.044 147.646C76.052 147.635 76.06 147.625 76.068 147.614C76.072 147.609 76.076 147.603 76.08 147.598C76.097 147.573 76.049 147.637 76.054 147.631C76.072 147.611 76.088 147.589 76.106 147.569C76.139 147.532 76.174 147.496 76.21 147.462C76.241 147.433 76.274 147.405 76.307 147.378C76.357 147.337 76.241 147.426 76.297 147.385C76.31 147.376 76.323 147.367 76.336 147.358C76.364 147.338 76.393 147.32 76.423 147.304C76.49 147.264 76.538 147.2 76.557 147.125C76.577 147.051 76.566 146.971 76.528 146.904C76.488 146.839 76.424 146.792 76.349 146.772C76.275 146.753 76.196 146.762 76.129 146.8Z"
            fill="black"/>
      <path class="Vector_30"
            d="M77.435 147.061C77.322 147.125 77.217 147.203 77.123 147.293C76.914 147.485 76.754 147.724 76.655 147.99C76.587 148.176 76.553 148.372 76.554 148.57C76.554 148.648 76.585 148.722 76.639 148.777C76.694 148.831 76.768 148.862 76.846 148.862C76.923 148.862 76.997 148.831 77.052 148.777C77.107 148.722 77.137 148.648 77.137 148.57C77.137 148.533 77.139 148.496 77.141 148.459C77.143 148.438 77.145 148.417 77.147 148.396C77.15 148.363 77.142 148.433 77.143 148.43C77.145 148.419 77.146 148.407 77.148 148.396C77.161 148.326 77.178 148.256 77.201 148.189C77.206 148.174 77.212 148.159 77.217 148.145C77.22 148.137 77.223 148.13 77.226 148.123C77.236 148.094 77.209 148.161 77.211 148.157C77.227 148.127 77.24 148.094 77.256 148.063C77.284 148.01 77.316 147.958 77.351 147.908C77.358 147.897 77.366 147.886 77.374 147.875C77.378 147.87 77.382 147.865 77.386 147.86C77.403 147.835 77.355 147.898 77.36 147.893C77.378 147.873 77.394 147.851 77.412 147.831C77.445 147.793 77.48 147.758 77.516 147.724C77.547 147.694 77.58 147.667 77.613 147.639C77.663 147.599 77.547 147.688 77.603 147.647C77.616 147.638 77.629 147.629 77.642 147.62C77.67 147.6 77.699 147.582 77.729 147.565C77.796 147.526 77.844 147.462 77.863 147.387C77.883 147.312 77.872 147.233 77.834 147.166C77.794 147.1 77.73 147.053 77.655 147.033C77.581 147.014 77.502 147.024 77.435 147.061Z"
            fill="black"/>
      <path class="Vector_31"
            d="M82.339 150.66C82.569 151.242 82.684 151.862 82.677 152.488H65.53L65.511 151.259H65.5015V149.115C65.5015 149.115 67.8047 148.349 70.487 150.188C72.327 150.878 72.863 149.116 74.779 149.345C76.695 149.575 76.055 150.211 77.218 150.2C77.218 150.2 78.607 150.265 79.527 149.422C80.447 148.579 81.626 148.986 82.339 150.66Z"
            fill="white"/>
      <path class="Vector_32"
            d="M82.058 150.738C82.285 151.293 82.396 151.888 82.385 152.488L82.676 152.196H66.2246C66.0071 152.196 65.777 152.174 65.5603 152.196C65.5504 152.197 65.5399 152.196 65.5298 152.196L65.8215 152.488L65.8025 151.259C65.8013 151.182 65.7702 151.109 65.7157 151.054C65.6613 151 65.5878 150.969 65.5108 150.967H65.5013L65.793 151.259V149.116L65.5789 149.397C65.8101 149.326 66.049 149.282 66.2905 149.268C66.9255 149.216 67.5647 149.273 68.181 149.435C68.607 149.545 69.02 149.699 69.414 149.895C69.848 150.11 70.237 150.446 70.71 150.564C71.37 150.729 71.987 150.586 72.581 150.281C73.116 150.007 73.63 149.668 74.248 149.623C74.649 149.602 75.051 149.65 75.437 149.762C75.56 149.794 75.68 149.837 75.795 149.891C75.838 149.912 75.88 149.936 75.922 149.961C75.947 149.976 76.073 150.067 76.023 150.028C76.148 150.14 76.281 150.241 76.421 150.332C76.643 150.441 76.888 150.496 77.136 150.491C77.599 150.503 78.061 150.442 78.504 150.309C78.949 150.177 79.361 149.951 79.712 149.647C79.928 149.433 80.215 149.305 80.518 149.288C81.304 149.289 81.811 150.171 82.087 150.807C82.126 150.874 82.19 150.922 82.265 150.941C82.34 150.961 82.419 150.95 82.486 150.912C82.551 150.871 82.599 150.808 82.618 150.733C82.638 150.659 82.628 150.58 82.591 150.513C82.278 149.791 81.779 149.043 80.997 148.782C80.699 148.684 80.378 148.679 80.077 148.769C79.719 148.876 79.48 149.104 79.192 149.325C78.665 149.7 78.035 149.904 77.388 149.908C77.334 149.909 77.28 149.909 77.226 149.908C77.183 149.908 77.14 149.908 77.097 149.907C77.073 149.906 77.049 149.905 77.024 149.903C77.013 149.902 76.896 149.888 76.942 149.896C76.89 149.887 76.84 149.873 76.788 149.859C76.708 149.838 76.801 149.875 76.734 149.838C76.699 149.818 76.665 149.796 76.631 149.775C76.626 149.772 76.574 149.733 76.613 149.763C76.652 149.792 76.588 149.741 76.581 149.736C76.432 149.601 76.267 149.484 76.089 149.387C75.763 149.235 75.414 149.135 75.057 149.091C74.644 149.018 74.221 149.022 73.81 149.102C73.483 149.181 73.168 149.303 72.872 149.464C72.367 149.725 71.874 150.065 71.283 150.058C71.125 150.055 70.968 150.032 70.816 149.989C70.58 149.9 70.356 149.779 70.151 149.63C69.728 149.383 69.281 149.177 68.817 149.017C68.048 148.749 67.2349 148.633 66.4219 148.675C66.0838 148.686 65.7484 148.739 65.4238 148.834C65.363 148.852 65.3095 148.889 65.271 148.94C65.2325 148.991 65.2111 149.052 65.2098 149.115V151.259C65.2109 151.336 65.242 151.41 65.2964 151.464C65.3509 151.518 65.4244 151.55 65.5014 151.551H65.5109L65.2193 151.259L65.2383 152.488C65.2395 152.565 65.2706 152.638 65.3251 152.693C65.3795 152.747 65.453 152.778 65.53 152.779H80.564C81.256 152.779 81.954 152.805 82.646 152.779C82.656 152.779 82.666 152.779 82.676 152.779C82.753 152.778 82.827 152.747 82.881 152.692C82.935 152.638 82.966 152.565 82.968 152.488C82.982 151.836 82.864 151.187 82.62 150.582C82.489 150.235 81.925 150.385 82.058 150.738Z"
            fill="black"/>
      <path class="Vector_33"
            d="M64.2789 137.343H78.021C78.206 137.343 78.398 137.357 78.582 137.343C78.59 137.342 78.599 137.343 78.607 137.343C78.645 137.341 78.681 137.325 78.707 137.298C78.733 137.271 78.748 137.235 78.748 137.197C78.748 137.159 78.733 137.123 78.707 137.096C78.681 137.068 78.645 137.052 78.607 137.051H64.8645C64.6795 137.051 64.4883 137.037 64.3037 137.051C64.2955 137.052 64.2871 137.051 64.2789 137.051C64.2411 137.052 64.2053 137.068 64.1791 137.096C64.1528 137.123 64.1381 137.159 64.1381 137.197C64.1381 137.235 64.1528 137.271 64.1791 137.298C64.2053 137.325 64.2411 137.341 64.2789 137.343Z"
            fill="black"/>
      <path class="Vector_34"
            d="M66.9811 104.342C67.7754 104.342 68.551 104.375 69.25 103.923C69.609 103.687 69.907 103.371 70.12 102.999C70.334 102.627 70.457 102.21 70.48 101.782C70.573 100.533 70.664 99.2834 70.753 98.0338L70.851 96.6766C70.851 96.5995 70.82 96.5257 70.765 96.4712C70.711 96.4167 70.637 96.3857 70.56 96.3849H65.0798C65.0028 96.386 64.9293 96.4171 64.8748 96.4715C64.8203 96.526 64.7893 96.5996 64.7882 96.6766V101.356C64.7745 101.685 64.779 102.013 64.8019 102.341C64.8629 102.881 65.117 103.381 65.5174 103.749C65.9179 104.117 66.4377 104.327 66.9812 104.342C67.3567 104.35 67.3566 103.766 66.9812 103.759C66.5694 103.746 66.1769 103.581 65.88 103.296C65.583 103.01 65.4027 102.625 65.3742 102.214C65.3595 101.929 65.3715 101.641 65.3715 101.356V96.6766L65.0798 96.9683H70.56L70.268 96.6766L70.039 99.8308L69.911 101.579C69.868 102.174 69.72 102.722 69.279 103.158C68.888 103.541 68.363 103.757 67.8151 103.759C67.5371 103.761 67.2591 103.759 66.9811 103.759C66.6058 103.759 66.6052 104.342 66.9811 104.342Z"
            fill="black"/>
      <path class="Vector_35" d="M64.5287 66.8094L64.667 59.9614L70.476 62.198L70.657 66.6936" fill="#FC7F3A"/>
      <path class="Vector_36"
            d="M64.8205 66.8091L64.8672 64.4979L64.9416 60.8112L64.9588 59.9612L64.5895 60.2424L69.6891 62.2058L70.3981 62.4789L70.1841 62.1977L70.3431 66.1374L70.3651 66.6933C70.3801 67.0674 70.9641 67.0694 70.9491 66.6933L70.7901 62.7537L70.7671 62.1977C70.7651 62.1344 70.7441 62.0733 70.7051 62.0229C70.6671 61.9724 70.6141 61.9353 70.5531 61.9165L65.4541 59.9531L64.7448 59.68C64.7015 59.6686 64.6562 59.6671 64.6122 59.6759C64.5683 59.6846 64.527 59.7032 64.4914 59.7303C64.4558 59.7575 64.4268 59.7924 64.4067 59.8324C64.3867 59.8724 64.376 59.9165 64.3756 59.9613L64.3289 62.2725L64.2545 65.9591L64.2373 66.8091C64.2297 67.1846 64.813 67.1846 64.8206 66.8091H64.8205Z"
            fill="black"/>
      <path class="Vector_37"
            d="M69.51 63.1096C70.023 63.2193 70.542 63.2929 71.065 63.33C71.226 63.3419 71.387 63.3274 71.543 63.287C73.764 62.7114 74.653 60.6295 74.941 58.419H75.153C75.852 58.5175 76.117 58.3465 76.036 57.9075C75.403 57.2158 75.137 56.8301 75.067 56.3305L75.05 56.0069C75.013 54.7117 74.865 53.4221 74.605 52.1526L63.4552 51.7535C63.4552 51.7535 62.0069 54.1398 62.1134 55.2388C62.2967 57.1313 64.1407 58.4866 64.6501 60.9266"
            fill="#FC7F3A"/>
      <path class="Vector_38"
            d="M69.433 63.3905C69.787 63.466 70.144 63.5236 70.503 63.5669C70.872 63.6356 71.2511 63.636 71.6211 63.5679C72.1521 63.4351 72.652 63.197 73.089 62.8677C73.949 62.219 74.4971 61.2752 74.8321 60.2656C75.0231 59.6639 75.1571 59.0455 75.2321 58.4186L74.9411 58.7103C75.3821 58.7103 76.014 58.8599 76.268 58.3721C76.322 58.2619 76.3471 58.1397 76.3411 58.017C76.3351 57.7911 76.2211 57.679 76.0771 57.5173C75.8561 57.2844 75.664 57.0258 75.504 56.7471C75.456 56.657 75.419 56.5619 75.392 56.4636C75.376 56.4072 75.3631 56.3498 75.3551 56.2918C75.3661 56.3721 75.355 56.2583 75.354 56.2358C75.338 55.9337 75.3311 55.6313 75.3131 55.3292C75.2691 54.5956 75.1881 53.8642 75.0781 53.1378C75.0231 52.7822 74.9651 52.4259 74.8871 52.0747C74.8691 52.0136 74.832 51.9597 74.782 51.9212C74.731 51.8826 74.6691 51.8614 74.6061 51.8607L70.837 51.7258L64.8313 51.5108L63.4554 51.4615C63.4044 51.4616 63.3545 51.4749 63.3103 51.5003C63.2662 51.5256 63.2293 51.5621 63.2035 51.606C63.0116 51.9227 62.8357 52.25 62.668 52.5801C62.3419 53.181 62.0858 53.8174 61.9052 54.4768C61.5572 55.9112 62.5118 57.21 63.2211 58.3689C63.7272 59.196 64.1648 60.0489 64.3691 61.0039C64.4476 61.3708 65.01 61.2155 64.9316 60.8488C64.7361 60.011 64.4093 59.2094 63.9635 58.4737C63.5876 57.8261 63.1542 57.21 62.8185 56.5395C62.5587 56.0203 62.3244 55.381 62.4275 54.8189C62.5655 54.1983 62.7881 53.5996 63.089 53.0396C63.2799 52.6526 63.4835 52.2696 63.7072 51.9004L63.4554 52.0449L67.2243 52.1798L73.2301 52.3947L74.6061 52.444L74.324 52.2299C74.45 52.7966 74.5361 53.3751 74.6051 53.9511C74.6771 54.5496 74.7271 55.151 74.7501 55.7535C74.7381 56.0896 74.7791 56.4256 74.8711 56.7492C75.0651 57.2767 75.4581 57.7048 75.8301 58.1134L75.755 57.9847C75.768 58.0631 75.7581 58.1035 75.7371 58.1246C75.7851 58.0762 75.7331 58.119 75.7191 58.1246C75.6861 58.1346 75.6521 58.1427 75.6191 58.1487C75.3921 58.1573 75.1661 58.1501 74.9411 58.1271C74.8641 58.1293 74.7911 58.1608 74.7371 58.215C74.6831 58.2692 74.6511 58.3421 74.6491 58.4187C74.4061 60.2586 73.6471 62.3013 71.7221 62.9306C71.5771 62.9841 71.4261 63.0204 71.2721 63.0389C71.0841 63.0452 70.897 63.0345 70.711 63.0069C70.334 62.9675 69.959 62.9078 69.588 62.8281C69.222 62.7499 69.065 63.3121 69.433 63.3906V63.3905Z"
            fill="black"/>
      <path class="Vector_39"
            d="M69.965 57.0644C69.892 56.827 69.805 56.5944 69.703 56.368C69.551 56.0172 69.356 55.6354 69.052 55.3919C68.957 55.3076 68.844 55.2467 68.722 55.2143C68.6 55.1818 68.472 55.1787 68.348 55.2051C68.274 55.2263 68.211 55.2758 68.173 55.3429C68.135 55.41 68.124 55.4893 68.144 55.5639C68.166 55.6376 68.216 55.6999 68.283 55.7379C68.35 55.7759 68.429 55.7865 68.503 55.7676C68.511 55.7663 68.519 55.7645 68.527 55.7622C68.562 55.748 68.491 55.7686 68.485 55.7673C68.501 55.768 68.517 55.7674 68.533 55.7653C68.54 55.7654 68.549 55.7668 68.556 55.7663C68.595 55.7644 68.515 55.7608 68.513 55.76C68.532 55.7655 68.551 55.7699 68.571 55.7732C68.578 55.7753 68.586 55.7788 68.593 55.7806C68.631 55.7894 68.559 55.7657 68.557 55.7645C68.572 55.7726 68.586 55.7799 68.602 55.7861C68.616 55.7942 68.631 55.8029 68.645 55.812C68.673 55.8302 68.71 55.8771 68.65 55.8126C68.703 55.8701 68.765 55.9179 68.816 55.979C68.824 55.9887 68.832 55.9986 68.84 56.0083C68.859 56.0304 68.841 56.0303 68.823 55.9858C68.834 56.0039 68.846 56.0209 68.86 56.0364C68.886 56.0734 68.911 56.1113 68.935 56.1499C69.031 56.305 69.115 56.4667 69.187 56.6337C69.196 56.6527 69.204 56.6718 69.212 56.6908C69.228 56.7275 69.185 56.6255 69.212 56.6909C69.229 56.7308 69.245 56.7706 69.26 56.8108C69.286 56.876 69.31 56.9417 69.333 57.0078C69.357 57.0779 69.381 57.1482 69.402 57.2194C69.412 57.2565 69.43 57.2912 69.453 57.3216C69.477 57.3519 69.506 57.3774 69.539 57.3964C69.573 57.4154 69.609 57.4277 69.648 57.4324C69.686 57.4372 69.724 57.4344 69.761 57.4242C69.798 57.414 69.833 57.3966 69.863 57.3729C69.894 57.3493 69.919 57.3199 69.938 57.2865C69.957 57.2531 69.969 57.2162 69.973 57.1781C69.978 57.14 69.975 57.1013 69.965 57.0644Z"
            fill="black"/>
      <path class="Vector_40"
            d="M74.253 54.5979C74.026 54.4521 73.773 54.3504 73.509 54.2982C72.922 54.1725 72.309 54.2671 71.787 54.564C71.721 54.6032 71.673 54.6671 71.653 54.7418C71.634 54.8165 71.645 54.8958 71.684 54.9625C71.723 55.0291 71.786 55.0776 71.861 55.0973C71.936 55.117 72.015 55.1063 72.082 55.0676C72.204 54.9984 72.332 54.9424 72.466 54.9007C72.574 54.8675 72.685 54.8442 72.798 54.831C73.001 54.8086 73.206 54.8226 73.404 54.8723C73.489 54.8926 73.572 54.9179 73.653 54.9479C73.673 54.9551 73.692 54.9634 73.711 54.9704C73.763 54.9887 73.673 54.9519 73.704 54.9672C73.732 54.9811 73.762 54.993 73.79 55.0069C73.848 55.0344 73.905 55.066 73.958 55.1016C74.025 55.1406 74.105 55.1515 74.18 55.1319C74.254 55.1123 74.318 55.0637 74.357 54.9969C74.396 54.9301 74.407 54.8506 74.388 54.7757C74.368 54.7009 74.32 54.6369 74.253 54.5979Z"
            fill="black"/>
      <path class="Vector_41"
            d="M73.3461 56.5452C73.5621 56.5452 73.7371 56.3704 73.7371 56.1547C73.7371 55.9391 73.5621 55.7643 73.3461 55.7643C73.1311 55.7643 72.9561 55.9391 72.9561 56.1547C72.9561 56.3704 73.1311 56.5452 73.3461 56.5452Z"
            fill="black"/>
      <path class="Vector_42"
            d="M72.811 56.1484C72.811 56.2589 72.844 56.3668 72.907 56.4577C72.97 56.5486 73.059 56.6183 73.162 56.6574C73.264 56.6947 73.374 56.7003 73.479 56.6737C73.584 56.6471 73.678 56.5893 73.749 56.5081C73.806 56.4432 73.847 56.3655 73.867 56.2815C73.888 56.1976 73.887 56.11 73.867 56.0261C73.846 55.9423 73.805 55.8647 73.748 55.7999C73.691 55.7352 73.619 55.6852 73.538 55.6543C73.458 55.6234 73.371 55.6124 73.285 55.6224C73.199 55.6323 73.117 55.6628 73.045 55.7114C72.974 55.7599 72.915 55.825 72.874 55.9011C72.833 55.9772 72.812 56.062 72.811 56.1484C72.811 56.187 72.826 56.2239 72.854 56.2511C72.881 56.2784 72.918 56.2939 72.956 56.2942C72.995 56.2935 73.032 56.2779 73.059 56.2507C73.086 56.2235 73.102 56.1868 73.102 56.1484C73.101 56.1375 73.102 56.1265 73.104 56.1159C73.096 56.1283 73.099 56.14 73.103 56.1229C73.107 56.1058 73.111 56.0887 73.116 56.072L73.12 56.0621C73.125 56.0471 73.124 56.0491 73.116 56.0682C73.119 56.0616 73.122 56.0554 73.125 56.0496C73.133 56.0304 73.144 56.0127 73.158 55.9975C73.135 56.0124 73.147 56.0093 73.157 55.9993C73.163 55.9933 73.169 55.9868 73.175 55.9808C73.179 55.9761 73.184 55.9714 73.189 55.9669L73.197 55.9602C73.209 55.9502 73.207 55.9515 73.191 55.9641C73.197 55.9537 73.225 55.9419 73.235 55.937C73.241 55.9337 73.247 55.9309 73.253 55.9277C73.278 55.9144 73.225 55.9347 73.261 55.925C73.278 55.9204 73.294 55.915 73.312 55.9117L73.317 55.9107C73.333 55.9081 73.331 55.9084 73.31 55.9116C73.314 55.9082 73.331 55.9102 73.337 55.9101C73.346 55.9098 73.355 55.9099 73.364 55.9103C73.366 55.9104 73.402 55.9115 73.377 55.9105C73.353 55.9096 73.386 55.9124 73.389 55.9131C73.399 55.9152 73.409 55.9178 73.419 55.9208C73.43 55.9224 73.44 55.9258 73.449 55.9309C73.448 55.9297 73.418 55.9153 73.442 55.9285C73.458 55.9365 73.473 55.9443 73.487 55.9537C73.489 55.955 73.516 55.9749 73.497 55.9601C73.478 55.9454 73.504 55.9667 73.506 55.9682C73.522 55.9804 73.536 55.9954 73.548 56.0125C73.539 55.9898 73.537 55.9973 73.543 56.0075C73.548 56.0162 73.554 56.0245 73.559 56.0334C73.563 56.0393 73.566 56.0453 73.569 56.0514L73.574 56.0606C73.58 56.0751 73.579 56.073 73.571 56.0541C73.58 56.0613 73.584 56.0931 73.586 56.1038C73.588 56.1107 73.589 56.1176 73.591 56.1245C73.597 56.1539 73.589 56.0943 73.591 56.1334C73.592 56.1497 73.591 56.166 73.59 56.1823C73.59 56.2184 73.598 56.1511 73.59 56.1861C73.589 56.193 73.588 56.1999 73.586 56.2068C73.583 56.2187 73.58 56.248 73.57 56.2565L73.577 56.2408C73.574 56.247 73.571 56.2532 73.568 56.2593C73.564 56.2684 73.559 56.2773 73.553 56.2861C73.549 56.2931 73.543 56.2999 73.539 56.3073C73.53 56.325 73.562 56.2825 73.54 56.3058C73.528 56.3181 73.517 56.3307 73.504 56.3421C73.502 56.3439 73.476 56.3634 73.496 56.35C73.515 56.3364 73.487 56.3552 73.485 56.3564C73.469 56.3693 73.451 56.3793 73.431 56.3856C73.434 56.3852 73.464 56.3746 73.438 56.3823C73.428 56.3853 73.418 56.3888 73.408 56.3914C73.401 56.3932 73.394 56.3948 73.387 56.3962C73.383 56.3971 73.352 56.3983 73.375 56.3986C73.4 56.3989 73.365 56.3986 73.363 56.3987C73.353 56.3991 73.344 56.3991 73.335 56.3988C73.326 56.3999 73.317 56.3994 73.308 56.3972C73.329 56.4003 73.332 56.4006 73.315 56.3979L73.305 56.3959C73.291 56.3931 73.255 56.3891 73.245 56.378L73.261 56.3848C73.256 56.3827 73.251 56.3805 73.247 56.3781C73.236 56.3723 73.225 56.367 73.215 56.3607C73.209 56.3571 73.204 56.3531 73.198 56.3495C73.185 56.3402 73.187 56.3417 73.203 56.354C73.198 56.3497 73.193 56.3453 73.188 56.3407C73.175 56.3293 73.164 56.3166 73.153 56.3043C73.129 56.2795 73.168 56.3306 73.151 56.3015C73.145 56.2927 73.139 56.2845 73.134 56.2756C73.129 56.2667 73.125 56.2574 73.12 56.2484C73.106 56.2226 73.128 56.2756 73.119 56.2451C73.113 56.2248 73.108 56.2052 73.103 56.1845C73.099 56.1659 73.097 56.1824 73.104 56.1916C73.099 56.1844 73.102 56.1573 73.102 56.1484C73.102 56.1097 73.087 56.0726 73.06 56.0453C73.032 56.0179 72.995 56.0025 72.956 56.0025C72.918 56.0025 72.881 56.0179 72.853 56.0453C72.826 56.0726 72.811 56.1097 72.811 56.1484Z"
            fill="black"/>
      <path class="Vector_43"
            d="M67.6163 58.164C67.9212 58.6374 68.393 58.9785 68.938 59.1195C69.222 59.1855 69.515 59.1964 69.803 59.1516C69.877 59.1309 69.94 59.0815 69.978 59.0142C70.017 58.947 70.027 58.8674 70.006 58.7928C69.984 58.7196 69.934 58.6577 69.867 58.6199C69.8 58.5821 69.722 58.5711 69.647 58.5891C69.707 58.5811 69.597 58.593 69.586 58.5937C69.55 58.5963 69.515 58.5979 69.479 58.5985C69.411 58.5997 69.342 58.5971 69.275 58.5907C69.258 58.5891 69.242 58.5874 69.226 58.5854C69.263 58.5905 69.265 58.5905 69.231 58.5855C69.2 58.5795 69.169 58.5744 69.139 58.5676C69.087 58.5562 69.035 58.5424 68.984 58.5263C68.956 58.5174 68.929 58.5078 68.901 58.4976C68.886 58.492 68.798 58.4522 68.871 58.4866C68.821 58.4633 68.772 58.44 68.724 58.4134C68.678 58.3882 68.633 58.3612 68.59 58.3323C68.569 58.3186 68.548 58.3044 68.528 58.2898C68.521 58.2847 68.458 58.2388 68.499 58.2694C68.54 58.2996 68.481 58.2543 68.474 58.2485C68.457 58.2343 68.439 58.2197 68.423 58.2049C68.391 58.1771 68.36 58.1485 68.33 58.119C68.282 58.0711 68.236 58.021 68.192 57.9687C68.171 57.9439 68.121 57.8629 68.184 57.9608C68.173 57.944 68.16 57.9286 68.148 57.9123C68.139 57.8983 68.129 57.8842 68.12 57.8697C68.101 57.8366 68.075 57.8077 68.044 57.7845C68.014 57.7614 67.979 57.7444 67.942 57.7347C67.9049 57.725 67.8663 57.7227 67.8284 57.7279C67.7904 57.7331 67.7539 57.7457 67.7208 57.765C67.6877 57.7844 67.6588 57.81 67.6356 57.8406C67.6125 57.8711 67.5956 57.9058 67.5858 57.9429C67.5761 57.98 67.5738 58.0186 67.579 58.0565C67.5842 58.0945 67.5968 58.131 67.6162 58.1641L67.6163 58.164Z"
            fill="black"/>
      <path class="Vector_44"
            d="M64.4724 66.9117L70.645 66.1045L79.1821 74.7387C79.1821 74.7387 75.9291 83.8289 75.4661 88.8113L59.8124 88.5741C58.3359 82.0687 56.6355 76.9971 57.4336 72.3715"
            fill="white"/>
      <path class="Vector_45"
            d="M64.4725 67.2035L69.891 66.4948L70.645 66.3962L70.439 66.3108L73.334 69.239L77.918 73.8756L78.976 74.945L78.901 74.6612C78.498 75.7864 78.126 76.9229 77.764 78.0615C77.034 80.358 76.355 82.6764 75.823 85.0275C75.526 86.2736 75.309 87.5375 75.175 88.8115L75.466 88.5198L73.907 88.4962L70.162 88.4393L65.6525 88.371L61.7382 88.3116L60.4528 88.2922C60.2483 88.2781 60.0432 88.275 59.8384 88.2829C59.8297 88.2832 59.821 88.2831 59.8124 88.2825L60.0936 88.4965C59.5635 86.1642 58.9558 83.8503 58.4334 81.5163C57.993 79.5493 57.6076 77.5543 57.5336 75.5351C57.4881 74.5029 57.5489 73.4688 57.7149 72.449C57.7775 72.0818 57.2154 71.9241 57.1524 72.2939C56.826 74.2081 56.917 76.1472 57.1884 78.0621C57.497 80.2385 58.0228 82.3791 58.5426 84.5126C58.8784 85.8908 59.2167 87.2684 59.5312 88.6516C59.5488 88.7128 59.5856 88.7667 59.6363 88.8053C59.687 88.8438 59.7487 88.865 59.8124 88.8657L61.3721 88.8893L65.1165 88.9461L69.626 89.0144L73.54 89.0737C74.171 89.0833 74.809 89.1218 75.44 89.1025C75.449 89.1023 75.458 89.1028 75.466 89.1029C75.543 89.1011 75.616 89.0698 75.671 89.0155C75.725 88.9612 75.756 88.888 75.758 88.8112C75.978 86.4794 76.588 84.175 77.216 81.9251C77.773 79.9291 78.393 77.9504 79.058 75.9879C79.191 75.5965 79.324 75.2053 79.463 74.8162C79.477 74.7665 79.478 74.714 79.465 74.6641C79.451 74.6142 79.425 74.5687 79.388 74.5324L77.573 72.6962L73.947 69.0289L71.138 66.1886C70.977 66.0253 70.825 65.7982 70.574 65.8222C70.013 65.8757 69.454 65.9686 68.896 66.0416L64.5625 66.6084L64.4726 66.6201C64.396 66.6225 64.3232 66.654 64.269 66.7082C64.2148 66.7624 64.1833 66.8352 64.1809 66.9118C64.1813 66.989 64.2122 67.063 64.2668 67.1176C64.3214 67.1722 64.3953 67.203 64.4726 67.2035H64.4725Z"
            fill="black"/>
      <path class="Vector_46"
            d="M72.606 66.7426H62.7883C62.8834 66.106 63.2039 65.5246 63.6916 65.1044C64.1792 64.6842 64.8015 64.4531 65.4452 64.4531H67.4278C67.8481 64.4531 68.263 64.5517 68.638 64.741L72.606 66.7426Z"
            fill="white"/>
      <path class="Vector_47"
            d="M72.606 66.4505H62.7884L63.0696 66.8197C63.1476 66.2778 63.4068 65.7782 63.8051 65.4024C64.2034 65.0267 64.7172 64.7969 65.2628 64.7506C65.9088 64.7071 66.5673 64.7443 67.2145 64.7443C67.6535 64.7257 68.091 64.8108 68.491 64.9926C68.622 65.0572 68.752 65.1242 68.882 65.19L70.901 66.2086L72.459 66.994C72.793 67.1627 73.089 66.6597 72.753 66.4904L69.241 64.7187C69.09 64.6425 68.939 64.5648 68.787 64.4899C68.327 64.2664 67.8216 64.1538 67.3103 64.161C66.655 64.161 65.9955 64.1378 65.3407 64.163C64.6531 64.1919 63.9964 64.4562 63.4805 64.9116C62.9647 65.3671 62.621 65.986 62.5071 66.6647C62.4962 66.7079 62.4952 66.7531 62.5041 66.7968C62.5131 66.8405 62.5317 66.8816 62.5588 66.9171C62.5858 66.9525 62.6205 66.9815 62.6602 67.0017C62.7 67.0219 62.7438 67.0329 62.7884 67.0339H72.606C72.981 67.0339 72.982 66.4505 72.606 66.4505Z"
            fill="black"/>
      <path class="Vector_48"
            d="M73.202 59.5205C73.405 59.86 73.731 60.1089 74.112 60.2165C74.305 60.2627 74.505 60.2658 74.699 60.2254C74.773 60.2045 74.837 60.1551 74.875 60.0879C74.913 60.0207 74.923 59.9412 74.903 59.8667C74.88 59.7932 74.831 59.731 74.764 59.6931C74.697 59.6552 74.618 59.6444 74.544 59.663C74.517 59.6682 74.448 59.6656 74.539 59.6656C74.518 59.6656 74.497 59.67 74.475 59.6711C74.435 59.6733 74.394 59.6729 74.353 59.67C74.326 59.668 74.262 59.6506 74.358 59.6723C74.339 59.6681 74.32 59.666 74.301 59.662C74.265 59.6543 74.229 59.6446 74.194 59.6328C74.177 59.6271 74.16 59.6206 74.143 59.6143C74.097 59.597 74.218 59.6484 74.152 59.6174C74.121 59.6028 74.091 59.5868 74.061 59.5694C74.033 59.5527 74.005 59.5348 73.978 59.5158C73.965 59.5066 73.952 59.4968 73.939 59.4875C74.022 59.5469 73.971 59.5123 73.953 59.4969C73.874 59.43 73.802 59.3559 73.737 59.2756C73.711 59.2443 73.791 59.3481 73.761 59.3068C73.756 59.3002 73.751 59.2937 73.746 59.287C73.739 59.2763 73.731 59.2655 73.724 59.2546C73.717 59.2452 73.711 59.2358 73.705 59.2261C73.666 59.1596 73.602 59.1114 73.528 59.092C73.453 59.0725 73.373 59.0835 73.307 59.1224C73.24 59.1614 73.192 59.2251 73.172 59.2998C73.152 59.3744 73.163 59.4538 73.202 59.5205Z"
            fill="black"/>
      <g class="h-4-arm-2">
        <path class="Vector_49"
              d="M111.878 50.4557C111.878 50.4557 111.439 49.6773 108.83 49.8354C107.328 50.3098 109.383 54.0256 109.383 54.0256L111.201 53.3141"
              fill="#FC7272"/>
        <path class="Vector_50"
              d="M112.13 50.3081C111.986 50.0581 111.675 49.9118 111.422 49.8094C111.102 49.6894 110.769 49.6111 110.429 49.5764C110.186 49.5463 109.941 49.5289 109.695 49.5244C109.394 49.5053 109.091 49.5134 108.791 49.5486C108.139 49.6556 107.955 50.4066 107.996 50.9618C108.073 51.644 108.257 52.3096 108.544 52.9334C108.717 53.3567 108.913 53.7703 109.131 54.1724C109.164 54.2277 109.214 54.2708 109.274 54.295C109.333 54.3192 109.399 54.3232 109.461 54.3064L111.279 53.5949C111.353 53.5724 111.414 53.5227 111.452 53.456C111.49 53.3893 111.501 53.3106 111.483 53.2361C111.462 53.1618 111.412 53.0988 111.345 53.0607C111.278 53.0226 111.199 53.0125 111.124 53.0325L109.306 53.744L109.635 53.8781C109.173 53.0831 108.835 52.2223 108.633 51.3255C108.579 51.0836 108.561 50.835 108.581 50.588C108.582 50.5854 108.601 50.4853 108.613 50.4443C108.62 50.4199 108.628 50.3959 108.636 50.372C108.638 50.3674 108.654 50.3294 108.64 50.361C108.624 50.3965 108.656 50.3301 108.656 50.3298C108.669 50.3095 108.681 50.2887 108.693 50.2683C108.721 50.2222 108.668 50.2919 108.705 50.2522C108.721 50.2348 108.737 50.2181 108.754 50.2014C108.765 50.1904 108.777 50.18 108.79 50.1703C108.769 50.1869 108.765 50.1881 108.79 50.1735C108.811 50.1607 108.833 50.1481 108.855 50.1363C108.897 50.1139 108.832 50.1332 108.882 50.1249C109.021 50.109 109.162 50.1031 109.302 50.1075C109.551 50.1026 109.8 50.1064 110.048 50.123C110.39 50.141 110.729 50.1995 111.058 50.2972C111.124 50.3181 111.19 50.3414 111.255 50.3671C111.302 50.3859 111.227 50.3525 111.286 50.3809C111.312 50.3936 111.339 50.4059 111.365 50.4194C111.404 50.4399 111.443 50.4617 111.481 50.4854C111.51 50.504 111.603 50.5775 111.529 50.5144C111.566 50.5462 111.6 50.5881 111.639 50.6174C111.679 50.6482 111.593 50.545 111.626 50.6025C111.814 50.9279 112.318 50.6344 112.13 50.3081Z"
              fill="black"/>
        <path class="Vector_51"
              d="M99.67 61.7435L100.362 60.4932C100.83 59.6453 101.202 58.7476 101.471 57.8169C101.679 57.0982 101.838 56.7596 102.03 55.6062C102.584 52.2857 106.062 51.2579 106.695 51.416C107.327 51.5741 108.017 52.8417 107.881 53.3134C107.289 55.3576 106.812 57.5808 106.812 57.5808L106.675 62.6736L105.106 66.2645"
              fill="#FC7F3A"/>
        <path class="Vector_52"
              d="M99.922 61.891C100.261 61.2782 100.618 60.6715 100.925 60.0414C101.256 59.3608 101.529 58.6536 101.743 57.9272C101.876 57.4728 102.03 57.0244 102.139 56.5631C102.279 55.967 102.338 55.3551 102.551 54.7778C102.721 54.3232 102.965 53.9 103.274 53.5255C103.814 52.881 104.497 52.3704 105.268 52.0339C105.395 51.9771 105.554 51.9158 105.715 51.8626C105.856 51.8156 105.999 51.7757 106.144 51.7433C106.203 51.7305 106.262 51.7205 106.32 51.7095C106.403 51.6939 106.295 51.7107 106.343 51.7057C106.373 51.7025 106.404 51.6989 106.434 51.6967C106.477 51.6938 106.519 51.6931 106.562 51.6929C106.58 51.6929 106.598 51.6962 106.616 51.6958C106.635 51.6953 106.546 51.6733 106.607 51.6954C106.999 51.8352 107.275 52.2627 107.455 52.6391C107.545 52.8104 107.597 52.9994 107.606 53.1928C107.605 53.2572 107.616 53.1904 107.59 53.2694C107.561 53.3561 107.539 53.4462 107.515 53.5341C107.462 53.7216 107.41 53.9094 107.359 54.0975C107.064 55.1907 106.796 56.2908 106.553 57.3979C106.502 57.7453 106.483 58.0967 106.497 58.4477L106.386 62.5757L106.384 62.674L106.424 62.5269L105.049 65.6723L104.854 66.1177C104.817 66.1851 104.808 66.2638 104.827 66.338C104.847 66.4121 104.894 66.4761 104.959 66.5168C105.026 66.5553 105.105 66.5659 105.18 66.5463C105.254 66.5267 105.318 66.4785 105.358 66.4121L106.231 64.4138L106.772 63.1776C106.867 63.0105 106.933 62.8285 106.968 62.6392C107.008 61.9025 107.007 61.1613 107.027 60.4238L107.097 57.8042C107.109 57.7335 107.111 57.6615 107.103 57.5902C107.096 57.5686 107.078 57.7078 107.1 57.6269C107.117 57.5611 107.129 57.4929 107.144 57.4264C107.285 56.7917 107.434 56.1588 107.592 55.5278C107.706 55.0685 107.825 54.6104 107.948 54.1534C108.044 53.8037 108.223 53.4178 108.18 53.0492C108.081 52.4066 107.752 51.8216 107.255 51.402C107.11 51.2784 106.937 51.1906 106.751 51.1457C106.566 51.1009 106.372 51.1002 106.186 51.1438C105.793 51.2135 105.411 51.3324 105.048 51.4976C104.004 51.9394 103.113 52.6781 102.486 53.6219C102.123 54.1864 101.875 54.8174 101.758 55.4782C101.634 56.1568 101.47 56.8272 101.265 57.4858C101.015 58.3579 100.687 59.2057 100.285 60.0188C100.075 60.4256 99.846 60.8232 99.624 61.2237L99.418 61.5966C99.236 61.9253 99.74 62.2199 99.922 61.891Z"
              fill="black"/>
        <path class="Vector_53"
              d="M104.876 53.6766L111.475 50.2368C111.475 50.2368 112.458 50.5176 112.247 51.5706C112.949 52.1322 112.879 52.6938 112.528 53.1852C113.16 53.6766 113.301 54.4488 112.739 54.87C113.301 55.3614 113.371 56.1336 112.669 56.7654C112.091 57.2851 111.418 57.8244 110.637 58.1144C109.898 58.3869 109.227 58.8181 108.673 59.3777C108.119 59.9373 107.694 60.6117 107.428 61.3533L106.912 62.8027L105.506 65.9486"
              fill="#FC7F3A"/>
        <path class="Vector_54"
              d="M111.203 50.3538C111.25 50.3718 111.118 50.3123 111.19 50.3484C111.231 50.3693 111.273 50.3883 111.314 50.4104C111.42 50.4664 111.52 50.5335 111.612 50.6106C111.744 50.7123 111.848 50.848 111.91 51.0032C111.972 51.1585 111.992 51.3277 111.966 51.4932C111.953 51.5429 111.953 51.5953 111.966 51.6451C111.979 51.6949 112.005 51.7404 112.041 51.7769C112.243 51.9433 112.464 52.1505 112.493 52.4264C112.497 52.6497 112.42 52.8669 112.277 53.0381C112.244 53.0938 112.231 53.1587 112.239 53.2226C112.247 53.2866 112.277 53.346 112.322 53.3916C112.726 53.7164 113.024 54.2762 112.533 54.6639C112.478 54.7188 112.448 54.7929 112.448 54.8702C112.448 54.9474 112.478 55.0215 112.533 55.0764C112.634 55.157 112.718 55.2578 112.779 55.3723C112.84 55.4869 112.876 55.6127 112.886 55.742C112.88 55.8898 112.844 56.0349 112.78 56.168C112.715 56.3011 112.623 56.4193 112.51 56.515C111.988 57.0396 111.376 57.4667 110.703 57.7763C110.386 57.9124 110.066 58.0288 109.762 58.1955C109.478 58.3535 109.207 58.5351 108.953 58.7384C108.435 59.15 107.994 59.6494 107.65 60.2137C107.209 60.9356 106.97 61.773 106.688 62.5656C106.668 62.6123 106.651 62.66 106.637 62.7085C106.623 62.7671 106.681 62.6149 106.653 62.6724C106.617 62.7476 106.585 62.8251 106.551 62.9013L106.114 63.8773L105.254 65.8015C105.218 65.8688 105.208 65.9476 105.227 66.0218C105.247 66.096 105.294 66.1599 105.359 66.2006C105.426 66.239 105.505 66.2496 105.58 66.23C105.655 66.2105 105.719 66.1623 105.758 66.0959L106.514 64.4051C106.745 63.8879 107.009 63.3746 107.207 62.8434C107.48 62.1108 107.681 61.3321 108.07 60.6494C108.4 60.0704 108.84 59.5613 109.365 59.1509C109.619 58.9541 109.892 58.7812 110.178 58.6346C110.498 58.4688 110.842 58.3604 111.166 58.2018C111.556 58.0028 111.925 57.7636 112.265 57.488C112.612 57.243 112.922 56.95 113.187 56.618C113.399 56.3213 113.492 55.9558 113.447 55.5939C113.402 55.232 113.223 54.9001 112.945 54.6639V55.0763C113.68 54.4968 113.373 53.4918 112.735 52.979L112.78 53.3325C112.988 53.0606 113.091 52.7236 113.072 52.3822C113.041 52.1803 112.97 51.9864 112.864 51.8118C112.758 51.6372 112.619 51.4851 112.454 51.3644L112.529 51.6482C112.58 51.3947 112.565 51.1324 112.486 50.8864C112.406 50.6404 112.264 50.419 112.074 50.2436C111.867 50.0478 111.624 49.8941 111.358 49.7913C111.283 49.7713 111.204 49.7815 111.137 49.8196C111.07 49.8577 111.02 49.9207 110.999 49.9949C110.98 50.0695 110.991 50.1484 111.029 50.2152C111.067 50.2821 111.129 50.3317 111.203 50.3537V50.3538Z"
              fill="black"/>
        <path class="Vector_55"
              d="M105.024 53.9283L109.877 51.3986L110.572 51.0362C110.905 50.8626 110.61 50.359 110.277 50.5325L105.425 53.0622L104.729 53.4246C104.396 53.5982 104.691 54.1018 105.024 53.9283Z"
              fill="black"/>
        <path class="Vector_56" d="M99.285 62.0153L100.775 59.7161L106.884 63.2365L105.798 65.4077" fill="white"/>
        <path class="Vector_57"
              d="M99.537 62.1623L101.027 59.8631L100.628 59.9678L102.686 61.1538L105.984 63.0545L106.737 63.4882L106.632 63.0891L105.546 65.2603C105.379 65.5951 105.882 65.8909 106.05 65.5547L107.136 63.3836C107.173 63.3164 107.183 63.2374 107.164 63.163C107.144 63.0886 107.097 63.0246 107.031 62.9845L104.973 61.7984L101.675 59.8978L100.922 59.4641C100.855 59.4266 100.776 59.4166 100.702 59.4361C100.627 59.4556 100.563 59.5031 100.523 59.5687L99.033 61.8679C98.828 62.1838 99.333 62.4765 99.537 62.1623Z"
              fill="black"/>
        <path class="Vector_58"
              d="M69.525 66.7841L75.189 66.7689C76.265 66.766 77.327 67.0204 78.285 67.5107L87.861 72.41L92.432 74.9063L94.821 68.3992C95.835 65.6371 97.542 63.1823 99.779 61.2708L100.099 60.9974L106.273 64.7291L107.13 68.5176C107.408 69.7444 107.204 71.031 106.56 72.112L100.333 82.5791C99.218 84.2842 97.52 85.5249 95.557 86.0692C93.594 86.6135 91.499 86.4242 89.666 85.5366L84.653 83.1103L72.756 77.0776"
              fill="white"/>
        <path class="Vector_59"
              d="M69.525 67.0759L74.531 67.0625C74.748 67.0619 74.966 67.0606 75.184 67.0607C76.097 67.0572 77.001 67.2469 77.836 67.6172C78.259 67.8081 78.668 68.0339 79.081 68.2453L84.439 70.9866C85.538 71.5491 86.65 72.093 87.738 72.6757C89.213 73.4648 90.675 74.279 92.142 75.0805L92.285 75.1583C92.324 75.18 92.367 75.1926 92.411 75.1953C92.456 75.198 92.5 75.1908 92.541 75.174C92.582 75.1573 92.619 75.1315 92.649 75.0986C92.679 75.0658 92.701 75.0266 92.713 74.984L94.302 70.6563L95.055 68.604C95.507 67.3637 96.098 66.1788 96.817 65.0723C97.789 63.6227 98.964 62.3199 100.305 61.2038L99.952 61.2494L102.042 62.5128L105.358 64.5168L106.126 64.9811L105.992 64.8068L106.458 66.8658L106.754 68.1775C106.837 68.4993 106.899 68.8263 106.939 69.1562C107.022 70.1995 106.767 71.2418 106.211 72.1287L105.386 73.5164L102.47 78.4161L100.206 82.2211C99.257 83.7736 97.811 84.9599 96.102 85.5877C94.394 86.2155 92.524 86.248 90.795 85.6799C90.138 85.441 89.498 85.158 88.88 84.833C87.52 84.1749 86.153 83.5293 84.8 82.8583C83.882 82.403 82.971 81.9311 82.057 81.4676L76.782 78.7925L73.094 76.9226L72.903 76.8258C72.569 76.6564 72.274 77.1595 72.609 77.3295L76.19 79.1453L82.344 82.2657C83.269 82.7351 84.192 83.2101 85.126 83.6622L88.138 85.1205C88.925 85.5012 89.71 85.9257 90.538 86.2085C92.159 86.7473 93.901 86.7998 95.551 86.3595C97.2 85.9192 98.685 85.0055 99.821 83.731C100.256 83.2152 100.642 82.6599 100.974 82.0723L102.355 79.7508L105.832 73.907L106.765 72.3396C107.48 71.1533 107.707 69.7361 107.399 68.3856C107.182 67.4186 106.963 66.4519 106.743 65.4855L106.606 64.8772C106.596 64.75 106.553 64.6276 106.48 64.523C106.326 64.4007 106.158 64.2963 105.981 64.2117L100.686 61.0115L100.246 60.7457C100.19 60.7145 100.126 60.7021 100.062 60.7104C99.998 60.7186 99.939 60.7469 99.893 60.7913C98.69 61.7974 97.616 62.9483 96.696 64.2177C95.794 65.4918 95.066 66.8803 94.531 68.3466C93.957 69.9061 93.384 71.4658 92.813 73.026L92.151 74.829L92.579 74.6547L88.25 72.2904C87.298 71.7707 86.321 71.2952 85.356 70.8013L79.818 67.9677C79.365 67.7359 78.912 67.5041 78.458 67.2723C77.38 66.7317 76.187 66.4592 74.981 66.478L69.675 66.4922L69.525 66.4926C69.15 66.4936 69.149 67.0769 69.525 67.0759Z"
              fill="black"/>
        <path class="Vector_60"
              d="M88.793 73.2514L90.828 74.4092L94.077 76.2572L94.829 76.6849C95.156 76.8707 95.45 76.367 95.124 76.1812L93.088 75.0234L89.839 73.1754L89.087 72.7477C88.76 72.5619 88.466 73.0656 88.793 73.2514Z"
              fill="black"/>
      </g>
      <g class="h-4-arm-1">
        <path class="Vector_61"
              d="M47.1634 52.1776L47.8749 56.3678H51.3664L53.05 50.1172V46.5C50.3506 47.5296 47.0903 49.3249 47.1634 52.1776Z"
              fill="#FC7F3A"/>
        <path class="Vector_62"
              d="M47.7631 53.9762L48.156 56.2902C48.2185 56.658 47.6562 56.8145 47.5935 56.4452L47.1159 53.6324L46.9061 52.3971C46.8386 51.9049 46.8844 51.4038 47.0401 50.9321C47.4845 49.4601 48.6841 48.3484 49.9305 47.5242C50.9072 46.8785 51.9618 46.3987 53.0463 45.9868V46.5929C51.9314 47.017 50.8716 47.5759 49.8906 48.2578C48.7659 49.0623 47.6864 50.1876 47.484 51.613C47.4618 51.7799 47.4517 51.9482 47.4538 52.1166C47.4539 52.1204 47.454 52.125 47.454 52.1307C47.4539 52.126 47.4539 52.1213 47.4538 52.1166C47.4529 52.0789 47.4502 52.1279 47.4528 52.1492C47.4689 52.2754 47.4956 52.4011 47.5169 52.5265L47.7631 53.9762Z"
              fill="black"/>
        <path class="Vector_63"
              d="M64.4726 66.9121L60.3132 67.0364C58.5978 67.0883 56.091 67.4746 54.8084 69.2384L53.3686 70.8475L53.4877 56.8424L47.4792 56.8362L45.5262 60.7457C44.6343 62.5312 44.288 64.5399 44.5306 66.521L46.957 82.0133C47.3282 83.7791 48.2954 85.3634 49.6964 86.5005C51.0973 87.6376 52.8468 88.2582 54.6511 88.2583H62.057"
              fill="white"/>
        <path class="Vector_64"
              d="M64.6157 66.7648L60.5965 66.8849C59.6545 66.8979 58.7174 67.0228 57.8049 67.257C57.1797 67.4208 56.5815 67.6741 56.0288 68.0091C55.7545 68.1793 55.4974 68.3755 55.2608 68.595C55.1476 68.7005 55.0404 68.8124 54.9397 68.93C54.8784 69.0017 54.8193 69.0758 54.7626 69.1512C54.7594 69.1554 54.7056 69.2231 54.7446 69.1771C54.742 69.1802 54.7391 69.183 54.7365 69.1861C54.2755 69.732 53.7819 70.253 53.3054 70.7855L53.8033 70.9918L53.8152 69.5988L53.8437 66.2536L53.8781 62.2068L53.9078 58.7088C53.9126 58.1452 53.9427 57.5753 53.9222 57.012C53.9219 57.0036 53.9224 56.9951 53.9224 56.9867C53.9214 56.9097 53.8903 56.8361 53.8358 56.7816C53.7814 56.7272 53.7078 56.6961 53.6308 56.695L48.355 56.6896L47.6221 56.6888C47.5711 56.6886 47.521 56.7018 47.4767 56.7271C47.4325 56.7525 47.3958 56.7891 47.3703 56.8333L45.6544 60.2683C45.2483 61.0393 44.9197 61.8486 44.6736 62.6845C44.3047 64.0066 44.2094 65.39 44.3935 66.7502C44.4958 67.4461 44.6112 68.1403 44.7201 68.8351L45.4222 73.3182L46.1948 78.2512L46.7318 81.6795C46.7607 81.8641 46.7846 82.0504 46.8187 82.2342C47.0456 83.3625 47.5207 84.4262 48.2097 85.3482C48.9128 86.302 49.8135 87.0929 50.8502 87.6667C51.887 88.2405 53.0354 88.5838 54.217 88.6732C54.6505 88.7048 55.0876 88.6942 55.5221 88.6942L60 88.6445C60.3569 88.5 60.216 88.24 59.84 88.24L54.9408 88.1108C53.0111 88.1344 51.1427 87.4331 49.705 86.1456C48.4642 85.0298 47.6349 83.5289 47.3507 81.8845L46.9089 79.0642L46.171 74.3523L45.4343 69.6484L44.9885 66.8019C44.7072 64.8235 45.0356 62.8063 45.93 61.0194C46.5171 59.8404 47.1057 58.6622 47.6957 57.4847L47.8741 57.1277L47.6222 57.2721L52.898 57.2776L53.6309 57.2783L53.3392 56.9867L53.3273 58.3797L53.2989 61.7249L53.2645 65.7717L53.2348 69.2697C53.23 69.8332 53.1998 70.4031 53.2204 70.9665C53.2207 70.9749 53.2202 70.9834 53.2201 70.9918C53.2215 71.0488 53.2395 71.1042 53.2717 71.1513C53.304 71.1984 53.3493 71.235 53.402 71.2569C53.4547 71.2787 53.5126 71.2848 53.5688 71.2743C53.6249 71.2639 53.6767 71.2373 53.718 71.198L55.06 69.6981C55.329 69.3603 55.6288 69.0482 55.9556 68.766C56.4434 68.4005 56.9895 68.1202 57.5708 67.9368C59.1787 67.4051 60.9006 67.4591 62.5732 67.4091L64.6157 67.348C64.9902 67.3368 64.9918 66.7535 64.6157 66.7648Z"
              fill="black"/>
        <path class="Vector_65"
              d="M50.6022 55.3404H53.4879V53.046L55.3503 51.7436C55.5041 51.6361 55.6255 51.4887 55.7017 51.3172C55.7779 51.1458 55.8058 50.9568 55.7826 50.7707C55.7634 50.6171 55.7098 50.4699 55.626 50.3398C55.5421 50.2098 55.43 50.1002 55.2981 50.0194C55.1661 49.9386 55.0177 49.8884 54.8637 49.8728C54.7098 49.8571 54.5542 49.8763 54.4087 49.929L52.7078 50.5442C52.6054 50.5812 52.4964 50.5968 52.3877 50.5899C52.279 50.5829 52.1729 50.5537 52.076 50.504C51.9791 50.4542 51.8935 50.3851 51.8245 50.3008C51.7555 50.2165 51.7047 50.1189 51.675 50.0141V50.014"
              fill="#FC7F3A"/>
        <path class="Vector_66"
              d="M50.602 55.6319H53.4877C53.5647 55.6308 53.6383 55.5998 53.6927 55.5453C53.7472 55.4908 53.7783 55.4173 53.7793 55.3403V53.0459L53.6349 53.2977L54.7024 52.5513C55.0824 52.2855 55.5903 52.0221 55.8583 51.6328C56.419 50.8185 55.8548 49.6938 54.898 49.5845C54.4039 49.528 53.8645 49.8164 53.4118 49.9802C53.1637 50.0699 52.9162 50.1616 52.6675 50.2494C52.3784 50.3514 52.0479 50.2611 51.9562 49.9364C51.8543 49.5757 51.2913 49.729 51.3937 50.0914C51.4351 50.2322 51.5043 50.3632 51.5971 50.4767C51.69 50.5902 51.8047 50.6839 51.9345 50.7524C52.0642 50.8208 52.2063 50.8625 52.3525 50.875C52.4986 50.8876 52.6458 50.8707 52.7853 50.8253C53.0307 50.7442 53.2724 50.6492 53.5154 50.5612C53.8247 50.4494 54.1335 50.3357 54.4434 50.2256C54.8288 50.0886 55.2651 50.2009 55.4398 50.6027C55.4932 50.7067 55.5135 50.8246 55.498 50.9405C55.4901 51.081 55.4424 51.2164 55.3604 51.3309C55.2924 51.4182 55.2098 51.4932 55.1162 51.5524L54.2718 52.1429L53.4345 52.7284C53.317 52.8105 53.207 52.8847 53.1961 53.0463C53.1917 53.1129 53.1961 53.1813 53.1961 53.2479V55.3403L53.4878 55.0487H50.602C50.2267 55.0487 50.2261 55.632 50.602 55.632V55.6319Z"
              fill="black"/>
        <path class="Vector_67" d="M53.4876 55.34H47.4791V56.8421H53.4876V55.34Z" fill="white"/>
        <path class="Vector_68"
              d="M53.4874 56.5507H47.4789L47.7706 56.8423V55.3402L47.4789 55.6318H53.4874L53.1958 55.3402V56.8423C53.1958 57.2177 53.7791 57.2183 53.7791 56.8423V55.3402C53.778 55.2632 53.7469 55.1896 53.6924 55.1351C53.638 55.0807 53.5644 55.0496 53.4874 55.0485H47.4789C47.4019 55.0496 47.3283 55.0807 47.2739 55.1351C47.2194 55.1896 47.1883 55.2632 47.1873 55.3402V56.8423C47.1883 56.9193 47.2194 56.9929 47.2739 57.0474C47.3283 57.1018 47.4019 57.1329 47.4789 57.134H53.4874C53.8628 57.134 53.8634 56.5507 53.4874 56.5507Z"
              fill="black"/>
        <path class="Vector_69"
              d="M53.2447 70.7702L52.3893 73.3436L51.0272 77.4416L50.7161 78.3774C50.5974 78.7345 51.1606 78.8876 51.2786 78.5325L52.134 75.9591L53.4961 71.8611L53.8072 70.9253C53.9258 70.5683 53.3627 70.4152 53.2447 70.7702Z"
              fill="black"/>
      </g>
      <path class="Vector_70"
            d="M55.5578 71.1864H66.0722C69.128 66.3956 68.313 58.5125 68.313 58.5125C67.7718 58.1147 66.9658 56.5576 66.939 55.6514C66.8987 54.2823 67.6241 53.9385 68.58 53.9103C69.537 53.8821 70.647 55.6574 70.686 56.9917L70.755 54.0985C70.76 53.8874 70.809 53.6796 70.899 53.4886C70.989 53.2976 71.118 53.1275 71.278 52.9892C71.437 52.851 71.624 52.7477 71.826 52.6859C72.028 52.6241 72.24 52.6052 72.45 52.6304L74.525 52.6661C74.728 52.6695 74.928 52.6207 75.106 52.5243C75.285 52.4278 75.436 52.287 75.544 52.1155C75.652 51.9439 75.715 51.7473 75.725 51.5446C75.736 51.342 75.693 51.1401 75.603 50.9583L75.432 50.6146C74.776 49.2944 73.449 47.7317 71.975 47.6797L66.3781 47.4821C64.7544 47.4248 61.7246 49.3809 61.0638 52.1893L60.2286 56.5352C59.3633 56.9678 58.6357 57.6328 58.1271 58.4557C57.6185 59.2786 57.3491 60.2268 57.3491 61.1942V61.3625L56.2788 61.7906C55.1513 62.2416 54.2168 63.0723 53.6369 64.1393C53.0569 65.2062 52.8679 66.4422 53.1026 67.6336C52.9525 68.0309 52.9009 68.4587 52.9525 68.8802C53.004 69.3018 53.1571 69.7045 53.3985 70.0539C53.64 70.4033 53.9626 70.6889 54.3387 70.8861C54.7148 71.0834 55.1331 71.1864 55.5578 71.1864Z"
            fill="#FFC41F"/>
      <path class="Vector_71"
            d="M55.5576 71.4775H65.8101C65.8827 71.4775 65.9558 71.4796 66.0284 71.4775C66.2356 71.4715 66.3272 71.3312 66.4294 71.1637C66.8504 70.462 67.2015 69.7206 67.4777 68.9502C68.016 67.419 68.367 65.8287 68.526 64.2135C68.669 62.9007 68.726 61.5798 68.696 60.2595C68.684 59.6794 68.67 59.0925 68.605 58.5152C68.585 58.3428 68.494 58.2942 68.401 58.2051C68.296 58.1023 68.202 57.9895 68.119 57.8682C67.8905 57.5387 67.6973 57.1862 67.5423 56.8165C67.2804 56.1981 67.0419 55.3682 67.3918 54.7333C67.4521 54.6261 67.5331 54.532 67.6301 54.4564C67.7271 54.3808 67.8381 54.3253 67.9567 54.2929C68.219 54.1991 68.502 54.1771 68.776 54.2291C69.074 54.3186 69.32 54.5694 69.517 54.8042C69.77 55.1146 69.975 55.4619 70.123 55.8341C70.28 56.2011 70.372 56.5927 70.394 56.9912C70.397 57.0668 70.429 57.1384 70.483 57.1909C70.538 57.2435 70.61 57.2728 70.686 57.2728C70.762 57.2728 70.834 57.2435 70.889 57.1909C70.943 57.1384 70.975 57.0668 70.978 56.9912L71.041 54.3227C71.038 54.1878 71.046 54.0529 71.064 53.9193C71.098 53.7355 71.173 53.5618 71.284 53.4111C71.395 53.2605 71.538 53.1368 71.703 53.0492C72.109 52.8307 72.674 52.9253 73.124 52.9331C73.586 52.941 74.049 52.9559 74.511 52.9569C74.889 52.961 75.254 52.8217 75.533 52.5669C75.813 52.3122 75.985 51.961 76.015 51.5843C76.043 51.2251 75.909 50.9191 75.753 50.6066C75.597 50.2863 75.421 49.9762 75.226 49.6782C74.727 48.9295 74.092 48.2198 73.298 47.7784C72.842 47.5284 72.334 47.3923 71.815 47.3818L70.675 47.3415L67.3158 47.2229C67.0159 47.2124 66.716 47.2006 66.4161 47.1912C65.9634 47.1861 65.514 47.2679 65.0921 47.4323C63.6375 47.9914 62.3995 49.0007 61.5589 50.3129C61.1881 50.8727 60.9224 51.4953 60.7749 52.1503C60.7023 52.5047 60.6383 52.8611 60.5701 53.2163L59.9882 56.2436L59.9472 56.457L60.0813 56.2827C59.1244 56.7655 58.3293 57.517 57.7932 58.4451C57.2939 59.335 57.0399 60.3416 57.0573 61.3619L57.2714 61.0806C56.4595 61.4054 55.6253 61.6901 54.9199 62.2222C53.8663 63.0138 53.1294 64.1551 52.8415 65.4412C52.681 66.1884 52.6741 66.9605 52.8212 67.7106V67.5555C52.6607 67.9904 52.6065 68.4573 52.6631 68.9174C52.7197 69.3775 52.8854 69.8174 53.1465 70.2004C53.4159 70.5917 53.7757 70.9122 54.1955 71.1345C54.6153 71.3568 55.0825 71.4745 55.5576 71.4775C55.933 71.4811 55.9333 70.8977 55.5576 70.8942C55.1366 70.8922 54.724 70.7772 54.3626 70.5614C54.0012 70.3456 53.7044 70.0367 53.503 69.667C53.3537 69.3927 53.2616 69.091 53.2323 68.78C53.203 68.469 53.2372 68.1554 53.3327 67.858C53.3799 67.7455 53.394 67.6219 53.3733 67.5017C53.353 67.3844 53.3339 67.2676 53.322 67.1491C53.2285 66.2183 53.3999 65.28 53.8163 64.4423C54.2327 63.6046 54.8772 62.9015 55.6756 62.414C56.222 62.0859 56.8367 61.879 57.4264 61.6431C57.487 61.6244 57.5402 61.5872 57.5786 61.5368C57.6169 61.4864 57.6386 61.4252 57.6405 61.3619C57.6228 60.49 57.8262 59.6278 58.2317 58.8557C58.681 58.0282 59.3569 57.346 60.1803 56.8892C60.316 56.814 60.4644 56.767 60.5114 56.6021C60.5218 56.5657 60.526 56.5263 60.5331 56.4891L60.6387 55.9399L60.9829 54.1487C61.177 53.1389 61.2873 52.0634 61.7587 51.1359C62.482 49.7126 63.8362 48.4743 65.3571 47.9557C65.725 47.8223 66.1154 47.7619 66.5065 47.7778L67.7581 47.822L71.342 47.9485C71.629 47.9447 71.915 47.9593 72.2 47.9921C73.135 48.148 73.905 48.8794 74.46 49.6047C74.738 49.9697 74.98 50.36 75.185 50.7706C75.317 51.0361 75.475 51.2967 75.43 51.6072C75.403 51.7821 75.326 51.9455 75.207 52.0771C75.089 52.2086 74.935 52.3027 74.763 52.3476C74.582 52.3786 74.397 52.3857 74.214 52.3685L72.539 52.3397C72.233 52.313 71.924 52.3486 71.632 52.4442C71.202 52.6078 70.85 52.9279 70.647 53.3404C70.424 53.8077 70.458 54.3275 70.446 54.8317L70.403 56.626L70.394 56.9912H70.978C70.928 56.1608 70.644 55.3616 70.157 54.6871C69.756 54.1213 69.196 53.578 68.455 53.6238C67.8308 53.6625 67.1911 53.8694 66.8791 54.4559C66.5204 55.1303 66.616 55.9622 66.8588 56.6565C67.0084 57.0854 67.2019 57.4977 67.4363 57.8868C67.6221 58.2224 67.8695 58.52 68.166 58.7639L68.021 58.512C68.111 59.4863 68.142 60.4651 68.115 61.4431C68.081 63.5066 67.8615 65.5846 67.3061 67.5768C66.9831 68.7974 66.4824 69.9638 65.8201 71.0387L66.072 70.8943H55.5576C55.1823 70.8942 55.1817 71.4775 55.5576 71.4775Z"
            fill="black"/>
      <path class="Vector_72"
            d="M66.3969 47.4731L75.794 47.6166C77.337 47.6432 78.405 49.9225 77.819 51.3504C77.819 51.3504 77.584 52.6021 76.014 53.5932C76.097 53.6758 76.593 52.3542 76.427 51.776C75.717 52.6017 74.762 53.1802 73.702 53.428C73.702 53.428 74.096 52.7408 74.105 52.1345"
            fill="#FFC41F"/>
      <path class="Vector_73"
            d="M66.3965 47.765L68.303 47.7941L72.198 47.8536L75.348 47.9017C75.552 47.8942 75.756 47.9008 75.959 47.9212C76.705 48.0374 77.241 48.7452 77.488 49.4101C77.636 49.792 77.703 50.2001 77.686 50.609C77.661 50.8536 77.606 51.0943 77.525 51.3261C77.472 51.5239 77.392 51.7136 77.289 51.8901C77.086 52.2478 76.827 52.5703 76.521 52.8453C76.318 53.0292 76.099 53.1953 75.867 53.3416C75.824 53.368 75.788 53.405 75.764 53.4491C75.739 53.4932 75.726 53.5429 75.726 53.5934C75.726 53.644 75.739 53.6936 75.764 53.7377C75.788 53.7818 75.824 53.8188 75.867 53.8453C76.273 54.1088 76.487 53.3562 76.564 53.1113C76.702 52.673 76.827 52.1545 76.708 51.6987C76.694 51.6499 76.668 51.6056 76.632 51.5701C76.595 51.5346 76.55 51.5092 76.501 51.4962C76.452 51.4833 76.4 51.4832 76.351 51.4962C76.302 51.5091 76.257 51.5345 76.221 51.57C75.561 52.3093 74.625 52.9768 73.624 53.147L73.953 53.5754C74.213 53.1372 74.365 52.6433 74.397 52.1347C74.41 51.7592 73.826 51.7597 73.814 52.1347C73.784 52.5401 73.66 52.9329 73.45 53.281C73.422 53.3313 73.41 53.3884 73.414 53.4455C73.419 53.5026 73.44 53.5571 73.475 53.6025C73.51 53.6479 73.557 53.6821 73.611 53.7011C73.665 53.7201 73.723 53.723 73.779 53.7094C74.114 53.6409 74.439 53.5304 74.747 53.3806C75.466 53.051 76.109 52.5748 76.633 51.9824L76.146 51.8537C76.215 52.1201 76.133 52.4851 76.056 52.7713C76.015 52.9255 75.965 53.0773 75.907 53.2258C75.889 53.2722 75.885 53.2757 75.854 53.3421C75.842 53.3592 75.832 53.3773 75.823 53.3964C75.848 53.3682 75.878 53.3455 75.911 53.3298C75.945 53.314 75.982 53.3055 76.019 53.3048L76.166 53.3446L76.161 53.3416V53.8453C76.939 53.3473 77.615 52.6677 77.974 51.8057C78.202 51.2918 78.3 50.7294 78.258 50.1685C78.12 48.7981 77.182 47.3463 75.685 47.3235L72.975 47.2821L68.877 47.2195C68.064 47.2071 67.2463 47.1655 66.4338 47.1822C66.4214 47.1825 66.4089 47.1818 66.3965 47.1816C66.021 47.1759 66.0209 47.7592 66.3965 47.765Z"
            fill="black"/>
    </g>
  </g>
  <defs>
    <filter class="filter0_f_140_816" x="9.50623" y="72.0826" width="108.665" height="121.867" filterUnits="userSpaceOnUse"
            color-interpolation-filters="sRGB">
      <feFlood flood-opacity="0" result="BackgroundImageFix"/>
      <feBlend mode="normal" in="SourceGraphic" in2="BackgroundImageFix" result="shape"/>
      <feGaussianBlur stdDeviation="20" result="effect1_foregroundBlur_140_816"/>
    </filter>
    <filter class="filter1_f_140_816" x="22.6275" y="25.1191" width="119.519" height="103.546" filterUnits="userSpaceOnUse"
            color-interpolation-filters="sRGB">
      <feFlood flood-opacity="0" result="BackgroundImageFix"/>
      <feBlend mode="normal" in="SourceGraphic" in2="BackgroundImageFix" result="shape"/>
      <feGaussianBlur stdDeviation="20" result="effect1_foregroundBlur_140_816"/>
    </filter>
  </defs>
</svg>
