<svg viewBox="0 0 115 146" fill="none" xmlns="http://www.w3.org/2000/svg">
<g class="b4">
<g class="Group 3">
<path class="shadow-4" d="M59.26 139.477C85.8225 139.477 107.356 136.129 107.356 131.999C107.356 127.869 85.8225 124.521 59.26 124.521C32.6976 124.521 11.1644 127.869 11.1644 131.999C11.1644 136.129 32.6976 139.477 59.26 139.477Z" fill="#232323"/>
<path class="Vector" d="M46.6957 74.0234C46.6957 74.0234 46.1335 77.7106 49.9227 77.3435C54.1037 76.9765 65.672 76.99 65.672 76.99C65.672 76.99 67.06 77.9959 66.363 73.6692C65.667 69.3426 59.0035 69.049 59.0035 69.049" fill="black"/>
<path class="Vector_2" d="M46.9133 74.0906C46.9031 74.1583 46.9172 74.0395 46.9143 74.0797C46.9108 74.1266 46.905 74.1733 46.9017 74.2202C46.8907 74.3824 46.8889 74.5451 46.8964 74.7075C46.8986 74.7565 46.9017 74.8054 46.9056 74.8543C46.9077 74.8813 46.9103 74.9084 46.9128 74.9354C46.914 74.9476 46.9154 74.9599 46.9166 74.9721C46.923 75.0362 46.9088 74.9152 46.9174 74.9798C46.9326 75.0943 46.9516 75.208 46.9767 75.3204C47.0033 75.4403 47.0367 75.5582 47.0765 75.6734C47.0812 75.6869 47.086 75.7004 47.0908 75.7139C47.1144 75.7792 47.0792 75.685 47.0949 75.7245C47.107 75.7549 47.1193 75.7851 47.1324 75.8151C47.1588 75.876 47.1875 75.9356 47.2183 75.9941C47.3369 76.2197 47.4929 76.4182 47.678 76.5788C47.9217 76.7809 48.1999 76.925 48.4955 77.0024C49.1961 77.2009 49.918 77.0856 50.6286 77.0378C52.0574 76.9419 53.4892 76.8976 54.9201 76.86C56.5655 76.8167 58.2113 76.7872 59.8572 76.7715C61.2221 76.756 62.5871 76.7459 63.9521 76.7413C64.3691 76.7398 64.7861 76.7388 65.2031 76.7383C65.3581 76.7382 65.5171 76.7268 65.6721 76.7382C65.7181 76.7431 65.7621 76.7586 65.8031 76.7839C65.8341 76.8007 65.9071 76.8209 65.8191 76.7961C65.8531 76.8058 65.8881 76.8218 65.9231 76.8332C65.9731 76.8498 65.9581 76.835 65.9251 76.836C65.9471 76.8353 65.9721 76.8376 65.9951 76.8393C66.0611 76.8443 65.9631 76.8577 66.0071 76.839C66.0291 76.8298 66.0551 76.8224 66.0781 76.8153C65.9981 76.8402 66.0741 76.811 66.1011 76.7941C66.1431 76.7686 66.0751 76.8221 66.0931 76.801C66.1051 76.7875 66.1181 76.7743 66.1301 76.7616C66.1411 76.7506 66.1491 76.737 66.1591 76.7249C66.1111 76.7847 66.1511 76.7375 66.1611 76.7173C66.1811 76.6782 66.2011 76.64 66.2181 76.5996C66.2331 76.5672 66.1981 76.6599 66.2161 76.6063C66.2201 76.5954 66.2241 76.5847 66.2271 76.5736C66.2341 76.5503 66.2411 76.5271 66.2481 76.5036C66.2641 76.4439 66.2781 76.3833 66.2891 76.3221C66.3001 76.2639 66.3081 76.2051 66.3131 76.1458C66.3211 76.0594 66.3271 75.9729 66.3301 75.8861C66.3361 75.6705 66.3331 75.4546 66.3201 75.2393C66.2911 74.6798 66.2231 74.1236 66.1171 73.5758C65.9741 72.8818 65.6581 72.2471 65.2061 71.7448C64.2951 70.7105 63.0141 70.1523 61.7751 69.7921C61.2321 69.6355 60.6825 69.5134 60.1276 69.4262C60.0981 69.4215 60.0686 69.4169 60.039 69.4123C60.0293 69.4108 59.9943 69.4057 60.0413 69.4126C60.0287 69.4108 60.0161 69.4089 60.0035 69.4071C59.9492 69.3993 59.8948 69.3915 59.8404 69.3843C59.7439 69.3713 59.6473 69.3594 59.5506 69.3486C59.4156 69.3335 59.2803 69.3204 59.1449 69.3103C59.0978 69.3068 59.0507 69.3034 59.0035 69.3012C58.7142 69.2883 58.7127 68.7843 59.0035 68.7972C59.522 68.8272 60.0383 68.8921 60.5497 68.9915C61.6241 69.1716 62.6711 69.5095 63.6661 69.9965C64.6981 70.5188 65.6941 71.306 66.2271 72.4534C66.5731 73.1989 66.6701 74.0438 66.7441 74.8696C66.7981 75.469 66.8511 76.1641 66.6511 76.7404C66.5431 77.0514 66.3411 77.3117 66.0291 77.3408C65.8711 77.3527 65.7131 77.3109 65.5771 77.2207C65.5711 77.2163 65.5641 77.2125 65.5581 77.208L65.6721 77.2424C64.8931 77.2415 64.1141 77.2434 63.3351 77.248C61.5661 77.2564 59.7967 77.2738 58.0275 77.3003C56.1192 77.3303 54.2105 77.3699 52.3033 77.4523C51.5593 77.4845 50.815 77.5221 50.0723 77.5833C49.1971 77.6553 48.2459 77.6414 47.4981 77.053C46.6588 76.3925 46.3441 75.1899 46.4624 74.0858C46.467 74.0427 46.4717 73.9996 46.4782 73.9568C46.5264 73.6377 46.9613 73.773 46.9133 74.0908V74.0906Z" fill="black"/>
<path class="Vector_3" d="M49.7268 119.11V125.789L56.6517 127.331L56.8477 117.201" fill="#FC7272"/>
<path class="Vector_4" d="M49.9526 119.11V125.789L49.787 125.546L52.1323 126.068L55.8543 126.897L56.712 127.088L56.4264 127.331L56.4927 123.908L56.5982 118.452L56.6224 117.201C56.6287 116.877 57.0799 116.876 57.0736 117.201L57.0074 120.624L56.9019 126.08L56.8776 127.331C56.877 127.369 56.8685 127.407 56.8529 127.442C56.8373 127.476 56.8149 127.506 56.7875 127.529C56.76 127.553 56.7282 127.569 56.6944 127.577C56.6605 127.584 56.6256 127.583 56.5921 127.574L54.2468 127.052L50.5248 126.223L49.6672 126.032C49.6197 126.017 49.5779 125.986 49.548 125.942C49.5182 125.898 49.5019 125.844 49.5015 125.789V119.11C49.5015 118.785 49.9527 118.785 49.9527 119.11H49.9526Z" fill="black"/>
<path class="Vector_5" d="M57.0471 125.146L57.0194 132.542H42.4038C42.4038 132.542 42.1545 127.879 47.6122 127.388C48.1047 127.34 48.5627 127.085 48.894 126.675C49.2253 126.265 49.4054 125.73 49.3981 125.178C49.3952 124.854 49.392 124.591 49.3889 124.379C49.387 124.266 49.4051 124.154 49.4423 124.05C49.4795 123.945 49.5349 123.85 49.6055 123.769C49.676 123.689 49.7602 123.625 49.8531 123.581C49.946 123.537 50.0458 123.514 50.1466 123.514H50.7722L52.4363 124.668C52.8576 124.96 53.3443 125.114 53.8404 125.111C54.3364 125.108 54.8217 124.949 55.2405 124.652L55.7144 124.316C55.8464 124.223 55.9985 124.172 56.1546 124.167C56.3106 124.162 56.465 124.204 56.6014 124.289C56.7377 124.374 56.8511 124.499 56.9296 124.65C57.008 124.8 57.0486 124.972 57.0471 125.146Z" fill="#389B48"/>
<path class="Vector_6" d="M57.2725 125.146L57.2631 127.651L57.2482 131.625L57.2447 132.543C57.2438 132.609 57.2198 132.673 57.1777 132.72C57.1355 132.767 57.0787 132.794 57.0191 132.795H44.208C43.6162 132.795 43.0194 132.82 42.4279 132.795C42.4198 132.794 42.4116 132.795 42.4034 132.795C42.344 132.793 42.2873 132.766 42.2452 132.719C42.2032 132.672 42.179 132.609 42.1778 132.543C42.163 131.894 42.2724 131.25 42.4987 130.653C43.002 129.25 44.019 128.25 45.2659 127.7C45.6987 127.512 46.1469 127.372 46.6041 127.282C46.8775 127.226 47.1535 127.184 47.4301 127.154C47.676 127.141 47.9184 127.082 48.147 126.98C48.358 126.874 48.548 126.721 48.7056 126.532C48.8633 126.342 48.9857 126.12 49.0655 125.877C49.1447 125.614 49.1805 125.337 49.1711 125.059C49.1682 124.76 49.1317 124.434 49.1842 124.138C49.2343 123.885 49.3615 123.66 49.5441 123.5C49.7266 123.34 49.9532 123.256 50.1851 123.262C50.3426 123.261 50.5001 123.262 50.6577 123.262C50.745 123.253 50.8329 123.271 50.9115 123.314C51.4176 123.635 51.9038 124.002 52.3981 124.345C52.6874 124.56 53.0086 124.716 53.3469 124.805C53.9119 124.934 54.4993 124.831 55.0025 124.517C55.2665 124.352 55.5059 124.121 55.788 123.995C56.0081 123.902 56.2491 123.891 56.4754 123.963C56.7017 124.035 56.9014 124.186 57.045 124.394C57.1921 124.61 57.272 124.875 57.2725 125.146C57.2772 125.471 56.826 125.471 56.8213 125.146C56.8207 125.016 56.7885 124.888 56.7282 124.776C56.6679 124.664 56.5817 124.572 56.4786 124.51C56.3755 124.449 56.2594 124.419 56.1425 124.425C56.0257 124.431 55.9124 124.472 55.8146 124.543C55.3833 124.84 54.9798 125.15 54.4753 125.28C53.7388 125.467 52.966 125.325 52.3216 124.885C52.0677 124.712 51.8161 124.534 51.5634 124.359L50.658 123.732L50.7719 123.766C50.417 123.766 49.9029 123.653 49.6889 124.059C49.6264 124.196 49.6011 124.351 49.616 124.504C49.6188 124.709 49.6214 124.913 49.6229 125.118C49.6291 125.509 49.557 125.896 49.412 126.252C49.2733 126.582 49.07 126.873 48.817 127.103C48.5639 127.334 48.2677 127.497 47.9503 127.583C47.6035 127.672 47.2386 127.672 46.8871 127.736C46.5651 127.794 46.2467 127.874 45.9336 127.976C45.0252 128.275 44.185 128.796 43.5711 129.605C43.1601 130.153 42.8726 130.803 42.7325 131.5C42.7015 131.648 42.6778 131.797 42.6577 131.947C42.6505 132 42.6645 131.884 42.659 131.936C42.6571 131.954 42.6549 131.973 42.653 131.991C42.6503 132.017 42.6478 132.043 42.6455 132.069C42.6407 132.123 42.6368 132.177 42.6338 132.231C42.6267 132.334 42.6252 132.439 42.6292 132.543L42.4036 132.291H56.4225C56.6131 132.28 56.8041 132.28 56.9947 132.291C57.0028 132.291 57.011 132.291 57.0192 132.291L56.7936 132.543L56.8029 130.038L56.8178 126.064L56.8213 125.146C56.8225 124.822 57.2737 124.822 57.2725 125.146Z" fill="black"/>
<path class="Vector_7" d="M61.9861 70.4139C61.9861 70.4139 65.1421 71.0959 65.5061 73.1418C65.8701 75.1877 61.2581 75.665 61.2581 75.665" fill="black"/>
<path class="Vector_8" d="M62.046 70.1708C62.568 70.2917 63.078 70.4741 63.566 70.7148C64.368 71.099 65.222 71.6836 65.589 72.6114C65.739 72.9924 65.816 73.4226 65.678 73.8228C65.538 74.1856 65.303 74.4927 65.004 74.7039C64.368 75.199 63.571 75.447 62.823 75.633C62.307 75.7642 61.785 75.859 61.258 75.9169C61.198 75.9164 61.141 75.8897 61.099 75.8425C61.057 75.7954 61.033 75.7316 61.032 75.6649C61.034 75.5985 61.058 75.5352 61.1 75.4882C61.142 75.4413 61.199 75.4143 61.258 75.4129C61.372 75.401 61.487 75.3846 61.6 75.3677C61.53 75.3781 61.619 75.3648 61.635 75.3623C61.663 75.3578 61.692 75.3532 61.72 75.3485C61.789 75.3371 61.859 75.3252 61.928 75.3126C62.082 75.2848 62.235 75.2541 62.388 75.2206C63.102 75.064 63.837 74.8574 64.468 74.4787C64.539 74.4357 64.61 74.3902 64.678 74.3415C64.74 74.2976 64.831 74.226 64.859 74.2013C64.916 74.1506 64.97 74.0963 65.022 74.0386C65.046 74.0108 65.07 73.9822 65.093 73.9527C65.106 73.9354 65.119 73.9178 65.132 73.8997C65.104 73.9392 65.14 73.8869 65.145 73.8782C65.184 73.8151 65.218 73.7482 65.247 73.6783C65.263 73.6398 65.23 73.7338 65.25 73.6688C65.257 73.6484 65.263 73.6283 65.269 73.6076C65.279 73.5697 65.287 73.5313 65.294 73.4924C65.296 73.4787 65.301 73.4302 65.296 73.484C65.298 73.4621 65.3 73.4401 65.301 73.4181C65.302 73.3805 65.302 73.3428 65.3 73.3053C65.299 73.2899 65.298 73.2745 65.297 73.2592C65.291 73.1832 65.306 73.3089 65.293 73.2324C65.283 73.1706 65.27 73.1095 65.254 73.049C65.029 72.1737 64.247 71.6204 63.549 71.2555C63.032 70.9834 62.487 70.7823 61.926 70.6567C61.642 70.5949 61.762 70.109 62.046 70.1707V70.1708Z" fill="black"/>
<path class="Vector_9" d="M68.4401 115.433L71.6251 121.073L78.2071 118.206L73.5421 109.535" fill="#FC7272"/>
<path class="Vector_10" d="M68.634 115.306L69.71 117.21L71.425 120.247L71.82 120.946L71.565 120.83L73.794 119.859L77.332 118.318L78.147 117.963L78.012 118.333L76.436 115.403L73.924 110.733L73.347 109.662C73.198 109.383 73.588 109.13 73.737 109.408L75.313 112.338L77.826 117.008L78.402 118.079C78.419 118.112 78.428 118.149 78.431 118.188C78.433 118.226 78.427 118.264 78.414 118.3C78.401 118.335 78.381 118.367 78.356 118.393C78.33 118.419 78.3 118.438 78.267 118.449L76.038 119.42L72.5 120.961L71.685 121.316C71.637 121.33 71.586 121.327 71.54 121.306C71.494 121.285 71.455 121.248 71.43 121.2L70.355 119.296L68.64 116.259L68.245 115.56C68.089 115.285 68.48 115.032 68.634 115.306Z" fill="black"/>
<path class="Vector_11" d="M77.499 116.124L81.003 122.386L68.662 131.184C68.662 131.184 66.228 127.397 70.601 123.696C70.994 123.36 71.259 122.87 71.343 122.325C71.428 121.78 71.325 121.22 71.056 120.755C70.899 120.483 70.771 120.263 70.667 120.086C70.612 119.992 70.574 119.886 70.555 119.775C70.537 119.664 70.538 119.55 70.559 119.44C70.58 119.33 70.621 119.225 70.678 119.132C70.736 119.039 70.809 118.96 70.894 118.899L71.422 118.523L73.378 118.495C73.874 118.488 74.359 118.324 74.776 118.023C75.194 117.722 75.527 117.296 75.738 116.794L75.978 116.225C76.044 116.067 76.147 115.932 76.276 115.834C76.405 115.736 76.556 115.679 76.711 115.669C76.867 115.658 77.023 115.695 77.161 115.775C77.3 115.855 77.417 115.976 77.499 116.124Z" fill="#389B48"/>
<path class="Vector_12" d="M77.694 115.996L78.879 118.114L80.766 121.487L81.197 122.258C81.227 122.316 81.234 122.384 81.219 122.449C81.204 122.513 81.167 122.568 81.116 122.603L79.886 123.48L76.931 125.586L73.384 128.115L70.296 130.317C69.798 130.672 69.309 131.059 68.796 131.386C68.789 131.391 68.782 131.396 68.776 131.401C68.724 131.433 68.662 131.442 68.605 131.425C68.547 131.408 68.498 131.367 68.467 131.311C68.051 130.661 67.84 129.799 67.777 129.016C67.623 127.085 68.563 125.349 69.811 124.098C70.209 123.699 70.699 123.39 70.953 122.846C71.155 122.408 71.2 121.901 71.082 121.427C71.004 121.158 70.889 120.905 70.741 120.675C70.608 120.445 70.439 120.214 70.363 119.951C70.298 119.713 70.306 119.458 70.386 119.225C70.465 118.992 70.612 118.796 70.802 118.666C70.917 118.582 71.034 118.501 71.15 118.418C71.23 118.343 71.326 118.292 71.429 118.27C71.63 118.255 71.834 118.265 72.034 118.262C72.549 118.255 73.076 118.284 73.59 118.23C74.057 118.178 74.501 117.974 74.864 117.642C75.172 117.352 75.417 116.988 75.581 116.577C75.708 116.276 75.814 115.931 76.049 115.711C76.169 115.595 76.31 115.51 76.462 115.461C76.614 115.413 76.774 115.402 76.931 115.429C77.087 115.456 77.237 115.521 77.368 115.619C77.5 115.717 77.611 115.846 77.694 115.996C77.853 116.269 77.463 116.522 77.304 116.251C77.014 115.753 76.393 115.853 76.17 116.359C75.946 116.867 75.758 117.365 75.396 117.78C74.905 118.339 74.248 118.679 73.548 118.738C73.215 118.767 72.877 118.754 72.543 118.759L71.422 118.775L71.536 118.74L71.156 119.011C71.012 119.114 70.872 119.206 70.805 119.394C70.695 119.703 70.853 119.943 70.998 120.192C71.19 120.487 71.349 120.806 71.474 121.142C71.664 121.758 71.63 122.433 71.378 123.021C71.091 123.703 70.494 124.074 70.016 124.57C69.212 125.405 68.543 126.438 68.303 127.652C68.152 128.428 68.188 129.235 68.408 129.99C68.478 130.257 68.575 130.514 68.695 130.757C68.743 130.86 68.797 130.96 68.857 131.056L68.548 130.966L69.779 130.089L72.733 127.982L76.28 125.453L79.369 123.251L80.386 122.526C80.544 122.413 80.701 122.276 80.868 122.182C80.875 122.178 80.882 122.172 80.889 122.167L80.808 122.512L79.623 120.395L77.736 117.022L77.304 116.251C77.15 115.975 77.54 115.722 77.694 115.996Z" fill="black"/>
<path class="Vector_13" d="M71.321 122.178C71.432 122.173 71.542 122.183 71.65 122.208C71.869 122.251 72.075 122.35 72.253 122.498C72.398 122.62 72.523 122.77 72.621 122.942C72.65 123 72.658 123.068 72.643 123.133C72.628 123.197 72.591 123.252 72.54 123.286C72.488 123.319 72.427 123.327 72.369 123.311C72.312 123.294 72.262 123.253 72.231 123.196C72.219 123.175 72.206 123.154 72.193 123.133C72.187 123.123 72.18 123.113 72.174 123.103C72.192 123.129 72.194 123.132 72.179 123.111C72.152 123.075 72.125 123.04 72.095 123.007C72.067 122.976 72.038 122.947 72.008 122.918C71.989 122.902 71.993 122.905 72.02 122.928C72.012 122.922 72.005 122.916 71.997 122.91C71.986 122.901 71.975 122.892 71.963 122.883C71.905 122.841 71.844 122.803 71.781 122.771C71.744 122.753 71.835 122.795 71.779 122.771C71.764 122.765 71.749 122.759 71.734 122.753C71.708 122.743 71.681 122.734 71.654 122.725C71.604 122.71 71.554 122.699 71.503 122.689C71.45 122.679 71.556 122.695 71.519 122.691C71.509 122.69 71.498 122.688 71.487 122.687C71.469 122.685 71.451 122.684 71.433 122.683C71.396 122.68 71.359 122.679 71.322 122.682C71.262 122.682 71.205 122.655 71.162 122.608C71.12 122.561 71.096 122.497 71.096 122.43C71.097 122.364 71.122 122.301 71.164 122.254C71.206 122.207 71.262 122.18 71.322 122.178H71.321Z" fill="black"/>
<path class="Vector_14" d="M70.7861 123.252C70.8961 123.246 71.0061 123.256 71.1141 123.282C71.3331 123.324 71.5391 123.423 71.7171 123.571C71.8621 123.694 71.9871 123.844 72.0851 124.015C72.1141 124.073 72.1231 124.142 72.1071 124.206C72.0921 124.271 72.0551 124.326 72.0041 124.36C71.9521 124.392 71.8911 124.401 71.8331 124.384C71.7761 124.367 71.7261 124.326 71.6951 124.27C71.6831 124.248 71.6701 124.227 71.6571 124.206C71.6511 124.196 71.6441 124.186 71.6381 124.176C71.6561 124.203 71.6581 124.206 71.6431 124.184C71.6161 124.149 71.5891 124.114 71.5591 124.081C71.5311 124.049 71.5021 124.021 71.4721 123.992C71.4531 123.975 71.4571 123.979 71.4841 124.002C71.4761 123.996 71.4691 123.989 71.4611 123.983C71.4501 123.974 71.4391 123.965 71.4271 123.957C71.3691 123.914 71.3081 123.877 71.2451 123.845C71.2081 123.826 71.2991 123.869 71.2431 123.845C71.2281 123.838 71.2131 123.832 71.1991 123.827C71.1721 123.816 71.1451 123.807 71.1181 123.799C71.0681 123.784 71.0181 123.772 70.9671 123.763C70.9141 123.753 71.0201 123.769 70.9841 123.765C70.9731 123.764 70.9621 123.762 70.9511 123.761C70.9331 123.759 70.9151 123.757 70.8971 123.756C70.8601 123.753 70.8231 123.753 70.7861 123.756C70.7261 123.755 70.6691 123.729 70.6261 123.682C70.5841 123.634 70.5601 123.57 70.5601 123.504C70.5611 123.437 70.5861 123.374 70.6281 123.327C70.6701 123.28 70.7261 123.253 70.7861 123.252Z" fill="black"/>
<path class="Vector_15" d="M69.965 124.133C70.075 124.127 70.185 124.138 70.293 124.163C70.512 124.205 70.718 124.305 70.896 124.453C71.042 124.575 71.166 124.725 71.264 124.896C71.293 124.954 71.302 125.023 71.286 125.087C71.271 125.152 71.234 125.207 71.183 125.241C71.131 125.274 71.07 125.282 71.012 125.265C70.955 125.248 70.905 125.207 70.874 125.151C70.862 125.129 70.849 125.108 70.836 125.088C70.83 125.077 70.823 125.067 70.817 125.057C70.836 125.084 70.837 125.087 70.822 125.065C70.795 125.03 70.768 124.995 70.738 124.962C70.711 124.93 70.681 124.902 70.651 124.873C70.632 124.856 70.636 124.86 70.663 124.883C70.655 124.877 70.648 124.871 70.64 124.864C70.629 124.855 70.618 124.847 70.606 124.838C70.548 124.796 70.487 124.758 70.424 124.726C70.387 124.707 70.478 124.75 70.422 124.726C70.407 124.719 70.392 124.713 70.378 124.708C70.351 124.698 70.324 124.688 70.297 124.68C70.247 124.665 70.197 124.653 70.146 124.644C70.093 124.634 70.199 124.65 70.163 124.646C70.152 124.645 70.141 124.643 70.13 124.642C70.112 124.64 70.094 124.639 70.076 124.637C70.039 124.634 70.002 124.634 69.965 124.637C69.905 124.637 69.848 124.61 69.805 124.563C69.763 124.516 69.739 124.452 69.739 124.385C69.741 124.319 69.765 124.255 69.807 124.209C69.849 124.162 69.905 124.135 69.965 124.133Z" fill="black"/>
<path class="Vector_16" d="M68.07 129.533C68.17 130.121 68.371 130.681 68.662 131.184L81.003 122.385L80.455 121.382L80.462 121.377L79.483 119.644C79.483 119.644 77.476 120.206 76.385 123.07C75.376 124.571 74.185 123.421 72.911 124.59C71.637 125.759 72.388 125.945 71.546 126.533C71.546 126.533 70.576 127.298 69.529 127.089C68.482 126.879 67.819 127.812 68.07 129.533Z" fill="white"/>
<path class="Vector_17" d="M68.287 129.466C68.378 130.034 68.572 130.575 68.856 131.057L68.548 130.966L69.778 130.089L72.733 127.983L76.28 125.454L79.369 123.252L80.386 122.526C80.544 122.414 80.701 122.277 80.868 122.183C80.875 122.179 80.882 122.173 80.889 122.168L80.808 122.513L80.26 121.509C80.231 121.451 80.223 121.383 80.238 121.319C80.253 121.254 80.29 121.199 80.341 121.164L80.348 121.16L80.267 121.504L79.288 119.771L79.543 119.887C79.502 119.898 79.461 119.914 79.421 119.929C79.375 119.947 79.33 119.966 79.285 119.986C79.271 119.992 79.258 119.998 79.244 120.004C79.195 120.027 79.291 119.981 79.24 120.006C79.203 120.025 79.166 120.043 79.129 120.063C78.763 120.256 78.423 120.502 78.116 120.796C77.642 121.251 77.242 121.794 76.933 122.401C76.841 122.579 76.757 122.762 76.679 122.949C76.643 123.051 76.599 123.149 76.548 123.243C76.489 123.334 76.424 123.42 76.353 123.5C76.114 123.777 75.814 123.978 75.483 124.085C74.879 124.277 74.234 124.161 73.639 124.403C73.295 124.562 72.986 124.801 72.732 125.105C72.634 125.209 72.545 125.323 72.465 125.445C72.434 125.493 72.406 125.543 72.38 125.595C72.369 125.617 72.358 125.64 72.348 125.663C72.344 125.672 72.309 125.761 72.327 125.71C72.268 125.871 72.238 126.043 72.167 126.199C72.07 126.39 71.933 126.552 71.767 126.671C71.388 126.971 70.96 127.184 70.507 127.299C70.296 127.353 70.079 127.379 69.863 127.377C69.686 127.373 69.514 127.327 69.339 127.315C69.108 127.289 68.876 127.357 68.687 127.506C68.181 127.94 68.198 128.834 68.287 129.466C68.301 129.53 68.293 129.598 68.264 129.656C68.234 129.713 68.186 129.756 68.13 129.776C68.072 129.793 68.011 129.784 67.959 129.751C67.907 129.718 67.869 129.664 67.852 129.6C67.754 128.905 67.735 128.097 68.101 127.486C68.247 127.245 68.451 127.054 68.689 126.937C68.927 126.82 69.191 126.78 69.448 126.823C69.809 126.888 70.177 126.871 70.531 126.773C70.796 126.691 71.05 126.571 71.287 126.416C71.412 126.34 71.53 126.249 71.638 126.146C71.663 126.12 71.72 126.052 71.72 126.051C71.706 126.072 71.736 126.027 71.74 126.018C71.75 125.999 71.76 125.98 71.77 125.961C71.778 125.945 71.785 125.928 71.791 125.912C71.775 125.95 71.785 125.931 71.793 125.905C71.804 125.868 71.815 125.831 71.826 125.794C71.994 125.197 72.356 124.761 72.791 124.376C73.088 124.109 73.436 123.919 73.808 123.823C74.13 123.755 74.456 123.714 74.783 123.7C75.071 123.692 75.354 123.621 75.617 123.49C75.773 123.402 75.913 123.284 76.034 123.143C76.104 123.07 76.163 122.986 76.209 122.892C76.255 122.787 76.294 122.679 76.34 122.575C76.639 121.883 77.042 121.254 77.529 120.713C77.875 120.331 78.267 120.005 78.693 119.745C78.913 119.604 79.148 119.491 79.391 119.411C79.402 119.408 79.412 119.404 79.423 119.401C79.471 119.387 79.522 119.391 79.567 119.412C79.613 119.433 79.652 119.47 79.678 119.517L80.657 121.25C80.686 121.308 80.694 121.376 80.679 121.441C80.664 121.505 80.627 121.56 80.576 121.595L80.569 121.6L80.65 121.255L81.197 122.258C81.226 122.316 81.234 122.385 81.219 122.449C81.204 122.513 81.167 122.569 81.116 122.603L79.886 123.481L76.931 125.587L73.384 128.116L70.295 130.318C69.798 130.673 69.309 131.059 68.796 131.387C68.789 131.391 68.782 131.397 68.775 131.401C68.723 131.434 68.662 131.442 68.605 131.426C68.547 131.409 68.498 131.368 68.467 131.311C68.16 130.793 67.951 130.211 67.852 129.6C67.794 129.283 68.229 129.148 68.287 129.466Z" fill="black"/>
<path class="Vector_18" d="M58.0236 69.049L48.8121 70.4436L45.419 118.359C45.3879 118.775 45.4481 119.193 45.5943 119.577C45.7405 119.961 45.9684 120.299 46.2581 120.563C46.5478 120.826 46.8907 121.007 47.2571 121.089C47.6234 121.171 48.0021 121.152 48.3605 121.034L49.8435 120.538L50.8793 121.106C51.4629 121.426 52.1124 121.566 52.7608 121.512C53.4091 121.458 54.0327 121.211 54.5673 120.798L55.1133 120.376L56.3375 120.932C56.8781 121.178 57.4636 121.275 58.0447 121.216C58.6259 121.157 59.1859 120.943 59.6778 120.592L60.0944 120.295L60.1341 120.315C60.8528 120.684 61.659 120.783 62.432 120.596C63.205 120.41 63.903 119.948 64.422 119.281L65.148 118.348L67.007 118.271C67.632 118.244 68.24 118.04 68.774 117.676C69.308 117.313 69.75 116.804 70.058 116.196L70.778 114.78H72.994C74.263 114.779 75.486 114.245 76.419 113.283C76.498 113.201 76.551 113.091 76.567 112.972C76.584 112.852 76.565 112.73 76.512 112.624L66.591 92.8796C66.591 92.8796 69.004 77.2295 61.986 70.414" fill="#FFC41F"/>
<path class="Vector_19" d="M58.0837 69.292L54.9733 69.7629L50.0136 70.5138L48.8722 70.6866L49.0379 70.4436L48.8568 73.0005L48.3911 79.5761L47.7475 88.6649L47.0432 98.6108L46.3823 107.943L45.8823 115.004C45.8047 116.1 45.7242 117.196 45.6495 118.292C45.6074 118.743 45.6786 119.198 45.8549 119.607C46.0757 120.092 46.441 120.475 46.8877 120.691C47.3345 120.907 47.8348 120.942 48.3023 120.79C48.5646 120.707 48.8252 120.616 49.0865 120.528C49.314 120.434 49.5469 120.356 49.7836 120.295C49.8873 120.288 49.99 120.32 50.0758 120.386L50.5568 120.649C50.8598 120.832 51.1759 120.985 51.5017 121.109C52.5987 121.476 53.6779 121.179 54.6008 120.466C54.8031 120.31 55.0049 120.057 55.2601 120.172L56.1648 120.583C56.5312 120.766 56.9185 120.892 57.3157 120.956C57.9433 121.037 58.5785 120.923 59.1521 120.628C59.34 120.525 59.5216 120.409 59.6958 120.28C59.8047 120.203 59.9557 120.043 60.0944 120.043C60.1978 120.065 60.297 120.106 60.3881 120.165C60.5171 120.221 60.6491 120.27 60.7832 120.309C61.071 120.395 61.367 120.438 61.664 120.437C62.167 120.431 62.662 120.304 63.117 120.066C63.572 119.827 63.976 119.482 64.3 119.053C64.506 118.79 64.712 118.526 64.917 118.262C65.057 118.081 65.204 118.094 65.404 118.086C66.005 118.061 66.615 118.068 67.214 118.004C67.761 117.938 68.287 117.729 68.747 117.393C69.208 117.056 69.59 116.603 69.863 116.069C70.107 115.599 70.344 115.124 70.584 114.652C70.604 114.614 70.632 114.583 70.666 114.561C70.7 114.539 70.739 114.528 70.779 114.527H72.899C73.489 114.534 74.075 114.425 74.631 114.208C75.001 114.058 75.354 113.859 75.68 113.614C75.903 113.448 76.456 113.121 76.317 112.751C76.239 112.574 76.153 112.402 76.058 112.236L75.359 110.844L73.057 106.264L70.249 100.673L67.759 95.7181L66.446 93.1051C66.378 92.9568 66.362 92.7854 66.401 92.6245C66.411 92.5528 66.42 92.4811 66.429 92.4093C66.446 92.2772 66.45 92.2407 66.461 92.1539C66.492 91.8866 66.52 91.619 66.546 91.351C66.719 89.5542 66.791 87.7468 66.759 85.9399C66.717 83.5026 66.486 81.0577 65.942 78.693C65.381 76.2516 64.469 73.8547 62.998 71.9183C62.637 71.4444 62.246 71.0011 61.827 70.5921C61.608 70.3783 61.928 70.023 62.146 70.2357C64.905 72.9293 66.236 76.9574 66.814 80.9028C67.296 84.1888 67.325 87.5605 67.041 90.8712C66.982 91.5641 66.915 92.26 66.809 92.9465L66.786 92.7523L68.198 95.5616L71.371 101.877L74.713 108.53L76.633 112.351C76.733 112.514 76.79 112.704 76.799 112.901C76.793 113.382 76.374 113.678 76.063 113.929C75.67 114.243 75.241 114.496 74.786 114.679C73.631 115.152 72.369 115.031 71.16 115.031H70.779L70.973 114.907C70.54 115.76 70.154 116.714 69.496 117.384C68.967 117.925 68.316 118.292 67.612 118.445C67.203 118.514 66.789 118.549 66.375 118.549L65.148 118.6L65.307 118.527C64.765 119.223 64.26 119.961 63.519 120.41C62.977 120.735 62.375 120.913 61.761 120.93C61.146 120.948 60.5367 120.805 59.9806 120.513H60.2084C59.8429 120.796 59.4512 121.034 59.0398 121.222C58.4079 121.478 57.7275 121.547 57.0647 121.422C56.3685 121.295 55.7029 120.914 55.0535 120.619L55.2273 120.594C54.9092 120.861 54.5742 121.102 54.225 121.316C53.5894 121.671 52.879 121.824 52.1708 121.76C51.2782 121.673 50.5173 121.188 49.7297 120.756L49.9036 120.781C48.958 121.097 47.9276 121.624 46.9369 121.26C46.3966 121.057 45.9322 120.659 45.6169 120.129C45.3015 119.599 45.1532 118.967 45.1955 118.332C45.2352 117.7 45.2849 117.068 45.3297 116.437L45.639 112.069L46.0743 105.921L46.5884 98.662L47.1301 91.0122L47.6498 83.6728L48.0965 77.3645L48.4229 72.756C48.4752 72.0171 48.5237 71.2776 48.5799 70.5391C48.5823 70.5073 48.5844 70.4754 48.5866 70.4436C48.5873 70.3887 48.6038 70.3354 48.6336 70.2916C48.6634 70.2479 48.705 70.216 48.7523 70.2006L51.8626 69.7297L56.8224 68.9788L57.9637 68.806C58.2477 68.763 58.3705 69.2485 58.0837 69.292Z" fill="black"/>
<path class="Vector_20" d="M48.9376 126.535C49.0322 126.595 49.1198 126.668 49.1983 126.752C49.3731 126.932 49.5076 127.156 49.5909 127.404C49.6487 127.581 49.6779 127.768 49.6771 127.957C49.6771 128.023 49.6534 128.087 49.6111 128.135C49.5688 128.182 49.5114 128.209 49.4515 128.209C49.3917 128.209 49.3343 128.182 49.292 128.135C49.2497 128.087 49.2259 128.023 49.2259 127.957C49.2257 127.921 49.2248 127.885 49.2224 127.849C49.221 127.829 49.2188 127.809 49.2171 127.789C49.2148 127.76 49.2203 127.814 49.2202 127.814C49.218 127.803 49.2164 127.792 49.2154 127.781C49.2052 127.715 49.1906 127.651 49.1717 127.588C49.1667 127.572 49.1614 127.555 49.1558 127.538C49.1535 127.532 49.1507 127.525 49.1485 127.518C49.1407 127.492 49.1594 127.545 49.1586 127.544C49.1444 127.518 49.1354 127.487 49.1228 127.46C49.0987 127.408 49.0716 127.358 49.0417 127.309C49.0352 127.299 49.0284 127.288 49.0217 127.278C48.997 127.239 49.0385 127.301 49.0298 127.289C49.0149 127.269 49.0004 127.248 48.985 127.229C48.9568 127.193 48.9271 127.158 48.8959 127.126C48.8692 127.097 48.8411 127.071 48.8128 127.045C48.7788 127.013 48.8628 127.086 48.8186 127.05C48.8077 127.041 48.7968 127.032 48.7857 127.023C48.7614 127.004 48.7361 126.986 48.7099 126.97C48.6586 126.936 48.6214 126.881 48.6062 126.816C48.5911 126.752 48.5993 126.683 48.629 126.625C48.6601 126.569 48.7095 126.528 48.767 126.511C48.8246 126.494 48.8857 126.503 48.9376 126.535Z" fill="black"/>
<path class="Vector_21" d="M47.9727 127.119C48.0673 127.179 48.1549 127.251 48.2334 127.336C48.4082 127.516 48.5427 127.739 48.626 127.988C48.6838 128.165 48.713 128.352 48.7123 128.54C48.7123 128.607 48.6885 128.671 48.6462 128.719C48.6039 128.766 48.5465 128.792 48.4867 128.792C48.4268 128.792 48.3694 128.766 48.3271 128.719C48.2848 128.671 48.2611 128.607 48.2611 128.54C48.2609 128.504 48.2599 128.468 48.2575 128.433C48.2561 128.413 48.2539 128.392 48.2523 128.372C48.2499 128.344 48.2554 128.398 48.2553 128.397C48.2531 128.387 48.2515 128.376 48.2505 128.364C48.2403 128.299 48.2257 128.235 48.2069 128.172C48.2019 128.155 48.1966 128.139 48.1909 128.122C48.1886 128.115 48.1858 128.108 48.1837 128.101C48.1759 128.076 48.1945 128.129 48.1938 128.128C48.1796 128.102 48.1705 128.071 48.158 128.044C48.1338 127.992 48.1067 127.941 48.0768 127.893C48.0703 127.883 48.0635 127.872 48.0568 127.862C48.0322 127.823 48.0737 127.885 48.0649 127.873C48.05 127.853 48.0356 127.832 48.0202 127.813C47.9919 127.777 47.9622 127.742 47.931 127.709C47.9042 127.681 47.8763 127.655 47.8479 127.628C47.814 127.597 47.898 127.67 47.8537 127.633C47.8428 127.625 47.8319 127.616 47.8209 127.607C47.7965 127.588 47.7712 127.57 47.745 127.554C47.6937 127.52 47.6565 127.464 47.6414 127.4C47.6262 127.335 47.6344 127.267 47.6641 127.209C47.6952 127.152 47.7447 127.111 47.8022 127.095C47.8597 127.078 47.9208 127.086 47.9728 127.119H47.9727Z" fill="black"/>
<path class="Vector_22" d="M46.8598 127.369C46.9544 127.429 47.042 127.502 47.1205 127.586C47.2953 127.766 47.4298 127.99 47.5132 128.239C47.5709 128.415 47.6001 128.602 47.5994 128.791C47.5994 128.857 47.5756 128.922 47.5333 128.969C47.491 129.016 47.4336 129.043 47.3738 129.043C47.3139 129.043 47.2566 129.016 47.2142 128.969C47.1719 128.922 47.1482 128.857 47.1482 128.791C47.148 128.755 47.147 128.719 47.1446 128.683C47.1433 128.663 47.1411 128.643 47.1394 128.623C47.137 128.594 47.1425 128.648 47.1424 128.648C47.1402 128.637 47.1386 128.626 47.1376 128.615C47.1274 128.55 47.1128 128.485 47.094 128.422C47.089 128.406 47.0837 128.389 47.0781 128.373C47.0757 128.366 47.0729 128.359 47.0708 128.352C47.063 128.326 47.0816 128.379 47.0809 128.378C47.0667 128.352 47.0577 128.321 47.0451 128.294C47.0209 128.242 46.9938 128.192 46.9639 128.143C46.9574 128.133 46.9506 128.123 46.9439 128.112C46.9193 128.073 46.9608 128.135 46.9521 128.123C46.9371 128.103 46.9227 128.083 46.9073 128.063C46.879 128.027 46.8493 127.993 46.8181 127.96C46.7914 127.932 46.7634 127.905 46.735 127.879C46.7011 127.848 46.7851 127.92 46.7408 127.884C46.7299 127.875 46.7191 127.866 46.708 127.857C46.6836 127.838 46.6583 127.82 46.6322 127.804C46.5809 127.77 46.5436 127.715 46.5285 127.65C46.5133 127.586 46.5215 127.517 46.5512 127.459C46.5823 127.403 46.6318 127.362 46.6893 127.345C46.7468 127.328 46.8079 127.337 46.8599 127.369H46.8598Z" fill="black"/>
<path class="Vector_23" d="M38.3216 58.119C37.9239 57.2323 37.4862 56.3687 37.0101 55.5315L33.7639 57.5023L32.8403 58.0631L24.9836 42.03L19.3925 45.6177L26.0116 62.2898C27.6706 65.6405 31.3389 67.0783 34.5707 65.847L36.6122 64.8875L39.9946 62.8685C39.5791 61.2273 39.0187 59.6364 38.3216 58.119Z" fill="#A8542A"/>
<path class="Vector_24" d="M38.127 58.246C37.7287 57.3596 37.291 56.496 36.8154 55.6585L37.1241 55.7489L33.877 57.7203L32.9543 58.2805C32.9024 58.3132 32.8412 58.322 32.7835 58.3052C32.7259 58.2883 32.6764 58.247 32.6456 58.19L31.8656 56.5983L29.9853 52.7612L27.7173 48.1328L25.7518 44.1219L25.11 42.8122C25.009 42.6061 24.8851 42.3998 24.802 42.1836C24.7985 42.1745 24.7933 42.1658 24.789 42.1571L25.0977 42.2475L23.204 43.4626L20.1997 45.3904L19.5066 45.8351L19.5875 45.4903L20.0499 46.655L21.2138 49.5866L22.7444 53.4418L24.3068 57.3774L25.5664 60.5499C25.7736 61.0718 25.9748 61.5972 26.1882 62.116C26.4516 62.7016 26.7993 63.2349 27.2173 63.6948C27.8499 64.4256 28.6075 65.007 29.4452 65.4045C30.2712 65.7953 31.1562 66.007 32.053 66.0285C32.897 66.0649 33.7392 65.9171 34.5326 65.5935C35.0204 65.3792 35.5001 65.1388 35.9832 64.9118C36.1676 64.8251 36.3519 64.7385 36.5363 64.6518C36.5767 64.6329 36.456 64.698 36.5339 64.6485C36.5861 64.6154 36.6401 64.5852 36.693 64.5536L39.6327 62.7988L39.8809 62.6506L39.7772 62.9352C39.3697 61.3142 38.8168 59.7431 38.127 58.246C37.9971 57.9569 38.3862 57.7013 38.5166 57.9916C39.225 59.5271 39.7931 61.1385 40.2123 62.8012C40.2249 62.8548 40.2216 62.9115 40.2029 62.9628C40.1842 63.0141 40.1511 63.0573 40.1086 63.0858L37.4848 64.652C37.211 64.8155 36.9399 65.0043 36.6534 65.1391C36.165 65.3689 35.6765 65.5984 35.1879 65.8278C35.0062 65.9132 34.8258 66.0045 34.642 66.0844C34.2622 66.2394 33.8691 66.3505 33.4689 66.416C32.5365 66.5892 31.5834 66.5679 30.6579 66.3532C28.81 65.9267 27.1829 64.7143 26.1206 62.9723C25.8532 62.4917 25.6245 61.9856 25.4371 61.4599L24.3126 58.6276L22.7891 54.7903L21.206 50.8025L19.9014 47.5167L19.2283 45.8213L19.1979 45.7448C19.1692 45.6867 19.1616 45.6185 19.1767 45.5543C19.1917 45.4901 19.2283 45.4349 19.2789 45.4L21.1725 44.1849L24.1769 42.2571L24.87 41.8124C24.9218 41.7796 24.9831 41.7706 25.0408 41.7875C25.0984 41.8044 25.1479 41.8458 25.1787 41.9028L25.9586 43.4945L27.8389 47.3317L30.1069 51.96L32.0724 55.9709L32.7142 57.2806C32.8152 57.4867 32.9392 57.693 33.0222 57.9092C33.0257 57.9183 33.0309 57.927 33.0352 57.9357L32.7265 57.8453L36.2646 55.6973L36.8963 55.3138C36.9483 55.2815 37.0094 55.2729 37.0669 55.2897C37.1244 55.3066 37.1739 55.3476 37.205 55.4042C37.6805 56.2417 38.1183 57.1052 38.5165 57.9916C38.647 58.2805 38.2579 58.536 38.127 58.246Z" fill="black"/>
<g class="finger">
<path class="Vector_25" d="M20.941 38.254C21.003 36.7922 20.6932 35.8873 20.6932 35.8873C20.1013 33.9355 19.259 33.8894 17.7358 33.9279C16.2126 33.9665 15.8149 32.1219 17.1209 32.1665C17.1209 32.1665 21.1272 30.8597 22.6458 34.1359C22.7959 34.4525 22.9261 34.7172 23.0383 34.9382C23.4839 35.8165 23.8024 36.7679 23.9823 37.7572L24.1552 38.7061" fill="#FC7272"/>
<path class="Vector_26" d="M20.7154 38.2543C20.7453 37.4874 20.7019 36.6875 20.4762 35.956C20.2576 35.248 19.9253 34.5307 19.2692 34.3033C18.9568 34.208 18.6335 34.1643 18.3098 34.1737C17.9004 34.1686 17.4815 34.2242 17.0849 34.0803C16.5372 33.8817 15.9433 33.2531 16.1438 32.5452C16.1922 32.3919 16.2764 32.2558 16.3875 32.1509C16.4987 32.046 16.6328 31.9761 16.7762 31.9484C16.8673 31.9221 16.9613 31.9106 17.0554 31.9142C17.0704 31.9159 17.0775 31.9174 17.08 31.9188C17.1069 31.9127 17.134 31.9019 17.1604 31.8945C17.5439 31.7902 17.9342 31.7204 18.3277 31.6859C19.6432 31.5619 21.0623 31.8295 22.0628 32.8596C22.3563 33.165 22.6037 33.5213 22.7955 33.9147C23.0583 34.4494 23.3373 34.981 23.5651 35.5355L23.05 35.5L22.8032 34.9858C22.5817 34.5458 22.3944 34.0744 22.1189 33.6717C21.3101 32.4898 19.9649 32.1192 18.697 32.1656C18.2743 32.177 17.8537 32.2349 17.4412 32.3386C17.3569 32.3591 17.2738 32.3871 17.1896 32.407C17.0981 32.4287 16.9917 32.4147 16.9094 32.4314C16.855 32.4427 16.8018 32.4605 16.7508 32.4843C16.7053 32.5035 16.6651 32.5357 16.6344 32.5778C16.6142 32.6064 16.5964 32.637 16.5812 32.6693C16.5687 32.7057 16.5615 32.7441 16.5598 32.7831C16.5564 32.882 16.5762 32.9801 16.6173 33.0677C16.7472 33.3273 16.964 33.5187 17.2201 33.5997C17.5818 33.726 17.9702 33.664 18.3433 33.6702C18.6828 33.665 19.0215 33.7102 19.3504 33.8044C20.6592 34.2267 21.0768 35.9998 21.1589 37.3434C21.1767 37.6466 21.1792 37.9508 21.1666 38.2543C21.154 38.5774 20.7027 38.5792 20.7154 38.2543Z" fill="black"/>
</g>
<path class="Vector_27" d="M26.2273 44.5887L25.597 43.3089C25.1679 42.4373 24.8277 41.5148 24.5825 40.5586C24.3915 39.8144 24.1667 38.8383 23.9526 37.6639C23.4277 34.7849 22.4898 35.4701 18.2151 38.0456C19.7433 39.5379 19.7062 40.3181 19.7062 40.3181L19.8303 45.5429L21.2635 49.2269" fill="#FC7272"/>
<path class="Vector_28" d="M25.0291 42.6118C25.3276 43.3323 25.6901 44.0207 26.0325 44.716C26.1727 45.0006 26.5622 44.746 26.4221 44.4616C25.9731 43.5499 25.4993 42.6492 25.159 41.6778C24.6646 40.2663 24.425 38.7782 24.1139 37.3097L23.9 36.5L23.55 35.5H23.05L23.0979 35.6009L23.5044 36.7891C23.6447 37.2568 23.7527 37.7359 23.8274 38.222C24.117 39.7183 24.4517 41.2177 25.0291 42.6118Z" fill="black"/>
<path class="Vector_29" d="M23.3574 48.3476L20.6236 48.3691C20.6236 48.3691 19.2402 45.6598 18.3889 43.9324C18.1194 43.3826 18.0201 42.7488 18.1063 42.1295C18.2192 41.353 18.1383 40.5568 17.8725 39.8283C17.8725 39.8283 16.4187 41.3171 15.3655 39.6465C15.3569 39.6305 15.3483 39.6147 15.3398 39.599C14.8534 38.6995 14.4363 37.2103 15.5398 36.898L15.7074 36.6113C15.8491 36.368 16.043 36.1681 16.2714 36.0295C16.4998 35.891 16.7556 35.8184 17.0154 35.8181H17.6578L17.7444 35.6343C18.0312 35.0255 18.5945 34.8027 19.2066 34.8436C20.012 33.869 21.3089 34.5387 21.797 35.5547" fill="#FC7272"/>
<path class="Vector_30" d="M23.3575 48.5995L20.9677 48.6183L20.6237 48.621C20.5843 48.621 20.5457 48.6095 20.5115 48.5876C20.4773 48.5657 20.4489 48.5342 20.4289 48.4962C20.0125 47.6807 19.5983 46.8637 19.1862 46.0454C18.8654 45.4087 18.5466 44.7708 18.2298 44.1316C18.0321 43.7407 17.9078 43.309 17.8647 42.8627C17.8241 42.4204 17.9171 41.9927 17.9259 41.5522C17.9348 41.1547 17.8932 40.7578 17.8022 40.3733C17.7753 40.2603 17.7442 40.1483 17.7076 40.0387C17.702 40.0217 17.6959 40.0049 17.6902 39.988C17.668 39.9216 17.6962 39.9781 17.6906 39.9875C17.6924 39.9846 17.6799 39.9604 17.6778 39.9554L18.0321 40.0064C17.5563 40.491 16.8477 40.8169 16.2049 40.6418C15.6498 40.4906 15.2536 39.9878 15.0028 39.4403C14.7902 38.9764 14.6149 38.4524 14.6154 37.9245C14.6052 37.6337 14.6859 37.3479 14.8437 37.1163C15.0014 36.8847 15.2264 36.7215 15.48 36.6549L15.3452 36.7707C15.4488 36.5776 15.5655 36.3937 15.6943 36.2204C15.9186 35.9446 16.2074 35.7443 16.5282 35.6419C16.8894 35.5261 17.2861 35.566 17.6579 35.566L17.4631 35.6908C17.5963 35.3642 17.8061 35.0838 18.0702 34.8795C18.4136 34.6553 18.8104 34.5547 19.2068 34.5915L19.0472 34.6653C19.9617 33.5894 21.4278 34.2809 21.992 35.4275C22.132 35.7119 21.7425 35.9665 21.6024 35.6819C21.2633 34.9928 20.4363 34.3485 19.7186 34.7256C19.6355 34.7691 19.5578 34.8246 19.4875 34.8907C19.3766 34.9954 19.3216 35.0912 19.1641 35.0931C18.9532 35.0848 18.7425 35.1151 18.5404 35.1828C18.1951 35.3138 18.0146 35.6015 17.8527 35.9452C17.8329 35.9833 17.8045 36.0148 17.7703 36.0367C17.7361 36.0587 17.6973 36.0701 17.6579 36.07C17.1889 36.07 16.7098 36.0126 16.2944 36.3071C16.0471 36.4824 15.9106 36.7374 15.7502 36.9986C15.6611 37.1438 15.5238 37.1476 15.3946 37.2254C15.2948 37.2826 15.2118 37.3707 15.1556 37.4791C14.9102 37.9631 15.1697 38.6906 15.3771 39.1525C15.6449 39.7487 16.0975 40.278 16.7408 40.1752C16.9917 40.1295 17.2311 40.0251 17.4433 39.8687C17.4867 39.8386 17.5294 39.8071 17.5713 39.7742C17.588 39.7611 17.6043 39.7475 17.6209 39.7343C17.6661 39.6985 17.6158 39.74 17.6339 39.7237C17.6607 39.6998 17.6877 39.6759 17.7131 39.65C17.7377 39.6233 17.7674 39.603 17.8 39.5909C17.8326 39.5787 17.8672 39.5749 17.9013 39.5799C17.9353 39.5848 17.968 39.5982 17.9968 39.6192C18.0255 39.6402 18.0497 39.6682 18.0674 39.701C18.2336 40.124 18.333 40.576 18.361 41.0369C18.3981 41.4856 18.3385 41.9098 18.3092 42.3554C18.2789 42.7815 18.3421 43.2094 18.4932 43.6021C18.6235 43.9346 18.8034 44.2494 18.9615 44.5664C19.1245 44.8932 19.2881 45.2197 19.4523 45.5459C19.7477 46.1331 20.0443 46.7195 20.3419 47.3053C20.5005 47.6177 20.6594 47.9299 20.8185 48.2419L20.6237 48.1171L23.0136 48.0983L23.3576 48.0956C23.648 48.0933 23.6483 48.5973 23.3576 48.5996L23.3575 48.5995Z" fill="black"/>
<path class="Vector_31" d="M26.579 44.867L25.2183 42.5081L19.6403 46.1199L20.6315 48.3474" fill="white"/>
<path class="Vector_32" d="M26.3837 44.9941L25.196 42.9351L25.023 42.6353L25.3317 42.7257L23.4425 43.949L20.4452 45.8897L19.7537 46.3375L19.8347 45.9927L20.8259 48.2202C20.9547 48.5097 20.5657 48.7653 20.4363 48.4745L19.4451 46.2471C19.4161 46.189 19.4084 46.1208 19.4235 46.0565C19.4386 45.9922 19.4753 45.937 19.526 45.9023L21.4152 44.679L24.4125 42.7383L25.104 42.2906C25.1559 42.2582 25.2171 42.2495 25.2746 42.2663C25.3321 42.2832 25.3816 42.3243 25.4126 42.381L26.6004 44.44L26.7733 44.7397C26.9311 45.0132 26.5407 45.2661 26.3837 44.9941Z" fill="black"/>
<path class="Vector_33" d="M53.7525 49.7602L48.5808 49.7446C47.5974 49.7418 46.6276 50.0028 45.7532 50.5057L37.0101 55.5321L32.8359 58.0931L30.6548 51.4171C29.731 48.5867 28.1721 46.0685 26.1274 44.1038L25.8353 43.8234L20.1976 47.6518L19.4152 51.5386C19.1618 52.7969 19.3478 54.1159 19.9352 55.2262L25.622 65.965C26.6338 67.7119 28.1829 68.9849 29.9771 69.5438C31.7713 70.1028 33.6867 69.909 35.3618 68.9992L39.939 66.5099L50.8021 60.3207" fill="white"/>
<path class="Vector_34" d="M42.6918 130.792C42.4956 131.349 42.3979 131.944 42.404 132.542H57.0197L57.036 131.366H57.0441V129.313C57.0441 129.313 55.0808 128.579 52.7943 130.34C51.2264 131.001 50.7691 129.313 49.1358 129.533C47.5026 129.753 48.0484 130.362 47.0569 130.351C47.0569 130.351 45.8727 130.414 45.0888 129.606C44.3048 128.799 43.2999 129.188 42.6918 130.792Z" fill="white"/>
<path class="Vector_35" d="M42.9088 130.859C42.7142 131.393 42.619 131.966 42.6291 132.542L42.4035 132.29H56.4225C56.6132 132.279 56.8041 132.279 56.9948 132.29C57.0029 132.291 57.0111 132.291 57.0192 132.29L56.7936 132.542L56.8099 131.366C56.8108 131.299 56.8348 131.236 56.8769 131.189C56.9191 131.142 56.9759 131.115 57.0355 131.114H57.0436L56.818 131.366V129.313L56.9836 129.556C56.7869 129.487 56.5834 129.446 56.3777 129.432C55.8244 129.381 55.2673 129.437 54.7313 129.599C54.3757 129.704 54.0306 129.85 53.7013 130.033C53.3258 130.242 52.992 130.567 52.5816 130.678C52.0127 130.833 51.4885 130.68 50.9817 130.383C50.5302 130.118 50.0935 129.808 49.5703 129.77C49.2231 129.753 48.8758 129.801 48.5432 129.914C48.4405 129.944 48.3409 129.986 48.2458 130.038C48.2065 130.061 48.1682 130.086 48.1308 130.112C48.1118 130.126 48.0159 130.205 48.0543 130.171C47.9508 130.277 47.8391 130.372 47.7204 130.456C47.5338 130.558 47.328 130.608 47.1203 130.603C46.7148 130.614 46.3104 130.551 45.9234 130.415C45.5563 130.284 45.2176 130.069 44.9288 129.784C44.7425 129.581 44.4951 129.462 44.2346 129.451C43.5563 129.458 43.122 130.307 42.8861 130.919C42.8557 130.977 42.8062 131.018 42.7484 131.035C42.6906 131.052 42.6292 131.043 42.5775 131.01C42.527 130.975 42.4904 130.919 42.4754 130.855C42.4603 130.791 42.4679 130.723 42.4965 130.665C42.7577 129.987 43.1697 129.287 43.8201 129.028C44.0734 128.929 44.3482 128.92 44.6059 129.005C44.9047 129.103 45.1103 129.314 45.3478 129.525C45.781 129.91 46.363 130.078 46.9075 130.098C46.9551 130.1 47.0026 130.1 47.0504 130.099C47.0887 130.099 47.127 130.099 47.1653 130.098C47.2185 130.095 47.2774 130.09 47.2979 130.086C47.3388 130.078 47.3791 130.068 47.4189 130.055C47.4363 130.049 47.4536 130.042 47.4705 130.035C47.429 130.052 47.4685 130.036 47.4855 130.025C47.5127 130.007 47.5391 129.989 47.5656 129.97C47.5725 129.965 47.6118 129.932 47.5856 129.954C47.5598 129.977 47.6031 129.938 47.6104 129.931C47.7375 129.802 47.878 129.69 48.0288 129.597C48.6312 129.301 49.2974 129.206 49.947 129.324C50.2182 129.396 50.4798 129.508 50.725 129.656C51.1631 129.908 51.5902 130.245 52.1027 130.243C52.2432 130.241 52.3829 130.218 52.5181 130.176C52.7105 130.096 52.8922 129.987 53.0578 129.852C53.4239 129.608 53.8112 129.406 54.2137 129.249C54.8138 129.013 55.4466 128.898 56.0826 128.91C56.4128 128.91 56.7415 128.959 57.0602 129.055C57.0746 129.06 57.0892 129.064 57.1035 129.07C57.1506 129.085 57.192 129.117 57.2218 129.161C57.2515 129.205 57.2681 129.258 57.2692 129.313V131.366C57.2683 131.432 57.2443 131.496 57.2022 131.543C57.16 131.59 57.1031 131.617 57.0436 131.618H57.0354L57.2611 131.366L57.2448 132.543C57.2439 132.609 57.2198 132.673 57.1777 132.72C57.1356 132.767 57.0788 132.794 57.0192 132.795H44.2081C43.6163 132.795 43.0195 132.82 42.428 132.795C42.4199 132.794 42.4117 132.795 42.4035 132.795C42.3441 132.793 42.2874 132.766 42.2453 132.719C42.2033 132.672 42.1791 132.609 42.1779 132.543C42.1657 131.921 42.2663 131.302 42.4737 130.725C42.5748 130.424 43.0111 130.554 42.9088 130.859Z" fill="black"/>
<path class="Vector_36" d="M18.0155 40.291C18.0155 40.291 17.5336 38.5331 16.8522 38.2547L18.0155 40.291Z" fill="#FC7272"/>
<path class="Vector_37" d="M17.7977 40.3578C17.7432 40.1593 17.6756 39.9647 17.6042 39.7732C17.6197 39.8147 17.606 39.7781 17.5985 39.7588C17.5911 39.7394 17.5836 39.7205 17.5761 39.7014C17.5578 39.6554 17.5391 39.6097 17.52 39.5641C17.4814 39.4725 17.4406 39.3821 17.3976 39.2928C17.3539 39.2024 17.3077 39.1135 17.258 39.027C17.2345 38.986 17.2101 38.9456 17.185 38.9058C17.1735 38.8878 17.1619 38.8699 17.1501 38.8522C17.1463 38.8465 17.1209 38.8101 17.1381 38.8343C17.1537 38.8565 17.1283 38.8212 17.1256 38.8175C17.0671 38.7386 17.0033 38.6649 16.9348 38.597C16.8962 38.559 16.9504 38.6059 16.92 38.5832C16.9017 38.5695 16.884 38.555 16.8652 38.542C16.847 38.5294 16.8282 38.5182 16.8093 38.5068C16.8024 38.5027 16.7951 38.4993 16.7881 38.4953C16.761 38.48 16.8399 38.5178 16.792 38.4974C16.7352 38.4781 16.6872 38.4352 16.6579 38.3775C16.6286 38.3199 16.6202 38.2518 16.6344 38.1875C16.6507 38.1233 16.6889 38.0688 16.7409 38.0359C16.7928 38.003 16.8543 37.9942 16.9119 38.0115C17.2806 38.168 17.5294 38.54 17.7221 38.9087C17.897 39.2525 18.0437 39.6131 18.1605 39.9863C18.1859 40.0649 18.2108 40.1439 18.2328 40.2238C18.3182 40.5346 17.8828 40.6674 17.7977 40.3578Z" fill="black"/>
<path class="Vector_38" d="M36.1385 56.3541L34.2728 57.5464L31.3117 59.4388L30.6267 59.8765C30.3743 60.0379 30.1467 59.6026 30.399 59.4413L32.2646 58.249L35.2256 56.3567L35.9107 55.9189C36.1631 55.7575 36.3907 56.1928 36.1384 56.3541H36.1385Z" fill="black"/>
<g class="h5-head">
<path class="Vector_39" d="M57.7881 49.8907L57.6673 43.1664L52.5907 45.3624L52.4323 49.7771" fill="#FC7272"/>
<path class="Vector_40" d="M57.5627 49.8909L57.5217 47.6105L57.4567 43.9967L57.4418 43.1666L57.7273 43.4096L56.0126 44.1513L53.279 45.3339L52.6507 45.6057L52.8164 45.3627L52.6774 49.2326L52.6579 49.7773C52.6463 50.1006 52.195 50.1022 52.2067 49.7773L52.3456 45.9074L52.3652 45.3627C52.3667 45.308 52.3835 45.2551 52.4132 45.2116C52.4429 45.168 52.484 45.1359 52.5308 45.1197L54.2455 44.3779L56.9791 43.1953L57.6073 42.9236C57.6408 42.9137 57.6759 42.9124 57.7098 42.92C57.7438 42.9275 57.7758 42.9436 57.8033 42.967C57.8309 42.9905 57.8532 43.0206 57.8688 43.0552C57.8843 43.0898 57.8925 43.1279 57.8929 43.1666L57.9339 45.447L57.9989 49.0608L58.0138 49.8909C58.0196 50.2154 57.5684 50.2153 57.5626 49.8909H57.5627Z" fill="black"/>
<path class="Vector_41" d="M53.4344 46.258C52.9865 46.3657 52.5324 46.4381 52.0755 46.4745C51.9351 46.4862 51.7939 46.4719 51.6576 46.4323C49.7167 45.867 48.9396 43.8226 48.6884 41.6521H48.5031C47.8922 41.7488 47.6603 41.5809 47.7308 41.1497C48.2841 40.4705 48.5171 40.0918 48.5778 39.6013L48.5927 39.2835C48.6248 38.0118 48.7549 36.7455 48.9814 35.4987L58.7262 35.1068C58.7262 35.1068 59.992 37.45 59.8989 38.5292C59.7387 40.3876 58.1271 41.7185 57.682 44.1145" fill="#FC7272"/>
<path class="Vector_42" d="M53.4945 46.5003C53.1871 46.5742 52.877 46.6303 52.5649 46.6726C52.2417 46.7163 51.9182 46.7631 51.5978 46.6745C51.1373 46.5456 50.7049 46.3143 50.3262 45.9946C49.5821 45.365 49.1071 44.4488 48.8165 43.4712C48.6472 42.8785 48.5289 42.2691 48.463 41.6513L48.6886 41.9033C48.3157 41.9033 47.7623 42.0527 47.5528 41.5844C47.5078 41.4791 47.4877 41.3627 47.4943 41.2462C47.4929 41.1688 47.5072 41.0921 47.5361 41.0218C47.6 40.9223 47.6721 40.8297 47.7516 40.7454C47.9366 40.5234 48.0968 40.2771 48.2287 40.0119C48.2695 39.9232 48.3016 39.8299 48.3245 39.7335C48.3381 39.679 48.3485 39.6236 48.3558 39.5676C48.3472 39.6392 48.3568 39.5043 48.3575 39.4887C48.372 39.1823 48.3786 38.8756 48.3955 38.5694C48.4346 37.8572 48.5054 37.1472 48.6018 36.442C48.6481 36.1039 48.6978 35.765 48.764 35.431C48.7777 35.3781 48.8062 35.3316 48.8454 35.2983C48.8846 35.265 48.9323 35.2466 48.9815 35.246L52.2734 35.1136L57.5209 34.9025L58.7264 34.8541C58.7657 34.8541 58.8045 34.8656 58.8386 34.8875C58.8728 34.9094 58.9012 34.9409 58.9212 34.9789C59.0872 35.2867 59.2395 35.6047 59.3847 35.9253C59.6676 36.5111 59.8904 37.1306 60.0491 37.7721C60.1167 38.044 60.1396 38.3273 60.1169 38.6083C60.0776 38.9659 59.995 39.316 59.8713 39.6488C59.6162 40.3427 59.2421 40.9669 58.8948 41.6054C58.4553 42.4137 58.0765 43.2492 57.8997 44.1807C57.8395 44.4978 57.4044 44.3636 57.4646 44.0467C57.6347 43.2265 57.9196 42.4414 58.3089 41.7204C58.6374 41.0847 59.016 40.4795 59.3091 39.8214C59.5404 39.3019 59.7459 38.6715 59.6522 38.1027C59.5517 37.4928 59.3163 36.9093 59.0736 36.3558C58.9063 35.9744 58.7278 35.5971 58.5315 35.2332L58.7263 35.358L55.4345 35.4904L50.187 35.7014L48.9815 35.7499L49.1991 35.5649C49.0901 36.115 49.0166 36.6763 48.9561 37.2352C48.8926 37.821 48.8484 38.4096 48.827 38.9992C48.8148 39.3335 48.8263 39.6774 48.7233 39.9967C48.5574 40.5108 48.2137 40.929 47.8904 41.3271L47.9485 41.2159C47.9433 41.2549 47.9425 41.2944 47.946 41.3335C47.9452 41.3249 47.9575 41.3619 47.9626 41.3718C47.9417 41.3311 47.9869 41.3912 47.9563 41.3667C47.9686 41.3771 47.9819 41.386 47.9959 41.3932C47.9711 41.3817 48.0395 41.4078 48.0385 41.4075C48.0577 41.4131 48.0772 41.4175 48.0968 41.4208C48.2943 41.4281 48.492 41.4209 48.6886 41.3993C48.7479 41.4012 48.8042 41.4284 48.8462 41.4753C48.8881 41.5221 48.9124 41.5851 48.9142 41.6513C49.1288 43.4783 49.8014 45.5073 51.517 46.1234C51.6461 46.1759 51.7808 46.2097 51.9177 46.224C52.0803 46.2266 52.2429 46.2149 52.404 46.189C52.73 46.1501 53.054 46.0918 53.3745 46.0143C53.6577 45.9463 53.7786 46.432 53.4945 46.5003Z" fill="black"/>
<path class="Vector_43" d="M54.4809 41.7432C54.9538 41.3526 55.6583 39.8235 55.6817 38.9337C55.7169 37.5894 55.083 37.2518 54.2472 37.2241C53.4115 37.1964 52.4412 38.9397 52.4068 40.2499L52.3466 37.4089C52.3429 37.2022 52.3005 36.9987 52.2222 36.8114C52.1439 36.6242 52.0313 36.4573 51.8918 36.3215C51.7523 36.1857 51.5889 36.0841 51.4121 36.023C51.2353 35.962 51.049 35.943 50.8652 35.9673L49.0522 36.0023C48.8743 36.0047 48.6987 35.9561 48.5425 35.861C48.3862 35.7658 48.2544 35.6275 48.1598 35.4591C48.0652 35.2908 48.0109 35.0981 48.0021 34.8996C47.9933 34.701 48.0304 34.5033 48.1097 34.3253L48.2589 33.9878C48.5389 33.3526 48.9676 32.814 49.4994 32.429C50.0313 32.0439 50.6466 31.8269 51.28 31.8009L56.1719 31.6069C56.8711 31.5799 57.565 31.7518 58.1884 32.1066C58.8118 32.4614 59.3442 32.9874 59.7356 33.6351L60.9011 35.5586C60.9011 35.5586 63.363 40.1819 57.6863 45.7928C57.253 45.7706 55.088 45.5956 54.395 44.5888C53.702 43.582 54.4809 41.7432 54.4809 41.7432Z" fill="#EA2F2F"/>
<path class="Vector_44" d="M54.3672 41.5263C54.4311 41.4616 54.4911 41.3923 54.547 41.319C54.6281 41.2088 54.7025 41.0926 54.7697 40.9712C54.9297 40.6898 55.0681 40.3937 55.1835 40.0863C55.4004 39.5085 55.5541 38.8635 55.3928 38.2425C55.2693 37.7669 54.9249 37.5549 54.5041 37.4965C54.3118 37.4484 54.1106 37.4738 53.9327 37.5685C53.7078 37.714 53.5126 37.9105 53.3597 38.1453C52.9317 38.7484 52.6782 39.4826 52.6326 40.2505C52.6306 40.3158 52.6059 40.3777 52.5638 40.423C52.5217 40.4684 52.4655 40.4938 52.407 40.4938C52.3485 40.4938 52.2923 40.4684 52.2502 40.423C52.2081 40.3777 52.1835 40.3158 52.1814 40.2505L52.1449 38.5254L52.1246 37.5691C52.1362 37.2568 52.0561 36.9489 51.8965 36.6922C51.7649 36.499 51.585 36.3538 51.3795 36.2749C51.208 36.2189 51.0284 36.2003 50.8506 36.2201C50.602 36.2326 50.3519 36.2297 50.103 36.2345L49.1611 36.2527C48.8084 36.2782 48.4608 36.1489 48.1922 35.8923C48.0183 35.7147 47.8918 35.4869 47.8266 35.234C47.7614 34.9811 47.7601 34.7129 47.8228 34.4593C47.8795 34.2744 47.951 34.0955 48.0363 33.9249C48.1323 33.7032 48.2449 33.491 48.373 33.2906C48.6869 32.8063 49.0895 32.402 49.5539 32.1046C50.0184 31.8071 50.5341 31.6233 51.0669 31.5653C51.4464 31.5242 51.8326 31.5276 52.2133 31.5125L54.271 31.4309L55.9523 31.3642C56.6608 31.3175 57.3696 31.4482 58.0271 31.7467C58.8424 32.1511 59.5341 32.8131 60.0169 33.6511L61.0391 35.3372C61.3281 35.8152 61.472 36.4288 61.562 36.9887C61.809 38.5427 61.543 40.1239 60.9566 41.5473C60.4975 42.6223 59.8986 43.6156 59.1794 44.4949C58.9615 44.7684 58.7354 45.0333 58.5011 45.2897C58.3833 45.4192 58.2637 45.5466 58.1424 45.672C58.0228 45.7956 57.8593 46.0374 57.6865 46.0454C57.4139 46.0426 57.142 46.0139 56.8738 45.9596C56.0517 45.8365 55.1423 45.6355 54.4798 45.0411C53.746 44.3827 53.8089 43.237 54.0505 42.3237C54.1129 42.0817 54.1917 41.8453 54.2863 41.6167C54.4099 41.3235 54.799 41.579 54.6759 41.8711C54.6678 41.8902 54.6602 41.9097 54.6527 41.9291C54.6299 41.9871 54.6688 41.8816 54.6431 41.9546C54.6292 41.9942 54.6148 42.0337 54.6014 42.0735C54.5364 42.2647 54.4814 42.46 54.4365 42.6583C54.3273 43.1432 54.2617 43.7047 54.4403 44.1799C54.5982 44.6001 54.9715 44.8489 55.3312 45.0197C55.758 45.21 56.2032 45.3437 56.6579 45.4179C56.9983 45.4817 57.3418 45.5229 57.6865 45.5414L57.527 45.6152C58.895 44.2587 60.1524 42.6336 60.7898 40.6901C61.0041 40.0506 61.1381 39.3814 61.1891 38.7012C61.2091 38.4166 61.2121 38.1309 61.1991 37.8458C61.1931 37.7195 61.1841 37.5934 61.1721 37.4677C61.1691 37.4405 61.1661 37.4134 61.1631 37.3864C61.1611 37.3711 61.1601 37.3558 61.1581 37.3406C61.1641 37.3893 61.1591 37.3495 61.1581 37.3399C61.1501 37.2816 61.1421 37.2232 61.1331 37.1651C61.0791 36.8002 60.9925 36.4421 60.8757 36.096C60.8655 36.0664 60.8551 36.037 60.8446 36.0076C60.84 35.9948 60.8351 35.9821 60.8305 35.9693C60.822 35.9454 60.8536 36.0272 60.832 35.9733C60.8137 35.928 60.796 35.8824 60.7767 35.8375C60.7562 35.7897 60.7356 35.7409 60.7112 35.6953C60.5397 35.3757 60.335 35.0732 60.148 34.7647C59.8922 34.3425 59.6528 33.8932 59.3654 33.4959C58.7957 32.7068 58.0004 32.1602 57.113 31.9479C56.69 31.864 56.2594 31.8388 55.8309 31.8731L52.635 31.9998L51.4131 32.0483C50.8464 32.0574 50.2903 32.2212 49.7933 32.5253C49.4222 32.7605 49.095 33.0731 48.8296 33.4462C48.6285 33.749 48.4575 34.0752 48.3196 34.4193C48.2518 34.5624 48.2194 34.7231 48.2259 34.8849C48.2324 35.0467 48.2774 35.2035 48.3565 35.3393C48.4355 35.475 48.5456 35.5847 48.6753 35.6569C48.8051 35.7291 48.9497 35.7613 49.0944 35.75C49.5939 35.7419 50.0934 35.7307 50.593 35.7211C50.7947 35.705 50.9971 35.704 51.199 35.7179C51.4088 35.7458 51.6114 35.8211 51.7944 35.9391C51.9774 36.0572 52.137 36.2155 52.2635 36.4045C52.5852 36.8811 52.5728 37.4317 52.5847 37.9936L52.6244 39.8655L52.6325 40.2506H52.1813C52.2239 39.4463 52.4689 38.6717 52.8882 38.0161C53.2277 37.4737 53.7096 36.936 54.3454 36.9776C54.8863 37.0129 55.4434 37.2119 55.7108 37.7826C56.0199 38.4423 55.9314 39.2506 55.7191 39.9269C55.5871 40.349 55.416 40.7545 55.2086 41.1369C55.0518 41.4521 54.8436 41.7318 54.5949 41.9616C54.5432 41.9949 54.4818 42.0041 54.424 41.9871C54.3662 41.9702 54.3167 41.9286 54.2863 41.8712C54.2574 41.8131 54.2497 41.7448 54.2648 41.6806C54.2799 41.6163 54.3166 41.5611 54.3672 41.5263Z" fill="black"/>
<path class="Vector_45" d="M53.0661 40.3308C53.1285 40.1006 53.2037 39.875 53.2913 39.6552C53.4236 39.3139 53.5915 38.9407 53.8564 38.7037C53.9349 38.625 54.0289 38.5682 54.1308 38.5379C54.2328 38.5076 54.3398 38.5046 54.4429 38.5291C54.5003 38.5474 54.549 38.5901 54.5785 38.6481C54.6079 38.7061 54.6159 38.7747 54.6005 38.8391C54.5835 38.9028 54.5452 38.9567 54.4934 38.9895C54.4417 39.0223 54.3806 39.0315 54.323 39.0151C54.3164 39.0134 54.3085 39.0122 54.3019 39.0099C54.271 38.9987 54.3266 39.0156 54.3305 39.0137C54.3167 39.015 54.3029 39.0143 54.2893 39.0117C54.2827 39.0118 54.2754 39.013 54.2688 39.0127C54.237 39.0111 54.2953 39.0099 54.2983 39.0077C54.2821 39.014 54.2654 39.0184 54.2483 39.0207C54.2419 39.0228 54.2351 39.0262 54.2286 39.0279C54.1975 39.0363 54.2505 39.019 54.253 39.0156C54.2466 39.0244 54.2236 39.0312 54.2144 39.0368C54.2015 39.0447 54.1888 39.0533 54.1764 39.0623C54.1701 39.0669 54.164 39.0718 54.1576 39.0765C54.1289 39.0975 54.1506 39.0998 54.1663 39.0683C54.1536 39.0939 54.1134 39.1196 54.0942 39.141C54.0684 39.1699 54.044 39.2002 54.0207 39.2316C54.0157 39.2383 54.0011 39.2523 53.9999 39.2604C54.0002 39.2584 54.0334 39.2096 54.0104 39.2453C53.9998 39.2619 53.9887 39.2782 53.9782 39.2949C53.9552 39.3313 53.9332 39.3685 53.9123 39.4064C53.8289 39.5588 53.7553 39.7176 53.692 39.8816C53.6834 39.8995 53.676 39.9183 53.6702 39.9376C53.6853 39.8692 53.6751 39.9246 53.6672 39.9459C53.6529 39.985 53.6389 40.0242 53.6253 40.0636C53.6032 40.1277 53.582 40.1922 53.5618 40.2571C53.5404 40.3259 53.5195 40.395 53.5012 40.4649C53.4934 40.497 53.4802 40.527 53.462 40.5532C53.4438 40.5795 53.4211 40.6015 53.3953 40.6179C53.3695 40.6344 53.3411 40.6449 53.3116 40.6491C53.2821 40.6532 53.2521 40.6508 53.2234 40.642C53.1948 40.6331 53.1681 40.6181 53.1446 40.5977C53.1212 40.5772 53.1016 40.5518 53.087 40.5229C53.0724 40.494 53.063 40.4622 53.0595 40.4293C53.0559 40.3963 53.0582 40.3629 53.0662 40.3309L53.0661 40.3308Z" fill="black"/>
<path class="Vector_46" d="M49.3046 37.9289C49.5008 37.7875 49.7191 37.6888 49.9481 37.638C50.4535 37.5168 50.9812 37.6086 51.4298 37.8956C51.6832 38.0539 51.456 38.4894 51.202 38.3308C50.845 38.1031 50.4245 38.0334 50.0237 38.1355C49.95 38.1555 49.8773 38.1803 49.8062 38.2098C49.7891 38.2169 49.7723 38.2248 49.7551 38.2318C49.7143 38.2487 49.7785 38.2197 49.7544 38.2321C49.7294 38.245 49.7042 38.2575 49.6795 38.2711C49.6285 38.2981 49.5793 38.3292 49.5323 38.3641C49.4805 38.3972 49.4192 38.4063 49.3614 38.3894C49.3037 38.3725 49.2542 38.3309 49.2237 38.2737C49.1946 38.2157 49.1868 38.1474 49.2019 38.0831C49.217 38.0188 49.2538 37.9635 49.3046 37.9289Z" fill="black"/>
<path class="Vector_47" d="M50.0816 39.8115C49.8931 39.8115 49.7404 39.6399 49.7404 39.4282C49.7404 39.2164 49.8931 39.0448 50.0816 39.0448C50.2701 39.0448 50.4228 39.2164 50.4228 39.4282C50.4228 39.6399 50.2701 39.8115 50.0816 39.8115Z" fill="black"/>
<path class="Vector_48" d="M50.5353 39.4224C50.5355 39.527 50.5072 39.6293 50.4542 39.7155C50.4012 39.8018 50.3261 39.8681 50.2386 39.9057C50.1524 39.9414 50.0585 39.9469 49.9694 39.9215C49.8803 39.8961 49.8003 39.841 49.7399 39.7635C49.6913 39.7021 49.6568 39.6284 49.6392 39.5488C49.6216 39.4692 49.6216 39.386 49.639 39.3064C49.6565 39.2268 49.691 39.153 49.7395 39.0915C49.788 39.03 49.8492 38.9825 49.9177 38.9531C49.9862 38.9237 50.0601 38.9133 50.133 38.9227C50.2059 38.9322 50.2757 38.9612 50.3364 39.0073C50.3971 39.0534 50.4469 39.1153 50.4815 39.1876C50.5162 39.2598 50.5346 39.3404 50.5353 39.4224C50.5351 39.4557 50.5231 39.4876 50.502 39.5112C50.4809 39.5348 50.4524 39.5481 50.4225 39.5484C50.3928 39.5478 50.3644 39.5343 50.3434 39.5108C50.3224 39.4873 50.3103 39.4556 50.3097 39.4224C50.3094 39.4118 50.3083 39.4011 50.3081 39.3905C50.3086 39.4152 50.3097 39.3999 50.3083 39.3928C50.3049 39.3759 50.3018 39.3592 50.297 39.3428C50.2956 39.3378 50.2839 39.3069 50.2953 39.335C50.2928 39.3289 50.2903 39.3228 50.2875 39.3169C50.2792 39.2991 50.2698 39.282 50.2593 39.2657C50.2731 39.2877 50.2619 39.2692 50.2574 39.264C50.2523 39.258 50.2475 39.2517 50.2422 39.2458C50.2366 39.2396 50.2025 39.2095 50.2245 39.2268C50.2124 39.2171 50.1998 39.2082 50.1868 39.2001C50.1815 39.1969 50.1761 39.1941 50.1708 39.191C50.1519 39.1798 50.1875 39.1952 50.1602 39.1866C50.1454 39.182 50.1311 39.1769 50.1161 39.1736C50.1091 39.1721 50.089 39.1713 50.1139 39.1729C50.106 39.1724 50.0982 39.1716 50.0903 39.1714C50.0825 39.1711 50.0745 39.1712 50.0665 39.1716C50.0661 39.1716 50.0352 39.1741 50.0533 39.1721C50.0711 39.1702 50.0416 39.1747 50.0408 39.1749C50.0318 39.1771 50.0229 39.1796 50.0141 39.1825C50.0053 39.1854 49.9968 39.1889 49.9883 39.1924C49.9922 39.1908 50.0087 39.1811 49.9904 39.1918C49.9771 39.1996 49.964 39.2074 49.9514 39.2165C49.951 39.2169 49.9277 39.2363 49.9412 39.2242C49.9546 39.2122 49.9324 39.2332 49.9321 39.2335C49.919 39.247 49.9068 39.2616 49.8955 39.277C49.9103 39.2571 49.8999 39.2706 49.8972 39.2755C49.8926 39.2841 49.8874 39.2923 49.883 39.301C49.88 39.3068 49.8772 39.3126 49.8744 39.3186C49.8721 39.3238 49.8625 39.354 49.8712 39.3255C49.8661 39.3415 49.8616 39.3578 49.8579 39.3743C49.8565 39.381 49.8554 39.3878 49.8542 39.3945C49.8498 39.4194 49.8551 39.3744 49.8535 39.4079C49.8527 39.424 49.8538 39.4399 49.8538 39.456C49.854 39.4899 49.8484 39.4313 49.8545 39.4642C49.8557 39.471 49.8568 39.4778 49.8583 39.4845C49.862 39.5011 49.8665 39.5174 49.8718 39.5334C49.8627 39.5049 49.873 39.5352 49.8752 39.5402C49.8793 39.5492 49.8837 39.5579 49.8884 39.5665C49.8929 39.5732 49.897 39.5802 49.9008 39.5873C49.9076 39.6034 49.8839 39.5675 49.9023 39.5894C49.9126 39.6015 49.9223 39.6138 49.9334 39.625C49.9338 39.6254 49.9563 39.6458 49.9426 39.6341C49.9288 39.6225 49.9525 39.6414 49.9529 39.6417C49.968 39.6526 49.9837 39.6622 50.0001 39.6704C49.996 39.6684 49.9786 39.6621 49.9983 39.6689C50.007 39.6719 50.0155 39.6753 50.0243 39.6779C50.0302 39.6796 50.0362 39.6812 50.0422 39.6826C50.0432 39.6828 50.0724 39.6867 50.0546 39.6852C50.0363 39.6837 50.0673 39.6856 50.0677 39.6856C50.0756 39.686 50.0835 39.686 50.0915 39.6857C50.0994 39.6855 50.1072 39.6847 50.1151 39.6841C50.0883 39.6861 50.1155 39.6837 50.122 39.6822C50.1398 39.6778 50.1574 39.6719 50.1745 39.6647C50.1516 39.6741 50.1706 39.6667 50.1764 39.6631C50.1855 39.6574 50.1949 39.6522 50.2038 39.646C50.2088 39.6424 50.2137 39.6385 50.2187 39.635C50.2289 39.6267 50.2284 39.6273 50.2172 39.6366C50.2218 39.6324 50.2263 39.6281 50.2307 39.6237C50.2417 39.6124 50.2515 39.6001 50.2616 39.5879C50.2809 39.5643 50.2508 39.6091 50.2655 39.5817C50.2702 39.5731 50.2753 39.5649 50.2798 39.5562C50.2843 39.5475 50.2881 39.5385 50.2923 39.5295C50.303 39.5064 50.2878 39.5496 50.2946 39.5222C50.2996 39.5022 50.3047 39.483 50.3085 39.4627C50.3099 39.4551 50.3083 39.4409 50.3083 39.4651C50.3083 39.451 50.3098 39.4368 50.3097 39.4226C50.3096 39.406 50.3124 39.3894 50.318 39.374C50.3236 39.3586 50.3319 39.3445 50.3424 39.3327C50.3528 39.3209 50.3653 39.3115 50.3791 39.3051C50.3929 39.2986 50.4076 39.2953 50.4225 39.2953C50.4374 39.2953 50.4522 39.2986 50.466 39.3051C50.4797 39.3115 50.4922 39.3209 50.5027 39.3327C50.5132 39.3445 50.5215 39.3586 50.5271 39.374C50.5327 39.3894 50.5355 39.406 50.5353 39.4226V39.4224Z" fill="black"/>
<path class="Vector_49" d="M56.1552 31.6031L47.2763 31.7752C47.2763 31.7752 45.235 36.3148 50.8894 37.0225C51.477 37.0955 52.0717 37.0128 52.6254 36.7809C53.179 36.549 53.6759 36.1746 54.0756 35.688L54.5356 35.1292" fill="#EA2F2F"/>
<path class="Vector_50" d="M56.1556 31.8544L53.141 31.9128L48.3728 32.0051L47.2767 32.0264L47.4715 31.9016C47.4637 31.919 47.4554 31.9368 47.449 31.955C47.4418 31.9755 47.4333 31.9959 47.4251 32.016C47.4188 32.0314 47.4511 31.9428 47.432 31.998C47.4264 32.0142 47.4203 32.0301 47.4146 32.0462C47.3527 32.2216 47.3006 32.4011 47.2586 32.5837C47.2313 32.7018 47.2082 32.8209 47.1894 32.9412C47.1849 32.9698 47.181 32.9984 47.1768 33.0271C47.1743 33.0446 47.1722 33.0621 47.17 33.0796C47.1792 33.0077 47.171 33.0698 47.1696 33.0837C47.1626 33.154 47.1559 33.2241 47.1515 33.2947C47.1424 33.4394 47.1411 33.5846 47.1475 33.7296C47.1509 33.8033 47.157 33.8766 47.1642 33.95C47.1706 34.016 47.1591 33.9124 47.1644 33.9538C47.1666 33.9708 47.1687 33.9877 47.1712 34.0046C47.1779 34.0489 47.1847 34.0931 47.1927 34.1372C47.2429 34.4498 47.3493 34.7477 47.5055 35.0131C47.6896 35.3247 47.9256 35.5939 48.2006 35.8062C48.581 36.0912 48.9991 36.3078 49.4396 36.4482C50.0436 36.6636 50.6722 36.7806 51.3062 36.7958C52.0635 36.7932 52.8005 36.5216 53.4106 36.0203C53.7767 35.7207 54.0708 35.3216 54.3765 34.9502C54.5735 34.711 54.8919 35.0681 54.6955 35.3066C54.429 35.658 54.1396 35.987 53.8297 36.2908C53.2664 36.8041 52.5888 37.1368 51.8693 37.253C51.1658 37.3626 50.4472 37.2427 49.7598 37.0646C49.2336 36.937 48.7264 36.7259 48.2537 36.4377C47.5906 36.0187 47.0542 35.379 46.8237 34.558C46.6647 33.9392 46.6495 33.2854 46.7797 32.6582C46.8414 32.3082 46.9429 31.9684 47.0818 31.6472C47.1016 31.6091 47.13 31.5775 47.1642 31.5556C47.1984 31.5337 47.2372 31.5223 47.2766 31.5224L50.2912 31.464L55.0594 31.3716L56.1556 31.3504C56.446 31.3448 56.4461 31.8488 56.1556 31.8544V31.8544Z" fill="black"/>
<path class="Vector_51" d="M55.0644 41.3837C54.8711 41.7324 54.5895 42.0093 54.2553 42.1791C53.921 42.3489 53.5492 42.4041 53.1868 42.3376C53.1293 42.3195 53.0805 42.2768 53.051 42.2188C53.0215 42.1607 53.0137 42.092 53.0292 42.0276C53.0465 41.9642 53.0849 41.9105 53.1366 41.8778C53.1882 41.8451 53.2491 41.8357 53.3067 41.8517C53.278 41.8473 53.3593 41.8567 53.3681 41.8574C53.3993 41.86 53.4305 41.8615 53.4618 41.8621C53.5214 41.8633 53.581 41.8607 53.6404 41.8544C53.6547 41.8528 53.6689 41.8511 53.6832 41.8492C53.6583 41.8529 53.6592 41.8525 53.686 41.848C53.713 41.8422 53.7401 41.8372 53.7671 41.8306C53.8125 41.8193 53.8574 41.8058 53.9017 41.79C53.9262 41.7813 53.9505 41.7719 53.9746 41.7618C53.9864 41.7568 53.9982 41.7517 54.0099 41.7465C53.9849 41.7586 53.9841 41.7589 54.0076 41.7475C54.0513 41.725 54.0945 41.7017 54.1367 41.6756C54.1766 41.6509 54.2157 41.6244 54.2537 41.5961C54.272 41.5825 54.2899 41.5686 54.3077 41.5543C54.3128 41.5503 54.3644 41.5066 54.3357 41.5315C54.3071 41.5564 54.3561 41.5128 54.3609 41.5083C54.376 41.4943 54.391 41.48 54.4057 41.4654C54.4333 41.4382 54.4601 41.4101 54.4862 41.3812C54.5286 41.3341 54.5689 41.2849 54.6072 41.2335C54.6142 41.224 54.6211 41.2143 54.6281 41.2048C54.6612 41.1602 54.5991 41.2497 54.6186 41.2189C54.6288 41.2028 54.6397 41.1873 54.6498 41.1712C54.6584 41.1575 54.6669 41.1436 54.6748 41.1294C54.6897 41.1008 54.7096 41.0758 54.7332 41.0558C54.7568 41.0358 54.7837 41.0212 54.8123 41.0128C54.841 41.0044 54.8709 41.0024 54.9002 41.0069C54.9296 41.0114 54.9578 41.0223 54.9834 41.039C55.009 41.0557 55.0314 41.0778 55.0493 41.1042C55.0672 41.1306 55.0803 41.1606 55.0878 41.1926C55.0953 41.2246 55.0971 41.258 55.0931 41.2908C55.0891 41.3236 55.0793 41.3552 55.0644 41.3837Z" fill="black"/>
<path class="Vector_52" d="M50.1827 42.7162C50.009 43.0414 49.7307 43.2802 49.4046 43.3838C49.2414 43.4278 49.0715 43.4308 48.9071 43.3926C48.8496 43.3745 48.8008 43.3318 48.7713 43.2738C48.7418 43.2158 48.734 43.1471 48.7496 43.0826C48.7668 43.0191 48.8052 42.9654 48.8568 42.9326C48.9085 42.8999 48.9695 42.8906 49.0271 42.9066C49.0367 42.9088 49.0464 42.9108 49.0561 42.9126C49.081 42.9169 49.0753 42.9161 49.039 42.9104C49.0577 42.91 49.0764 42.9118 49.0948 42.9158C49.1304 42.918 49.1662 42.9176 49.2018 42.9147C49.2236 42.9129 49.2729 42.8946 49.2055 42.9157C49.2213 42.9107 49.2386 42.9095 49.2547 42.9057C49.2864 42.8981 49.3176 42.8885 49.3483 42.8769C49.3633 42.8713 49.3779 42.8649 49.3927 42.8588C49.4298 42.8433 49.338 42.8868 49.392 42.8584C49.4191 42.8441 49.4457 42.8283 49.4716 42.8112C49.4965 42.7948 49.5208 42.7773 49.5445 42.7586C49.5559 42.7495 49.5669 42.7399 49.5783 42.7308C49.516 42.7805 49.5588 42.7475 49.5725 42.7347C49.6412 42.6689 49.7043 42.5962 49.761 42.5174C49.782 42.489 49.7196 42.5792 49.7444 42.5411C49.7487 42.5347 49.753 42.5282 49.7573 42.5217C49.764 42.5112 49.7707 42.5006 49.7771 42.4899C49.7826 42.4807 49.7881 42.4714 49.7931 42.4619C49.808 42.4332 49.8278 42.408 49.8514 42.3879C49.8751 42.3677 49.902 42.3529 49.9307 42.3445C49.9595 42.336 49.9894 42.3339 50.0189 42.3384C50.0483 42.3428 50.0767 42.3538 50.1023 42.3705C50.128 42.3873 50.1504 42.4095 50.1684 42.436C50.1863 42.4624 50.1994 42.4926 50.2069 42.5247C50.2143 42.5569 50.2161 42.5903 50.2119 42.6232C50.2078 42.6561 50.1979 42.6877 50.1827 42.7163V42.7162Z" fill="black"/>
<path class="Vector_53" d="M59.9538 36.2861C59.8472 35.6615 59.9163 35.0153 60.1516 34.4363C60.3869 33.8573 60.7769 33.3738 61.268 33.0523L72.39 25.8011L73.291 29.3431L71.94 30.8611L73.291 31.6707L73.921 34.0994L71.129 35.0102L74.282 36.1234L75.543 40.7786L62.264 38.7546C61.696 38.6646 61.168 38.378 60.7536 37.9353C60.3392 37.4925 60.0595 36.9157 59.9538 36.2861Z" fill="#EA2F2F"/>
<path class="Vector_54" d="M59.7365 36.3531C59.6378 35.7779 59.6753 35.1838 59.8453 34.6298C60.0154 34.0758 60.312 33.581 60.7059 33.1944C60.928 32.9935 61.166 32.8157 61.417 32.6633L63.731 31.1546L67.253 28.8584L70.567 26.6982C71.128 26.3326 71.681 25.9442 72.253 25.5991C72.261 25.5942 72.269 25.5887 72.277 25.5835C72.307 25.5646 72.34 25.5535 72.374 25.551C72.409 25.5485 72.443 25.5548 72.475 25.5693C72.507 25.5838 72.535 25.6061 72.559 25.6347C72.582 25.6632 72.599 25.6972 72.608 25.7341L73.395 28.8291L73.509 29.2761C73.519 29.3191 73.519 29.3644 73.509 29.4074C73.499 29.4504 73.479 29.4897 73.451 29.5213L72.1 31.0393L72.054 30.6435L72.704 31.0331C72.935 31.1712 73.184 31.2933 73.404 31.4522C73.44 31.4835 73.47 31.5225 73.493 31.567C73.516 31.6115 73.531 31.6606 73.537 31.7115L73.639 32.1052L73.942 33.2712L74.139 34.0325C74.154 34.0969 74.146 34.1653 74.117 34.2231C74.087 34.281 74.039 34.3238 73.982 34.3425L71.541 35.1387L71.19 35.2533V34.7673L74.282 35.8593C74.33 35.8689 74.376 35.892 74.414 35.9266C74.452 35.9611 74.481 36.0059 74.5 36.0568C74.512 36.0935 74.52 36.1322 74.53 36.1695L74.719 36.8666L75.336 39.1439L75.761 40.7116C75.816 40.9154 75.643 41.046 75.483 41.0216L73.827 40.7692L70.017 40.1884L65.75 39.538L62.724 39.0768C62.552 39.0506 62.379 39.0257 62.207 38.998C61.735 38.9182 61.286 38.7122 60.9002 38.3974C60.5141 38.0827 60.2018 37.6685 59.9897 37.1901C59.8733 36.9245 59.7882 36.6431 59.7365 36.3531C59.6806 36.0363 60.1154 35.9007 60.1716 36.2191C60.2642 36.7662 60.4983 37.2711 60.8448 37.6713C61.191 38.0715 61.635 38.3496 62.122 38.4712C62.313 38.5177 62.51 38.5399 62.703 38.5694L65.514 38.9978L69.695 39.635L73.598 40.2299L74.936 40.4339C75.146 40.4659 75.366 40.4808 75.574 40.531C75.583 40.5333 75.593 40.534 75.603 40.5355L75.325 40.8455L74.222 36.7731L74.064 36.1903L74.222 36.3663L71.467 35.3936L71.07 35.2531C71.023 35.2372 70.982 35.205 70.953 35.1612C70.924 35.1175 70.909 35.0645 70.909 35.0101C70.909 34.9557 70.924 34.9028 70.953 34.859C70.982 34.8153 71.023 34.7831 71.07 34.7671L73.51 33.971L73.862 33.8564L73.704 34.1663L73.074 31.7376L73.177 31.8882L71.826 31.0786C71.797 31.0588 71.772 31.0318 71.753 30.9997C71.734 30.9675 71.722 30.9311 71.718 30.893C71.713 30.8549 71.717 30.8162 71.728 30.7798C71.739 30.7434 71.757 30.7102 71.781 30.6828L73.132 29.1648L73.074 29.41L72.287 26.315L72.173 25.868L72.504 26.0186L71.152 26.9001L68.014 28.9458L64.479 31.2506L61.902 32.931C61.733 33.0408 61.565 33.1501 61.397 33.2604C60.944 33.552 60.5832 33.9929 60.3639 34.5227C60.1445 35.0524 60.0774 35.645 60.1716 36.2191C60.2254 36.5361 59.7906 36.6719 59.7365 36.3531Z" fill="black"/>
</g>
<path class="Vector_55" d="M50.9396 49.8908H59.9038C59.8188 49.2394 59.527 48.6438 59.0817 48.2126C58.6363 47.7815 58.0671 47.5434 57.4778 47.5419H55.6675C55.2835 47.5419 54.905 47.6431 54.5627 47.8372L50.9396 49.8908Z" fill="white"/>
<path class="Vector_56" d="M61.467 75.6172C61.714 76.8624 61.864 78.1291 61.917 79.4031C62.059 82.0436 61.878 84.7578 61.141 87.2832C60.6812 88.9003 59.9516 90.4056 58.9906 91.7194L59.0567 91.5413C59.026 93.4982 59.0108 95.4554 59.0019 97.4126C58.9924 99.5009 58.9897 101.589 58.9938 103.678C58.9965 105.59 59.003 107.501 59.0131 109.413C59.0204 110.841 59.0295 112.269 59.0404 113.697C59.0452 114.331 59.0781 114.972 59.0564 115.606C59.0561 115.614 59.0565 115.623 59.0566 115.631C59.0598 115.956 58.6086 115.956 58.6054 115.631C58.5913 114.173 58.5803 112.716 58.5723 111.258C58.5521 107.992 58.5417 104.725 58.5413 101.459C58.5419 99.6501 58.5476 97.8411 58.5582 96.0321C58.5637 95.1627 58.5712 94.2934 58.5805 93.424C58.5848 93.0286 58.5897 92.6333 58.5951 92.2379C58.5979 92.0385 58.6008 91.839 58.6039 91.6396C58.6009 91.5814 58.6083 91.5233 58.6254 91.4683C58.6426 91.4134 58.6693 91.3627 58.704 91.3193C58.7678 91.2312 58.8322 91.1438 58.8942 91.0541C60.7284 88.4036 61.416 84.9895 61.5 81.6975C61.564 79.7315 61.413 77.7642 61.05 75.8392C61.044 75.8098 61.038 75.7804 61.032 75.7511C60.9647 75.4357 61.4 75.3012 61.467 75.6171V75.6172Z" fill="black"/>
<path class="Vector_57" d="M53.7529 50.0115L49.1819 49.9977C48.9826 49.9971 48.7832 49.9957 48.5839 49.996C47.7431 49.9932 46.9114 50.19 46.1439 50.5733C45.7541 50.7706 45.3771 51.0045 44.9968 51.2231L40.0852 54.0468C39.0912 54.6183 38.0864 55.1714 37.1017 55.7629C35.7545 56.5721 34.4198 57.4083 33.0791 58.2309L32.9501 58.3101C32.9201 58.3288 32.8867 58.3397 32.8524 58.342C32.8182 58.3444 32.7838 58.3381 32.752 58.3236C32.7202 58.3092 32.6917 58.2869 32.6686 58.2585C32.6455 58.2301 32.6285 58.1962 32.6187 58.1595L31.1693 53.7233L30.4799 51.613C30.0699 50.3463 29.5335 49.1352 28.8808 48.0027C27.9983 46.4807 26.9036 45.1795 25.6761 44.0009L25.9495 44.0403L24.0378 45.3385L21.0088 47.3955L20.3118 47.8688L20.4155 47.7182L19.9942 49.8109L19.7233 51.1567C19.6502 51.4762 19.5939 51.8003 19.5547 52.1272C19.4632 53.2226 19.6946 54.3213 20.2139 55.2561L20.9543 56.6542L23.6155 61.6797L25.6923 65.6016C26.5473 67.1909 27.8564 68.4125 29.4086 69.0697C30.9608 69.7268 32.6659 69.7813 34.2492 69.2243C34.8826 69.0017 35.4691 68.6607 36.064 68.3372C37.3176 67.6554 38.5776 66.9865 39.8255 66.2915C40.6554 65.8293 41.4779 65.35 42.304 64.8794L47.1326 62.1282L50.5141 60.2016L50.6885 60.1023C50.9466 59.9552 51.1752 60.3899 50.9162 60.5375L47.6181 62.4166L42.0034 65.6155C41.1593 66.0964 40.3179 66.5827 39.466 67.046L36.7085 68.5457C35.9878 68.9376 35.2695 69.3735 34.5083 69.6596C33.0241 70.2019 31.4294 70.2416 29.925 69.7736C28.4207 69.3056 27.074 68.3509 26.0544 67.0297C25.6801 66.5167 25.3463 65.9685 25.0567 65.3912L23.7901 62.9995L20.6162 57.006L19.7807 55.4282C19.1341 54.2192 18.9301 52.7783 19.2112 51.4055C19.4121 50.4031 19.6139 49.4008 19.8165 48.3988L19.9381 47.7943C19.9456 47.6792 19.9802 47.5684 20.0384 47.473C20.1806 47.3468 20.3351 47.2391 20.499 47.1519L25.3229 43.876L25.7218 43.6052C25.7651 43.5782 25.8151 43.5674 25.8643 43.5745C25.9135 43.5816 25.9594 43.6062 25.9952 43.6446C27.0845 44.6684 28.0574 45.8375 28.8922 47.1257C29.7216 48.4368 30.3904 49.8658 30.8809 51.3748C31.404 52.9731 31.9263 54.5717 32.4478 56.1707L33.0538 58.0255L32.7224 57.8749L36.6633 55.457C37.5319 54.9242 38.4236 54.436 39.3047 53.9295L44.3751 51.0145C44.7876 50.7774 45.2001 50.5402 45.6125 50.3031C46.5889 49.7523 47.6702 49.4742 48.7639 49.4925L53.6154 49.5071L53.7529 49.5075C54.0432 49.5084 54.0437 50.0124 53.7529 50.0115Z" fill="black"/>
<g class="letter-4">
<path class="Vector_58" d="M94.7 46.6503V129.853H80.52L78.067 118.654H77.071C75.282 121.51 73.008 123.89 70.249 125.794C67.49 127.648 64.424 129.026 61.051 129.928C57.6786 130.88 54.1272 131.356 50.397 131.356C44.0096 131.356 38.542 130.304 33.9942 128.199C29.4975 126.045 26.0483 122.738 23.6466 118.278C21.245 113.819 20.0441 108.056 20.0441 100.991V46.6503H38.1332V97.6842C38.1332 104.148 39.4618 108.983 42.1189 112.19C44.8272 115.397 49.0173 117 54.6893 117C60.1569 117 64.5 115.898 67.72 113.693C70.939 111.489 73.213 108.232 74.541 103.923C75.921 99.6133 76.611 94.327 76.611 88.0637V46.6503H94.7Z" fill="#DAD4C5"/>
</g>
<g class="h5-arm">
<path class="Vector_59" d="M71.089 61.0925C70.836 62.0445 70.627 63.0102 70.462 63.9859L74.027 65.0553L75.041 65.3596L70.964 83.0795L77.222 84.7809L82.59 67.5504C83.43 63.8341 81.64 59.9598 78.537 58.3636L76.466 57.4874L72.773 56.348C72.072 57.8633 71.508 59.4526 71.089 61.0925Z" fill="#A8542A"/>
<path class="Vector_60" d="M71.306 61.1591C71.056 62.1118 70.844 63.0766 70.68 64.0525L70.522 63.7425C71.711 64.0991 72.899 64.4556 74.088 64.8122L75.101 65.1162C75.159 65.1349 75.207 65.1777 75.236 65.2356C75.266 65.2934 75.274 65.3618 75.259 65.4262L74.85 67.2013L73.878 71.4295L72.702 76.539L71.685 80.9578L71.348 82.4236C71.295 82.6512 71.259 82.8953 71.188 83.1168C71.185 83.1262 71.184 83.1364 71.181 83.146L71.024 82.836L73.14 83.4115L76.512 84.328L77.282 84.5374L77.004 84.7135L77.377 83.5181L78.315 80.5068L79.555 76.5263L80.819 72.4704L81.841 69.1878C82.012 68.6388 82.189 68.0914 82.354 67.5405C82.515 66.9353 82.588 66.3054 82.571 65.6745C82.568 64.6518 82.38 63.6403 82.019 62.7005C81.651 61.7465 81.122 60.881 80.46 60.1517C80.129 59.7869 79.768 59.4594 79.38 59.1738C79.181 59.0278 78.976 58.8929 78.765 58.769C78.665 58.7103 78.564 58.6526 78.462 58.6007C78.493 58.6167 78.451 58.5954 78.441 58.5909C77.942 58.3688 77.437 58.166 76.935 57.9537C76.683 57.8473 76.438 57.7399 76.179 57.66L72.984 56.6742L72.712 56.5906L72.967 56.4747C72.274 57.9698 71.717 59.5392 71.306 61.1591C71.224 61.4694 70.788 61.3373 70.871 61.0251C71.294 59.3635 71.866 57.7538 72.578 56.2203C72.603 56.1728 72.642 56.1358 72.688 56.1149C72.734 56.094 72.784 56.0903 72.832 56.1045L75.686 56.9847C75.972 57.0729 76.267 57.1452 76.548 57.2532C77.051 57.4469 77.546 57.6755 78.044 57.8861C78.224 57.9625 78.406 58.036 78.585 58.1153C78.97 58.2961 79.336 58.5224 79.677 58.7903C80.474 59.391 81.162 60.1527 81.708 61.0362C82.798 62.7921 83.23 64.9539 82.914 67.0609C82.811 67.6008 82.668 68.1304 82.488 68.6442L81.575 71.5722L80.338 75.5446L79.059 79.6486L78.01 83.0161L77.464 84.7683L77.439 84.8474C77.422 84.911 77.384 84.9647 77.332 84.9975C77.281 85.0303 77.22 85.0396 77.162 85.0234L75.045 84.448L71.674 83.5314L70.904 83.322C70.847 83.3034 70.798 83.2606 70.769 83.2027C70.739 83.1448 70.731 83.0764 70.746 83.012L71.155 81.2369L72.128 77.0087L73.303 71.8992L74.32 67.4804L74.658 66.0146C74.71 65.787 74.746 65.5429 74.817 65.3214C74.82 65.3121 74.822 65.3018 74.824 65.2922L74.981 65.6022L71.096 64.4367L70.402 64.2285C70.345 64.2094 70.297 64.1665 70.268 64.1088C70.239 64.0511 70.23 63.9829 70.245 63.9185C70.409 62.9427 70.621 61.9778 70.871 61.0252C70.953 60.7145 71.388 60.8468 71.306 61.1591Z" fill="black"/>
<path class="Vector_61" d="M71.622 80.2595L71.299 81.6762C71.08 82.6355 70.766 83.5644 70.363 84.4458C70.125 85.0052 69.853 85.5465 69.551 86.0662C68.175 88.5651 68.771 89.7738 73.453 91.1965C73.607 91.2397 73.761 91.2832 73.913 91.3264C74.266 91.4252 74.633 91.437 74.99 91.3608C75.348 91.2846 75.686 91.1223 75.981 90.8852C76.276 90.6481 76.521 90.342 76.7 89.9881C76.878 89.6342 76.985 89.2411 77.014 88.8362L77.348 84.2818L78.065 80.713" fill="#FC7272"/>
<path class="Vector_62" d="M71.839 80.3265C71.629 81.2483 71.441 82.1806 71.145 83.0742C70.911 83.7525 70.642 84.415 70.339 85.0584C70.126 85.5257 69.863 85.9601 69.629 86.413C69.441 86.75 69.296 87.1137 69.195 87.4943C69.154 87.6423 69.131 87.7961 69.129 87.9512C69.127 88.0266 69.129 88.1021 69.135 88.1773C69.136 88.1887 69.145 88.256 69.136 88.1905C69.138 88.2036 69.139 88.2172 69.142 88.2302C69.15 88.2761 69.158 88.3219 69.169 88.3673C69.199 88.5071 69.252 88.6391 69.327 88.7558C69.404 88.8858 69.495 89.0043 69.598 89.1085C69.903 89.407 70.246 89.6528 70.616 89.8378C71.144 90.1135 71.689 90.3474 72.246 90.5377C72.598 90.6635 72.952 90.7797 73.307 90.89C73.647 91.0161 73.997 91.1044 74.352 91.1537C74.923 91.1943 75.487 90.9959 75.934 90.5972C76.381 90.1986 76.68 89.6281 76.771 88.9972C76.8 88.791 76.807 88.5784 76.822 88.3706L76.91 87.1646L77.099 84.5956C77.144 84.1566 77.216 83.7217 77.315 83.2941L77.815 80.8098L77.848 80.6459C77.911 80.3296 78.346 80.4635 78.283 80.7799L77.867 82.8467L77.621 84.0726C77.609 84.1615 77.591 84.2494 77.568 84.3357C77.552 84.3824 77.571 84.2467 77.572 84.2925C77.572 84.32 77.57 84.3474 77.566 84.3746C77.458 85.8569 77.356 87.3399 77.24 88.8215C77.195 89.4695 76.969 90.0852 76.593 90.5811C76.217 91.0771 75.71 91.428 75.146 91.584C74.445 91.7663 73.786 91.5639 73.111 91.3524C72.437 91.1483 71.773 90.9063 71.121 90.6275C70.331 90.2807 69.417 89.8409 68.938 89.0101C68.569 88.3714 68.644 87.6097 68.892 86.9367C69.096 86.4335 69.334 85.9484 69.604 85.4858C69.819 85.0889 70.005 84.6792 70.192 84.2656C70.558 83.4544 70.847 82.6026 71.054 81.7242C71.145 81.34 71.23 80.9541 71.318 80.569L71.404 80.1924C71.476 79.8783 71.911 80.0114 71.839 80.3264V80.3265Z" fill="black"/>
<path class="Vector_63" d="M71.536 79.7856L71.085 82.5505L77.348 84.2243L77.988 81.8398" fill="white"/>
<path class="Vector_64" d="M71.536 79.7856L71.085 82.5505L77.348 84.2243L77.988 81.8398" fill="white"/>
<path class="Vector_65" d="M71.754 79.8526L71.359 82.2711L71.303 82.6176L71.145 82.3076L73.264 82.8737L76.637 83.7753L77.408 83.9814L77.131 84.1574L77.77 81.7729C77.854 81.463 78.289 81.595 78.206 81.9069L77.566 84.2914C77.549 84.3551 77.511 84.409 77.459 84.4418C77.407 84.4746 77.346 84.4838 77.289 84.4674L75.17 83.9013L71.796 82.9997L71.025 82.7936C70.968 82.7746 70.92 82.7317 70.891 82.674C70.862 82.6162 70.853 82.548 70.868 82.4836L71.262 80.0652L71.319 79.7187C71.371 79.4001 71.806 79.5351 71.754 79.8527V79.8526Z" fill="black"/>
<path class="Vector_66" d="M56.124 59.7054L70.462 63.9858L75.063 65.3415L72.572 71.8792C71.514 74.656 71.11 77.689 71.398 80.6895L71.439 81.1187L77.878 82.6809L80.821 80.4571C81.776 79.7346 82.446 78.6313 82.695 77.3738L85.118 65.178C85.448 63.1252 85.1 61.0082 84.138 59.2208C83.175 57.4333 81.665 56.0973 79.886 55.4612L75.037 53.7426L64.937 50.3931C63.888 50.0452 62.8 49.8686 61.706 49.8685H55.8637" fill="white"/>
<path class="Vector_67" d="M56.1842 59.4622L58.5644 60.1727L63.694 61.704L68.643 63.1814C69.311 63.3809 69.979 63.5825 70.648 63.7796L74.997 65.0611L75.123 65.0982C75.156 65.1092 75.186 65.1283 75.211 65.1541C75.237 65.1799 75.257 65.2117 75.27 65.2472C75.282 65.2827 75.288 65.3211 75.286 65.3593C75.284 65.3976 75.274 65.4349 75.258 65.4684L73.677 69.6176L72.856 71.7712C72.404 72.9401 72.061 74.1579 71.832 75.4053C71.643 76.4684 71.543 77.5491 71.535 78.633C71.535 79.4637 71.578 80.2936 71.665 81.1185L71.5 80.8755L73.676 81.4035L77.143 82.2447L77.938 82.4376L77.765 82.463L79.69 81.0079L80.631 80.297C81.585 79.6017 82.252 78.5118 82.486 77.2671C82.52 77.0938 82.555 76.9204 82.589 76.747L83.069 74.3325L83.737 70.9689L84.391 67.6755L84.828 65.4732C85.239 63.4401 84.953 61.3088 84.026 59.4999C83.099 57.691 81.599 56.3358 79.821 55.702C79.159 55.4657 78.496 55.2309 77.833 54.9975L75.223 54.0726C74.969 53.9823 74.712 53.8976 74.456 53.8126L72.253 53.0821L69.239 52.0823L66.465 51.1626L64.94 50.6568C63.848 50.2968 62.715 50.116 61.576 50.1202H55.8639C55.5736 50.1202 55.5731 49.6162 55.8639 49.6162H61.356C62.605 49.599 63.85 49.7847 65.051 50.1676C65.672 50.3734 66.293 50.5794 66.914 50.7857L70.286 51.9038L73.55 52.9863C74.064 53.1569 74.58 53.3225 75.093 53.498C75.821 53.7471 76.545 54.0123 77.27 54.2694C78.153 54.5823 79.036 54.8952 79.919 55.208C81.524 55.7727 82.927 56.8935 83.924 58.408C84.921 59.9226 85.46 61.7522 85.464 63.6321C85.466 64.4858 85.328 65.2838 85.164 66.107L84.533 69.2844L83.737 73.2945L83.098 76.5073C82.935 77.3293 82.793 78.1366 82.417 78.8836C82.039 79.6205 81.512 80.2484 80.879 80.7173L79.765 81.5587L78.356 82.6232C78.241 82.71 78.129 82.8076 78.009 82.8858C77.969 82.9087 77.925 82.9223 77.88 82.9258C77.835 82.9293 77.789 82.9227 77.747 82.9062L75.184 82.2844L71.945 81.4986L71.379 81.3615C71.332 81.3459 71.291 81.314 71.261 81.2703C71.231 81.2266 71.215 81.1734 71.214 81.1185C71.144 80.392 71.088 79.6667 71.083 78.9352C71.078 77.9669 71.142 76.9997 71.275 76.0428C71.489 74.534 71.871 73.0609 72.413 71.6581L74.215 66.9269L74.868 65.214L75.003 65.5842L70.852 64.3611C70.226 64.1766 69.601 63.9905 68.976 63.8027L64.252 62.3923L58.9633 60.8136C58.0119 60.5296 57.0522 60.268 56.1065 59.9607C56.0926 59.9562 56.0784 59.9523 56.0643 59.9481C55.7841 59.8645 55.903 59.3782 56.1842 59.4622Z" fill="black"/>
<path class="Vector_68" d="M71.608 64.0627L73.691 64.6332L77.009 65.5421L77.769 65.7503C78.051 65.8275 77.931 66.3137 77.649 66.2363L75.567 65.6659L72.249 64.7569L71.489 64.5487C71.207 64.4715 71.326 63.9853 71.608 64.0627Z" fill="black"/>
<path class="Vector_69" d="M77.348 84.2813L71.067 82.5779C71.067 82.5779 69.407 85.1735 69.551 86.0657C69.696 86.9579 70.778 87.2012 70.778 87.2012L72.15 86.5524C72.15 86.5524 73.449 86.4713 73.81 84.5247" fill="#FC7272"/>
<path class="Vector_70" d="M77.288 84.5251L75.158 83.9474L71.782 83.0318L71.007 82.8218L71.262 82.706C70.918 83.2439 70.602 83.8031 70.315 84.3809C70.11 84.7642 69.945 85.1722 69.823 85.5969C69.802 85.6761 69.785 85.7567 69.774 85.8383C69.78 85.791 69.77 85.8886 69.769 85.9076C69.767 85.9483 69.768 85.989 69.772 86.0295C69.765 85.9554 69.775 86.0375 69.78 86.056C69.787 86.086 69.793 86.1166 69.803 86.1463C69.818 86.1939 69.837 86.2397 69.86 86.2832C69.911 86.3791 69.976 86.4653 70.051 86.5385C70.275 86.7548 70.547 86.9 70.839 86.9591L70.665 86.9846C71.118 86.7699 71.572 86.5553 72.026 86.3407C72.066 86.3204 72.109 86.307 72.153 86.301C72.193 86.2957 72.178 86.2947 72.138 86.3043C72.208 86.2876 72.276 86.2754 72.345 86.2527C72.39 86.2374 72.435 86.2195 72.479 86.2006C72.519 86.184 72.485 86.1985 72.478 86.2021C72.493 86.1949 72.507 86.1874 72.522 86.1797C72.554 86.1631 72.585 86.1461 72.615 86.1277C72.739 86.0556 72.853 85.9647 72.955 85.8575C73.309 85.4872 73.493 84.98 73.593 84.4585C73.654 84.1415 74.089 84.2757 74.028 84.5925C73.885 85.3405 73.556 86.0553 72.969 86.4799C72.725 86.6633 72.443 86.7752 72.15 86.8053L72.264 86.7709L71.073 87.3344C70.938 87.3983 70.819 87.4728 70.669 87.4323C70.445 87.3701 70.23 87.2716 70.031 87.1398C69.735 86.957 69.504 86.6657 69.378 86.3151C69.3 86.0467 69.301 85.7575 69.381 85.4897C69.542 84.8372 69.862 84.2243 70.173 83.6487C70.393 83.241 70.625 82.8392 70.873 82.4517C70.899 82.405 70.937 82.3687 70.983 82.3479C71.029 82.3271 71.079 82.3229 71.127 82.3359L73.257 82.9136L76.633 83.8292L77.408 84.0393C77.69 84.1157 77.57 84.6019 77.288 84.5253V84.5251Z" fill="black"/>
<path class="Vector_71" d="M73.28 91.1436L71.085 90.446C68.396 89.3916 68.468 87.8504 68.468 87.8504C68.468 87.8504 68.54 85.4982 69.262 85.1738C69.984 84.8493 70.49 86.2282 70.49 86.2282C70.49 86.2282 71.645 84.9304 72.15 86.5527C72.655 85.7415 73.377 85.8226 73.882 86.9582C74.46 86.431 74.875 86.4918 75.146 86.6845C75.275 86.7813 75.376 86.9185 75.436 87.0789C75.496 87.2393 75.512 87.4158 75.483 87.5865L75.267 88.9371C75.242 89.0914 75.263 89.2506 75.326 89.3909C75.388 89.5312 75.49 89.6452 75.615 89.716" fill="#FC7272"/>
<path class="Vector_72" d="M73.22 91.3868L71.261 90.764C70.35 90.4744 69.378 89.969 68.755 89.1451C68.488 88.7917 68.239 88.3283 68.243 87.8485C68.252 87.5257 68.28 87.204 68.329 86.8856C68.394 86.3918 68.49 85.8689 68.717 85.4324C68.827 85.1968 69.01 85.0141 69.232 84.9186C69.362 84.874 69.499 84.8647 69.633 84.8915C69.767 84.9184 69.893 84.9806 70.001 85.0729C70.321 85.3569 70.565 85.7333 70.707 86.1613L70.33 86.0501C70.547 85.8025 70.817 85.6217 71.115 85.525C71.349 85.4504 71.6 85.4823 71.814 85.6139C72.101 85.801 72.259 86.1484 72.368 86.4857L71.955 86.4255C72.207 86.0306 72.573 85.7011 73.032 85.7753C73.53 85.8557 73.866 86.3648 74.077 86.8311L73.723 86.78C74.045 86.4926 74.429 86.2417 74.856 86.3052C75.04 86.3331 75.214 86.4179 75.357 86.5499C75.5 86.6819 75.608 86.8559 75.667 87.0524C75.754 87.3326 75.708 87.6081 75.663 87.8888L75.525 88.7563C75.479 89.0436 75.445 89.339 75.729 89.4984C75.988 89.6442 75.76 90.0791 75.501 89.9336C75.334 89.8329 75.2 89.6751 75.119 89.4833C75.038 89.2916 75.014 89.0759 75.05 88.8677C75.078 88.6745 75.112 88.4822 75.143 88.2895C75.216 87.8321 75.447 87.138 74.967 86.8601C74.671 86.6887 74.299 86.907 74.042 87.1364C74.017 87.163 73.988 87.183 73.955 87.195C73.923 87.2071 73.888 87.2108 73.854 87.2059C73.82 87.201 73.787 87.1876 73.759 87.1668C73.73 87.1459 73.706 87.1181 73.688 87.0854C73.544 86.7686 73.328 86.3508 72.985 86.2749C72.729 86.2182 72.495 86.4447 72.345 86.6798C72.321 86.7211 72.288 86.7541 72.248 86.7749C72.209 86.7956 72.165 86.8033 72.121 86.797C72.078 86.7907 72.037 86.7706 72.004 86.7392C71.97 86.7077 71.946 86.6662 71.932 86.6196C71.858 86.389 71.745 86.1242 71.541 86.0224C71.482 85.9964 71.419 85.9851 71.357 85.9892C71.285 85.9951 71.214 86.0127 71.147 86.0413C71.015 86.1023 70.891 86.1827 70.778 86.2803C70.819 86.2457 70.761 86.2957 70.748 86.3077C70.73 86.324 70.713 86.3407 70.696 86.3577C70.68 86.3736 70.664 86.3896 70.649 86.4064C70.621 86.4365 70.586 86.4581 70.548 86.469C70.51 86.4799 70.471 86.4797 70.433 86.4686C70.395 86.4574 70.36 86.4356 70.332 86.4053C70.304 86.3749 70.283 86.337 70.272 86.2952C70.313 86.4048 70.269 86.2905 70.256 86.2597C70.226 86.1879 70.193 86.1174 70.157 86.0483C70.067 85.8625 69.951 85.6937 69.814 85.5483C69.76 85.4817 69.692 85.4324 69.616 85.4052C69.54 85.3781 69.458 85.3743 69.38 85.3941C69.318 85.4218 69.261 85.4629 69.213 85.5152C69.165 85.5676 69.126 85.63 69.1 85.6989C68.902 86.0861 68.823 86.5728 68.764 87.0194C68.725 87.2917 68.702 87.5666 68.694 87.8422C68.694 87.8642 68.695 87.8861 68.695 87.9081C68.696 87.9212 68.698 87.9342 68.699 87.9472C68.7 87.9878 68.685 87.8689 68.698 87.9381C68.706 87.9797 68.712 88.0214 68.722 88.0626C68.734 88.1148 68.748 88.1663 68.765 88.2169C68.771 88.2334 68.802 88.318 68.777 88.2519C68.79 88.2864 68.804 88.3204 68.819 88.3541C68.883 88.4927 68.958 88.6242 69.044 88.7468C69.6 89.5044 70.476 89.9901 71.305 90.2538L73.34 90.9006C73.619 90.9892 73.5 91.4757 73.22 91.3866V91.3868Z" fill="black"/>
</g>
<path class="Vector_73" d="M62.6 55.5178C63.823 60.5002 66.113 70.2671 66.51 75.0734C64.689 72.8683 51.3537 73.7255 46.7457 75.0446C46.1926 72.9915 49.5491 55.0543 49.5491 55.0543L50.0536 49.8906H60.3103" fill="white"/>
<path class="Vector_74" d="M62.8181 55.4505C63.4261 57.9284 64.0081 60.4139 64.5651 62.9072C65.1781 65.6744 65.7631 68.4538 66.2291 71.2574C66.4391 72.5209 66.6291 73.7928 66.7351 75.073C66.7541 75.2923 66.4771 75.4031 66.3501 75.2512C66.3291 75.2253 66.3061 75.2004 66.2831 75.1765C66.2641 75.1567 66.1771 75.0797 66.2321 75.1258C66.1701 75.0734 66.1051 75.0251 66.0371 74.9812C65.9621 74.9321 65.8841 74.8879 65.8041 74.8471C65.7851 74.8368 65.7641 74.8271 65.7451 74.817C65.6951 74.792 65.7481 74.8181 65.7211 74.8056C65.6721 74.7836 65.6231 74.762 65.5731 74.7416C65.1211 74.5647 64.6561 74.4332 64.1831 74.3485C62.9131 74.0983 61.5801 74.0208 60.2705 73.9866C58.6802 73.9451 57.088 73.9874 55.4998 74.0811C53.9389 74.1731 52.3797 74.3157 50.8275 74.5218C49.5944 74.6707 48.3694 74.8943 47.1579 75.1915C47.0401 75.2219 46.9226 75.2538 46.8054 75.2872C46.7478 75.3037 46.6867 75.2946 46.6349 75.2617C46.5831 75.2289 46.5448 75.175 46.5279 75.1112C46.4034 74.6406 46.454 74.0891 46.4809 73.6079C46.5284 72.756 46.6223 71.9072 46.7237 71.0616C46.8554 69.9645 47.0069 68.8706 47.1677 67.7784C47.3421 66.5934 47.5261 65.4102 47.7195 64.2289C47.865 63.3321 48.0141 62.436 48.1665 61.5405L48.6738 61.2529C48.5517 61.9669 48.4314 62.6812 48.313 63.396C48.1177 64.5769 47.9294 65.7591 47.748 66.9428C47.5774 68.0636 47.4145 69.1861 47.269 70.3114C47.1527 71.2098 47.046 72.1024 46.9719 73.029C46.9126 73.5962 46.8974 74.1679 46.9264 74.7379C48.0354 74.4516 49.1581 74.236 50.2892 74.0922C51.8403 73.8695 53.3995 73.7156 54.9604 73.6111C56.5712 73.5033 58.186 73.4481 59.7998 73.473C61.1871 73.4759 62.5721 73.5842 63.9461 73.7974C64.4591 73.8765 64.9671 74.0005 65.4641 74.1682C65.734 74.2522 65.9932 74.3748 66.2348 74.5327C66.0105 72.2626 65.5721 70.0114 65.1311 67.786C64.5771 64.9914 63.9571 62.2132 63.3081 59.4443C63.0071 58.1556 62.6981 56.869 62.3821 55.5845C62.3061 55.2712 62.7411 55.1376 62.8181 55.4505Z" fill="black"/>
<path class="Vector_75" d="M51.228 49.5079H60.1923L59.9747 49.8267C59.8248 48.6989 59.0017 47.7677 57.9691 47.6723C57.7148 47.6487 57.4551 47.6629 57.2002 47.6629H56.1479C55.7406 47.6442 55.3351 47.7337 54.9648 47.924C54.8453 47.9904 54.7268 48.0589 54.6078 48.1264L52.7571 49.1753L51.3419 49.9774C51.0835 50.1239 50.8548 49.6892 51.1141 49.5422L54.3132 47.729C54.4533 47.6496 54.5928 47.5691 54.7334 47.4909C55.1429 47.2662 55.594 47.1524 56.0502 47.159C56.6485 47.159 57.2499 47.1378 57.8479 47.1604C58.4708 47.1881 59.066 47.4553 59.5328 47.9167C59.9996 48.3782 60.3094 49.0057 60.4098 49.6929C60.4182 49.7303 60.419 49.7693 60.4121 49.8071C60.4052 49.8448 60.3908 49.8802 60.3698 49.9109C60.3489 49.9415 60.3221 49.9666 60.2914 49.9841C60.2606 50.0015 60.2268 50.011 60.1923 50.0119H51.228C50.9377 50.0119 50.9372 49.5079 51.228 49.5079Z" fill="black"/>
</g>
</g>
</svg>
