<svg width="449" height="454" viewBox="0 0 449 454" fill="none" xmlns="http://www.w3.org/2000/svg">
<path fill-rule="evenodd" clip-rule="evenodd" d="M169.349 56.5754C169.349 56.5754 125.087 -7.37348 111.195 0.705804C108.291 2.58163 106.845 13.3933 104.723 29.2632C101.199 55.6115 95.8102 95.903 78.7872 132.393C77.087 136.037 75.3703 139.705 73.6436 143.394L73.6394 143.403C72.5106 145.815 71.3637 148.262 70.2018 150.741C43.273 208.191 8.25168 282.906 2.04126 340.918C-10.058 453.939 33.6139 539.845 80.6348 632.338C84.6136 640.165 88.6163 648.039 92.6113 655.98C98.3649 667.417 111.746 674.32 124.222 674.32H128.695C144.957 674.32 136.048 653.18 133.205 646.432C132.899 645.708 132.664 645.149 132.537 644.8C120.594 611.954 117.286 583.936 113.437 551.329C112.464 543.088 111.456 534.554 110.266 525.574C115.871 532.241 121.808 538.614 128.054 544.664C136.328 583.716 148.165 621.633 162.055 657.974C165.854 667.912 175.215 674.32 185.557 674.32L190.685 674.32C200.038 674.32 206.701 664.926 204.29 655.591C198.72 634.029 194.738 612.019 192.117 589.644C216.32 601.416 242.786 609.329 270.86 612.537C371.508 624.039 464.77 571.871 512.998 487.184C514.183 485.193 515.307 483.156 516.368 481.076L516.607 480.627C516.856 480.16 517.077 479.704 517.273 479.259C522.609 468.281 526.181 456.155 527.565 443.23C528.519 434.311 528.377 425.527 527.249 417.024C524.494 396.259 584.604 359.698 643.024 324.164C717.222 279.033 788.695 235.56 725.188 228.213C716.206 227.174 707.23 225.976 698.252 224.778C637.225 216.634 576.144 208.482 512.998 250.186C506.945 263.123 500.934 274.445 495.013 284.354C492.152 334.769 451.674 374.742 402.16 374.742C350.789 374.742 309.145 331.716 309.145 278.64C309.145 261.59 313.443 245.577 320.98 231.695C330.831 206.477 345.471 179.591 357.938 156.695C373.384 128.328 385.495 106.085 381.036 100.727C371.596 89.3824 329.932 97.3821 303.785 102.402C298.955 103.33 294.654 104.156 291.184 104.739C271.398 77.8579 241.395 59.0818 206.342 55.0761C193.673 53.6284 181.241 54.2122 169.349 56.5754ZM119.962 176.494C139.911 185.596 162.002 179.128 169.304 162.046C176.605 144.964 166.352 123.737 146.403 114.635C134.396 109.156 121.613 109.318 111.745 114.04C105.219 117.164 99.9681 122.282 97.0613 129.083C89.7597 146.164 100.013 167.391 119.962 176.494ZM266.498 208.123C258.767 226.08 235.614 232.877 214.783 223.304C193.952 213.731 183.333 191.414 191.064 173.457C194.141 166.308 199.663 160.928 206.51 157.646C216.861 152.683 230.24 152.514 242.778 158.276C263.609 167.849 274.228 190.166 266.498 208.123Z" fill="black"/>
</svg>
