<svg width="100" height="100" viewBox="0 0 100 100" fill="none" xmlns="http://www.w3.org/2000/svg">
<g id="avatar 1">
<g id="img">
<mask id="mask0_1_163" style="mask-type:alpha" maskUnits="userSpaceOnUse" x="1" y="1" width="98" height="98">
<circle id="Ellipse 45" opacity="0.98" cx="50" cy="50" r="49" fill="#D9D9D9"/>
</mask>
<g mask="url(#mask0_1_163)">
<circle id="Ellipse 46" cx="50" cy="50" r="50" fill="#FAF3FF"/>
<g id="Group 9">
<ellipse id="Ellipse 43" cx="45.1017" cy="45.6543" rx="16.1056" ry="14.6497" fill="white"/>
<ellipse id="Ellipse 17" cx="3.0833" cy="3.18386" rx="3.0833" ry="3.18386" transform="matrix(0.995475 0.0950258 -0.0890687 0.996026 35.4199 35.6223)" fill="black"/>
<ellipse id="Ellipse 18" cx="52.0305" cy="45.6543" rx="3.3069" ry="3.34395" fill="black"/>
<path id="Subtract" fill-rule="evenodd" clip-rule="evenodd" d="M43.8668 27.1334C43.8668 27.1334 37.3029 17.6499 35.2428 18.8481C34.8121 19.1263 34.5977 20.7296 34.283 23.0831C33.7604 26.9905 32.9613 32.9656 30.4368 38.3769C30.1847 38.9174 29.9301 39.4613 29.674 40.0084L29.6734 40.0097C29.506 40.3674 29.3359 40.7303 29.1636 41.0979C25.1702 49.6175 19.9766 60.6976 19.0556 69.3007C17.2613 86.0615 23.7377 98.801 30.7108 112.518C31.3008 113.678 31.8944 114.846 32.4869 116.024C33.3401 117.72 35.3245 118.743 37.1747 118.743H37.838C40.2497 118.743 38.9285 115.608 38.5068 114.608L38.5066 114.607C38.4614 114.5 38.4266 114.417 38.4078 114.366C36.6366 109.495 36.1461 105.34 35.5753 100.504C35.431 99.282 35.2816 98.0164 35.1051 96.6848C35.9362 97.6734 36.8166 98.6185 37.743 99.5156C38.97 105.307 40.7254 110.93 42.7853 116.319C43.3486 117.793 44.7368 118.743 46.2705 118.743L47.031 118.743C48.4179 118.743 49.4061 117.35 49.0485 115.966C48.2226 112.768 47.632 109.504 47.2434 106.186C50.8326 107.932 54.7574 109.105 58.9208 109.581C73.8466 111.287 87.6771 103.55 94.8292 90.9916C95.0049 90.6963 95.1717 90.3943 95.3289 90.0858L95.3645 90.0192C95.4013 89.9499 95.4341 89.8823 95.4631 89.8163C96.2545 88.1884 96.7842 86.39 96.9894 84.4732C97.131 83.1506 97.1099 81.8481 96.9426 80.587C96.5341 77.5077 105.448 72.0857 114.112 66.8162C125.115 60.1234 135.714 53.6763 126.296 52.5868C124.964 52.4327 123.633 52.2551 122.302 52.0774C113.252 50.8696 104.194 49.6607 94.8292 55.8453C93.9316 57.7636 93.0405 59.4423 92.1625 60.9115C91.7386 68.3884 85.7357 74.3167 78.3926 74.3167C70.7745 74.3167 64.5988 67.936 64.5988 60.0651C64.5988 57.5378 65.2355 55.1642 66.3522 53.1061C67.8132 49.3656 69.9849 45.3772 71.8342 41.9809C74.1247 37.7741 75.9208 34.4756 75.2595 33.6809C73.8596 31.9986 67.681 33.1849 63.8035 33.9294C63.0871 34.067 62.4493 34.1894 61.9347 34.276C59.0004 30.2895 54.5511 27.5051 49.3528 26.9111C47.4742 26.6964 45.6304 26.7829 43.8668 27.1334ZM36.5429 44.917C39.5013 46.2669 42.7774 45.3076 43.8602 42.7744C44.943 40.2412 43.4225 37.0933 40.4641 35.7434C38.6834 34.9309 36.7877 34.955 35.3244 35.6553C34.3566 36.1185 33.5779 36.8775 33.1468 37.886C32.064 40.4192 33.5845 43.5671 36.5429 44.917ZM58.2738 49.6076C57.1274 52.2705 53.6938 53.2785 50.6047 51.8589C47.5155 50.4392 45.9407 47.1296 47.0871 44.4666C47.5435 43.4065 48.3624 42.6086 49.3778 42.1219C50.9128 41.3859 52.897 41.3609 54.7563 42.2153C57.8454 43.635 59.4202 46.9446 58.2738 49.6076Z" fill="#B895F7"/>
<path id="Union" fill-rule="evenodd" clip-rule="evenodd" d="M40.8821 47.6499L40.8253 48.3641C40.8821 47.6499 40.8823 47.6499 40.8824 47.6499L40.8832 47.65L40.8846 47.6501L40.8881 47.6504L40.8982 47.6514L40.9308 47.6548C40.9577 47.6577 40.9951 47.6621 41.0416 47.6685C41.1345 47.6811 41.2645 47.7015 41.4214 47.7331C41.7335 47.796 42.1607 47.9053 42.6171 48.092C43.0832 48.2827 43.5136 48.5437 43.8191 48.7487C43.974 48.8526 44.1017 48.9455 44.1916 49.0132C44.2367 49.0471 44.2725 49.0748 44.2977 49.0947L44.3276 49.1184L44.3363 49.1254L44.3391 49.1277L44.3401 49.1285L44.3407 49.1289C44.3407 49.129 44.3408 49.129 43.9365 49.6581L44.3408 49.129C44.6414 49.3743 44.6928 49.8248 44.4554 50.1355C44.2182 50.4459 43.7825 50.499 43.4819 50.2543L43.4814 50.254L43.4813 50.2539L43.4776 50.2509L43.4579 50.2353C43.4398 50.221 43.4117 50.1992 43.375 50.1716C43.3015 50.1163 43.1943 50.0383 43.0635 49.9505C42.9756 49.8915 42.8791 49.8296 42.7768 49.7679C42.4728 50.4175 42.4472 50.8781 42.5098 51.1722C42.5778 51.4916 42.7677 51.7072 43.0174 51.8305C43.2804 51.9605 43.5949 51.9781 43.8534 51.8872C44.0957 51.8019 44.2795 51.6283 44.3591 51.3462C44.4664 50.9663 44.8514 50.7481 45.2191 50.8589C45.5868 50.9697 45.798 51.3675 45.6907 51.7475C45.4717 52.5235 44.9253 53.024 44.3005 53.2438C43.6919 53.458 43.0024 53.4116 42.419 53.1234C41.88 52.8571 41.4209 52.3771 41.213 51.703C40.8136 51.9119 40.3895 51.9793 39.9814 51.9273C39.4026 51.8536 38.8911 51.5451 38.5388 51.1363C38.19 50.7316 37.9444 50.1614 38.0296 49.5466C38.084 49.1549 38.4354 48.8828 38.8145 48.9389C39.1937 48.995 39.457 49.3581 39.4027 49.7499C39.3898 49.8432 39.4223 50.0064 39.5748 50.1833C39.7237 50.3561 39.9363 50.4776 40.1512 50.505C40.3466 50.5299 40.5768 50.483 40.8176 50.2565C41.0151 50.0706 41.2373 49.745 41.4245 49.201C41.3274 49.1763 41.237 49.1561 41.1557 49.1397C41.0301 49.1144 40.9285 49.0986 40.8604 49.0893C40.8263 49.0847 40.8008 49.0817 40.7851 49.0799L40.7689 49.0783L40.7667 49.0781C40.3858 49.0448 40.1027 48.6991 40.134 48.3053C40.1655 47.9109 40.5004 47.6175 40.8821 47.6499Z" fill="black"/>
</g>
</g>
</g>
<circle id="Ellipse 46_2" cx="50" cy="50" r="45" stroke="#222FDC" stroke-width="10"/>
</g>
</svg>
