<svg width="160" height="206" viewBox="0 0 160 206" fill="none" xmlns="http://www.w3.org/2000/svg">
<g id="g and shadows">
<ellipse id="Ellipse 66" cx="80" cy="191" rx="80" ry="15" fill="#232323"/>
<mask id="mask0_1_1396" style="mask-type:alpha" maskUnits="userSpaceOnUse" x="14" y="0" width="128" height="191">
<path id="Subtract" d="M69.2039 190.556C51.6093 190.556 38.12 187.39 28.7362 181.057C19.3524 174.724 14.6605 165.85 14.6605 154.435C14.6605 146.46 17.1628 139.697 22.1675 134.146C27.1722 128.674 34.3274 124.882 43.633 122.771C40.1141 121.207 37.0643 118.783 34.4838 115.5C31.9814 112.138 30.7303 108.424 30.7303 104.358C30.7303 99.5109 32.0987 95.3672 34.8357 91.9271C37.5726 88.487 41.6781 85.1641 47.1519 81.9586C40.3487 79.0658 34.8748 74.3748 30.7303 67.8855C26.6639 61.318 24.6308 53.6169 24.6308 44.7821C24.6308 35.4 26.6249 27.4253 30.613 20.8578C34.6011 14.2122 40.4269 9.1693 48.0903 5.7292C55.7538 2.21092 65.0202 0.451782 75.8898 0.451782C78.2358 0.451782 80.7772 0.60815 83.5142 0.920886C86.3293 1.15544 88.9098 1.46817 91.2558 1.85909C93.6799 2.17183 95.5177 2.52366 96.7688 2.91458H141.694V18.2777L119.642 22.3824C121.753 25.3534 123.434 28.7544 124.686 32.5854C125.937 36.3382 126.562 40.4429 126.562 44.8994C126.562 58.347 121.91 68.941 112.604 76.6812C103.377 84.3432 90.6302 88.1742 74.3649 88.1742C70.455 88.0179 66.6624 87.7051 62.9871 87.236C60.1719 88.9561 58.0215 90.8716 56.5357 92.9825C55.05 95.0153 54.3071 97.3218 54.3071 99.9018C54.3071 102.013 55.05 103.733 56.5357 105.062C58.0215 106.313 60.2111 107.251 63.1044 107.877C66.0759 108.502 69.6731 108.815 73.8958 108.815H96.2996C110.532 108.815 121.401 111.825 128.908 117.845C136.415 123.865 140.169 132.7 140.169 144.349C140.169 159.126 134.069 170.502 121.87 178.477C109.672 186.53 92.116 190.556 69.2039 190.556ZM70.2596 171.206C79.878 171.206 87.9715 170.267 94.5402 168.391C101.109 166.515 106.074 163.817 109.437 160.299C112.799 156.859 114.481 152.754 114.481 147.985C114.481 143.763 113.425 140.518 111.314 138.251C109.202 135.984 106.035 134.42 101.813 133.56C97.5899 132.7 92.3506 132.27 86.0947 132.27H65.6849C60.602 132.27 56.1056 133.052 52.1957 134.616C48.2858 136.257 45.2361 138.603 43.0465 141.652C40.9352 144.701 39.8795 148.376 39.8795 152.676C39.8795 158.618 42.4991 163.192 47.7384 166.397C53.0559 169.603 60.563 171.206 70.2596 171.206ZM75.6552 70.1137C83.7097 70.1137 89.6919 67.9246 93.6018 63.5463C97.5117 59.0898 99.4666 52.8351 99.4666 44.7821C99.4666 36.0255 97.4335 29.458 93.3672 25.0797C89.3791 20.7014 83.436 18.5123 75.5379 18.5123C67.7963 18.5123 61.8923 20.7405 57.826 25.197C53.8379 29.6535 51.8438 36.2601 51.8438 45.0167C51.8438 52.9132 53.8379 59.0898 57.826 63.5463C61.8923 67.9246 67.8354 70.1137 75.6552 70.1137Z" fill="#DAD4C5"/>
</mask>
<g mask="url(#mask0_1_1396)">
<path id="Subtract_2" d="M69.2039 190.556C51.6093 190.556 38.12 187.39 28.7362 181.057C19.3524 174.724 14.6605 165.85 14.6605 154.435C14.6605 146.46 17.1628 139.697 22.1675 134.146C27.1722 128.674 34.3274 124.882 43.633 122.771C40.1141 121.207 37.0643 118.783 34.4838 115.5C31.9814 112.138 30.7303 108.424 30.7303 104.358C30.7303 99.5109 32.0987 95.3672 34.8357 91.9271C37.5726 88.487 41.6781 85.1641 47.1519 81.9586C40.3487 79.0658 34.8748 74.3748 30.7303 67.8855C26.6639 61.318 24.6308 53.6169 24.6308 44.7821C24.6308 35.4 26.6249 27.4253 30.613 20.8578C34.6011 14.2122 40.4269 9.1693 48.0903 5.7292C55.7538 2.21092 65.0202 0.451782 75.8898 0.451782C78.2358 0.451782 80.7772 0.60815 83.5142 0.920886C86.3293 1.15544 88.9098 1.46817 91.2558 1.85909C93.6799 2.17183 95.5177 2.52366 96.7688 2.91458H141.694V18.2777L119.642 22.3824C121.753 25.3534 123.434 28.7544 124.686 32.5854C125.937 36.3382 126.562 40.4429 126.562 44.8994C126.562 58.347 121.91 68.941 112.604 76.6812C103.377 84.3432 90.6302 88.1742 74.3649 88.1742C70.455 88.0179 66.6624 87.7051 62.9871 87.236C60.1719 88.9561 58.0215 90.8716 56.5357 92.9825C55.05 95.0153 54.3071 97.3218 54.3071 99.9018C54.3071 102.013 55.05 103.733 56.5357 105.062C58.0215 106.313 60.2111 107.251 63.1044 107.877C66.0759 108.502 69.6731 108.815 73.8958 108.815H96.2996C110.532 108.815 121.401 111.825 128.908 117.845C136.415 123.865 140.169 132.7 140.169 144.349C140.169 159.126 134.069 170.502 121.87 178.477C109.672 186.53 92.116 190.556 69.2039 190.556ZM70.2596 171.206C79.878 171.206 87.9715 170.267 94.5402 168.391C101.109 166.515 106.074 163.817 109.437 160.299C112.799 156.859 114.481 152.754 114.481 147.985C114.481 143.763 113.425 140.518 111.314 138.251C109.202 135.984 106.035 134.42 101.813 133.56C97.5899 132.7 92.3506 132.27 86.0947 132.27H65.6849C60.602 132.27 56.1056 133.052 52.1957 134.616C48.2858 136.257 45.2361 138.603 43.0465 141.652C40.9352 144.701 39.8795 148.376 39.8795 152.676C39.8795 158.618 42.4991 163.192 47.7384 166.397C53.0559 169.603 60.563 171.206 70.2596 171.206ZM75.6552 70.1137C83.7097 70.1137 89.6919 67.9246 93.6018 63.5463C97.5117 59.0898 99.4666 52.8351 99.4666 44.7821C99.4666 36.0255 97.4335 29.458 93.3672 25.0797C89.3791 20.7014 83.436 18.5123 75.5379 18.5123C67.7963 18.5123 61.8923 20.7405 57.826 25.197C53.8379 29.6535 51.8438 36.2601 51.8438 45.0167C51.8438 52.9132 53.8379 59.0898 57.826 63.5463C61.8923 67.9246 67.8354 70.1137 75.6552 70.1137Z" fill="#DAD4C5"/>
<g id="Ellipse 54" filter="url(#filter0_f_1_1396)">
<ellipse cx="75.2785" cy="78.6219" rx="32.0916" ry="21.6902" transform="rotate(96.9963 75.2785 78.6219)" fill="#2B2B2B" fill-opacity="0.5"/>
</g>
<g id="Ellipse 55" filter="url(#filter1_f_1_1396)">
<ellipse cx="103.601" cy="-7.07488" rx="17.7215" ry="30.3186" transform="rotate(96.9963 103.601 -7.07488)" fill="#2B2B2B" fill-opacity="0.3"/>
</g>
</g>
</g>
<defs>
<filter id="filter0_f_1_1396" x="13.394" y="6.65808" width="123.769" height="143.928" filterUnits="userSpaceOnUse" color-interpolation-filters="sRGB">
<feFlood flood-opacity="0" result="BackgroundImageFix"/>
<feBlend mode="normal" in="SourceGraphic" in2="BackgroundImageFix" result="shape"/>
<feGaussianBlur stdDeviation="20" result="effect1_foregroundBlur_1_1396"/>
</filter>
<filter id="filter1_f_1_1396" x="33.4291" y="-65.0515" width="140.343" height="115.953" filterUnits="userSpaceOnUse" color-interpolation-filters="sRGB">
<feFlood flood-opacity="0" result="BackgroundImageFix"/>
<feBlend mode="normal" in="SourceGraphic" in2="BackgroundImageFix" result="shape"/>
<feGaussianBlur stdDeviation="20" result="effect1_foregroundBlur_1_1396"/>
</filter>
</defs>
</svg>
