<svg width="190" height="132" viewBox="0 0 190 132" fill="none" xmlns="http://www.w3.org/2000/svg">
<path id="Subtract" d="M146.238 0.134766C160.699 0.134766 171.583 3.8658 178.891 11.3279C186.276 18.7899 189.969 30.7603 189.969 47.239V104.249C189.969 119.384 177.7 131.654 162.564 131.654V52.136C162.564 42.342 160.66 34.9577 156.85 29.983C153.041 25.0083 147.249 22.5209 139.474 22.5209C128.59 22.5209 120.738 26.0188 115.918 33.0145C111.176 39.9324 108.804 49.9984 108.804 63.2125V104.249C108.804 119.384 96.5348 131.654 81.3995 131.654V52.136C81.3995 45.6067 80.5444 40.1656 78.834 35.8127C77.2014 31.3821 74.6747 28.0786 71.2539 25.9022C67.8332 23.648 63.5184 22.5209 58.3095 22.5209C50.7684 22.5209 44.7432 24.231 40.234 27.6511C35.8026 31.0712 32.6151 36.1237 30.6715 42.8084C28.7279 49.4155 27.7561 57.5382 27.7561 67.1767V131.654H0.351318V2.58325H21.6921L25.5404 19.9559H27.0564C29.6997 15.4475 32.965 11.7554 36.8522 8.87937C40.8171 5.92564 45.2097 3.7492 50.0298 2.35006C54.8499 0.873198 59.8644 0.134766 65.0733 0.134766C74.7136 0.134766 82.8378 1.84482 89.4461 5.26493C96.0543 8.60731 100.991 13.7375 104.256 20.6554H106.355C110.398 13.6598 116.035 8.49072 123.265 5.14834C130.495 1.80596 138.153 0.134766 146.238 0.134766Z" fill="#DAD4C5"/>
</svg>
