<svg width="190" height="147" viewBox="0 0 190 147" fill="none" xmlns="http://www.w3.org/2000/svg">
<g id="o and shadows">
<ellipse id="Ellipse 65" cx="95" cy="132" rx="95" ry="15" fill="#232323"/>
<mask id="mask0_1_1113" style="mask-type:alpha" maskUnits="userSpaceOnUse" x="32" y="0" width="124" height="136">
<path id="Subtract" d="M155.519 68.0076C155.519 78.797 154.112 88.3746 151.297 96.7403C148.481 105.106 144.376 112.182 138.98 117.967C133.585 123.675 127.094 128.053 119.509 131.102C111.924 134.073 103.361 135.559 93.8207 135.559C84.9061 135.559 76.7344 134.073 69.3055 131.102C61.8767 128.053 55.4253 123.675 49.9514 117.967C44.5557 112.182 40.3721 105.106 37.4006 96.7403C34.429 88.3746 32.9432 78.797 32.9432 68.0076C32.9432 53.7 35.4065 41.5815 40.333 31.6521C45.3377 21.6445 52.4538 14.0216 61.6812 8.78327C70.9086 3.54494 81.8954 0.925781 94.6418 0.925781C106.606 0.925781 117.163 3.54494 126.312 8.78327C135.461 14.0216 142.616 21.6445 147.778 31.6521C152.939 41.6596 155.519 53.7782 155.519 68.0076ZM61.3293 68.0076C61.3293 77.4679 62.4631 85.56 64.7309 92.2838C67.0768 99.0076 70.674 104.168 75.5223 107.764C80.3706 111.282 86.6264 113.042 94.2899 113.042C101.953 113.042 108.209 111.282 113.057 107.764C117.906 104.168 121.464 99.0076 123.732 92.2838C125.999 85.56 127.133 77.4679 127.133 68.0076C127.133 58.5474 125.999 50.5335 123.732 43.9661C121.464 37.3204 117.906 32.2776 113.057 28.8375C108.209 25.3192 101.914 23.56 94.1726 23.56C82.7556 23.56 74.4275 27.3911 69.1882 35.0531C63.9489 42.7151 61.3293 53.7 61.3293 68.0076Z" fill="#DAD4C5"/>
</mask>
<g mask="url(#mask0_1_1113)">
<path id="Subtract_2" d="M155.519 68.0076C155.519 78.797 154.112 88.3746 151.297 96.7403C148.481 105.106 144.376 112.182 138.98 117.967C133.585 123.675 127.094 128.053 119.509 131.102C111.924 134.073 103.361 135.559 93.8207 135.559C84.9061 135.559 76.7344 134.073 69.3055 131.102C61.8767 128.053 55.4253 123.675 49.9514 117.967C44.5557 112.182 40.3721 105.106 37.4006 96.7403C34.429 88.3746 32.9432 78.797 32.9432 68.0076C32.9432 53.7 35.4065 41.5815 40.333 31.6521C45.3377 21.6445 52.4538 14.0216 61.6812 8.78327C70.9086 3.54494 81.8954 0.925781 94.6418 0.925781C106.606 0.925781 117.163 3.54494 126.312 8.78327C135.461 14.0216 142.616 21.6445 147.778 31.6521C152.939 41.6596 155.519 53.7782 155.519 68.0076ZM61.3293 68.0076C61.3293 77.4679 62.4631 85.56 64.7309 92.2838C67.0768 99.0076 70.674 104.168 75.5223 107.764C80.3706 111.282 86.6264 113.042 94.2899 113.042C101.953 113.042 108.209 111.282 113.057 107.764C117.906 104.168 121.464 99.0076 123.732 92.2838C125.999 85.56 127.133 77.4679 127.133 68.0076C127.133 58.5474 125.999 50.5335 123.732 43.9661C121.464 37.3204 117.906 32.2776 113.057 28.8375C108.209 25.3192 101.914 23.56 94.1726 23.56C82.7556 23.56 74.4275 27.3911 69.1882 35.0531C63.9489 42.7151 61.3293 53.7 61.3293 68.0076Z" fill="#DAD4C5"/>
</g>
</g>
</svg>
