<svg width="64" height="64" viewBox="0 0 64 64" fill="none" xmlns="http://www.w3.org/2000/svg">
<g id="img">
<g clip-path="url(#clip0_1_788)">
<rect width="64" height="64" rx="32" fill="#F4FAFF"/>
<g id="Group 9">
<ellipse id="Ellipse 43" cx="27.7516" cy="28.8849" rx="14.3212" ry="13.0265" fill="white"/>
<ellipse id="Ellipse 17" cx="2.74168" cy="2.8311" rx="2.74168" ry="2.8311" transform="matrix(0.995475 0.0950258 -0.0890687 0.996026 19.1425 19.9646)" fill="black"/>
<ellipse id="Ellipse 18" cx="33.9128" cy="28.8851" rx="2.94051" ry="2.97345" fill="black"/>
<path id="Subtract" fill-rule="evenodd" clip-rule="evenodd" d="M26.6533 12.4162C26.6533 12.4162 20.8166 3.98349 18.9848 5.04888C18.6019 5.29624 18.4112 6.72194 18.1313 8.81465C17.6666 12.2891 16.9561 17.6022 14.7113 22.414C14.4871 22.8946 14.2607 23.3782 14.033 23.8647L14.0325 23.8659C13.8836 24.184 13.7324 24.5066 13.5792 24.8335C10.0282 32.4092 5.41002 42.2616 4.59107 49.9116C2.99559 64.8153 8.75444 76.1433 14.9549 88.3401C15.4796 89.3722 16.0074 90.4105 16.5342 91.4577C17.293 92.9659 19.0575 93.8762 20.7026 93.8762H21.2925C23.4369 93.8762 22.2621 91.0884 21.8871 90.1987L21.8869 90.1982C21.8468 90.1028 21.8158 90.0294 21.7991 89.9835C20.2242 85.6521 19.788 81.9574 19.2804 77.6577C19.1521 76.571 19.0193 75.4456 18.8623 74.2615C19.6014 75.1406 20.3843 75.981 21.2079 76.7788C22.299 81.9285 23.8599 86.9285 25.6916 91.7206C26.1925 93.0311 27.4269 93.8761 28.7907 93.8761L29.4669 93.8761C30.7002 93.8761 31.5789 92.6374 31.2609 91.4063C30.5265 88.5631 30.0013 85.6606 29.6558 82.7101C32.8473 84.2625 36.3373 85.3059 40.0393 85.729C53.3114 87.2457 65.6095 80.3665 71.9692 69.1992C72.1255 68.9366 72.2738 68.668 72.4136 68.3937L72.4452 68.3345C72.478 68.2729 72.5071 68.2128 72.5329 68.1541C73.2366 66.7065 73.7076 65.1074 73.8901 63.403C74.016 62.2269 73.9972 61.0687 73.8485 59.9474C73.4852 57.2092 81.4116 52.388 89.1153 47.7023C98.8996 41.751 108.325 36.0183 99.9501 35.0495C98.7656 34.9125 97.5819 34.7545 96.398 34.5965C88.3507 33.5225 80.2961 32.4476 71.9692 37.947C71.171 39.653 70.3784 41.146 69.5976 42.4526C69.2203 49.1007 63.8826 54.3717 57.3534 54.3717C50.5793 54.3717 45.0879 48.698 45.0879 41.6992C45.0879 39.4508 45.6546 37.3393 46.6484 35.5086C47.9476 32.1833 49.878 28.6379 51.522 25.6187C53.5588 21.878 55.1558 18.9449 54.5678 18.2383C53.323 16.7424 47.829 17.7973 44.381 18.4593L44.381 18.4593C43.744 18.5816 43.1769 18.6905 42.7193 18.7674C40.1102 15.2227 36.1538 12.7467 31.5315 12.2185C29.861 12.0276 28.2215 12.1046 26.6533 12.4162ZM20.1409 28.2294C22.7715 29.4298 25.6846 28.5768 26.6474 26.3242C27.6103 24.0717 26.2582 21.2726 23.6276 20.0723C22.0442 19.3498 20.3585 19.3712 19.0574 19.9939C18.1968 20.4058 17.5044 21.0807 17.121 21.9775C16.1582 24.23 17.5102 27.0291 20.1409 28.2294ZM39.4641 32.4003C38.4446 34.7683 35.3915 35.6645 32.6446 34.4022C29.8978 33.1399 28.4974 30.1969 29.5168 27.829C29.9227 26.8863 30.6508 26.1769 31.5537 25.744C32.9187 25.0896 34.6829 25.0674 36.3363 25.8271C39.0831 27.0895 40.4835 30.0324 39.4641 32.4003Z" fill="#72BDF8"/>
<path id="Union" fill-rule="evenodd" clip-rule="evenodd" d="M23.999 30.6597L23.9484 31.2947C23.999 30.6597 23.9991 30.6597 23.9992 30.6597L23.9999 30.6597L24.0011 30.6598L24.0042 30.6601L24.0133 30.661L24.0422 30.664C24.0662 30.6666 24.0994 30.6705 24.1408 30.6761C24.2234 30.6874 24.339 30.7055 24.4785 30.7336C24.756 30.7896 25.1359 30.8868 25.5417 31.0528C25.9561 31.2224 26.3389 31.4544 26.6105 31.6367C26.7482 31.7291 26.8618 31.8117 26.9418 31.8719C26.9818 31.902 27.0137 31.9267 27.0361 31.9444L27.0627 31.9654L27.0705 31.9717L27.0729 31.9737L27.0738 31.9744L27.0743 31.9748C27.0744 31.9748 27.0744 31.9749 26.715 32.4453L27.0744 31.9749C27.3418 32.1929 27.3874 32.5936 27.1763 32.8698C26.9654 33.1458 26.578 33.1931 26.3106 32.9755L26.3103 32.9752L26.3102 32.9751L26.3068 32.9724L26.2894 32.9586C26.2732 32.9459 26.2483 32.9265 26.2156 32.902C26.1503 32.8528 26.055 32.7834 25.9387 32.7054C25.8606 32.653 25.7748 32.5979 25.684 32.5431C25.4137 33.1206 25.391 33.5302 25.4466 33.7917C25.5071 34.0757 25.676 34.2674 25.898 34.3771C26.1319 34.4926 26.4115 34.5083 26.6414 34.4275C26.8568 34.3517 27.0203 34.1973 27.0911 33.9464C27.1864 33.6086 27.5288 33.4146 27.8558 33.5131C28.1828 33.6116 28.3705 33.9654 28.2751 34.3032C28.0803 34.9933 27.5945 35.4383 27.0389 35.6338C26.4978 35.8242 25.8846 35.783 25.3659 35.5267C24.8866 35.2899 24.4783 34.863 24.2935 34.2635C23.9383 34.4494 23.561 34.5094 23.1981 34.4631C22.6834 34.3976 22.2285 34.1233 21.9152 33.7597C21.6051 33.3999 21.3867 32.8929 21.4625 32.3462C21.5108 31.9979 21.8233 31.7559 22.1604 31.8058C22.4976 31.8558 22.7317 32.1786 22.6834 32.5269C22.6719 32.6099 22.7009 32.755 22.8365 32.9124C22.9689 33.066 23.1579 33.174 23.349 33.1984C23.5227 33.2205 23.7275 33.1788 23.9416 32.9774C24.1172 32.8121 24.3148 32.5226 24.4812 32.0389C24.3949 32.0169 24.3145 31.9989 24.2422 31.9844C24.1305 31.9618 24.0402 31.9478 23.9796 31.9395C23.9493 31.9354 23.9267 31.9328 23.9127 31.9312L23.8983 31.9298L23.8964 31.9296C23.5576 31.9 23.3059 31.5926 23.3338 31.2424C23.3617 30.8917 23.6595 30.6308 23.999 30.6597Z" fill="black"/>
</g>
</g>
</g>
<defs>
<clipPath id="clip0_1_788">
<rect width="64" height="64" rx="32" fill="white"/>
</clipPath>
</defs>
</svg>
