<svg width="80" height="64" viewBox="0 0 80 64" fill="none" xmlns="http://www.w3.org/2000/svg">
<g id="text">
<g id="mogu">
<path d="M18.5219 24.0148C20.3578 24.0148 21.7397 24.4886 22.6675 25.4362C23.6052 26.3837 24.074 27.9038 24.074 29.9963V38.7156C24.074 39.8202 23.1786 40.7156 22.074 40.7156H20.5947V30.6181C20.5947 29.3745 20.3529 28.4368 19.8692 27.8051C19.3856 27.1733 18.6502 26.8575 17.6632 26.8575C16.2813 26.8575 15.2844 27.3017 14.6724 28.19C14.0703 29.0685 13.7693 30.3467 13.7693 32.0247V38.7156C13.7693 39.8202 12.8738 40.7156 11.7693 40.7156H10.2899V30.6181C10.2899 29.789 10.1814 29.0981 9.96422 28.5453C9.75694 27.9827 9.43615 27.5632 9.00185 27.2869C8.56755 27.0006 8.01974 26.8575 7.35842 26.8575C6.40099 26.8575 5.63603 27.0746 5.06354 27.5089C4.50093 27.9432 4.09624 28.5848 3.84948 29.4337C3.60271 30.2727 3.47933 31.3041 3.47933 32.5281V38.7156C3.47933 39.8202 2.5839 40.7156 1.47933 40.7156H0V24.3257H2.70944L3.19803 26.5318H3.3905C3.72609 25.9593 4.14065 25.4904 4.63418 25.1252C5.13757 24.7502 5.69525 24.4738 6.30722 24.2961C6.91919 24.1086 7.55583 24.0148 8.21715 24.0148C9.44109 24.0148 10.4725 24.232 11.3115 24.6663C12.1505 25.0907 12.7773 25.7421 13.1919 26.6206H13.4584C13.9716 25.7323 14.6872 25.0759 15.6052 24.6514C16.5231 24.227 17.4954 24.0148 18.5219 24.0148Z" fill="#343633"/>
<path d="M43.1872 32.4837C43.1872 33.8458 43.0095 35.0549 42.6542 36.111C42.2988 37.1672 41.7806 38.0605 41.0996 38.7909C40.4185 39.5114 39.5993 40.0642 38.6418 40.4491C37.6844 40.8242 36.6036 41.0117 35.3994 41.0117C34.2742 41.0117 33.2427 40.8242 32.305 40.4491C31.3673 40.0642 30.553 39.5114 29.8621 38.7909C29.181 38.0605 28.6529 37.1672 28.2779 36.111C27.9028 35.0549 27.7152 33.8458 27.7152 32.4837C27.7152 30.6774 28.0262 29.1474 28.648 27.8939C29.2797 26.6305 30.1779 25.6681 31.3426 25.0068C32.5073 24.3455 33.8941 24.0148 35.503 24.0148C37.0132 24.0148 38.3457 24.3455 39.5006 25.0068C40.6554 25.6681 41.5585 26.6305 42.21 27.8939C42.8614 29.1573 43.1872 30.6872 43.1872 32.4837ZM31.2982 32.4837C31.2982 33.678 31.4413 34.6996 31.7276 35.5484C32.0237 36.3973 32.4777 37.0487 33.0897 37.5028C33.7017 37.9469 34.4913 38.169 35.4586 38.169C36.4259 38.169 37.2155 37.9469 37.8275 37.5028C38.4395 37.0487 38.8886 36.3973 39.1748 35.5484C39.4611 34.6996 39.6042 33.678 39.6042 32.4837C39.6042 31.2893 39.4611 30.2776 39.1748 29.4485C38.8886 28.6095 38.4395 27.9729 37.8275 27.5386C37.2155 27.0944 36.421 26.8723 35.4438 26.8723C34.0027 26.8723 32.9515 27.356 32.2902 28.3233C31.6289 29.2906 31.2982 30.6774 31.2982 32.4837Z" fill="#343633"/>
<path d="M51.6106 48C49.3898 48 47.6871 47.6002 46.5026 46.8007C45.3182 46.0012 44.726 44.8809 44.726 43.4399C44.726 42.4331 45.0418 41.5793 45.6735 40.8785C46.3052 40.1875 47.2084 39.7088 48.383 39.4423C47.9388 39.2449 47.5539 38.9389 47.2281 38.5244C46.9123 38.0999 46.7543 37.6311 46.7543 37.1178C46.7543 36.5059 46.9271 35.9827 47.2725 35.5484C47.618 35.1141 48.1362 34.6946 48.8271 34.2899C47.9684 33.9247 47.2775 33.3325 46.7543 32.5133C46.2411 31.6841 45.9845 30.7119 45.9845 29.5965C45.9845 28.4121 46.2361 27.4053 46.7395 26.5762C47.2429 25.7372 47.9783 25.1006 48.9456 24.6663C49.9129 24.2221 51.0825 24 52.4545 24C52.7506 24 53.0714 24.0197 53.4169 24.0592C53.7722 24.0888 54.098 24.1283 54.3941 24.1777C54.7001 24.2171 54.932 24.2616 55.0899 24.3109H60.7605V26.2505L57.977 26.7687C58.2435 27.1437 58.4558 27.5731 58.6137 28.0568C58.7716 28.5305 58.8506 29.0487 58.8506 29.6114C58.8506 31.3091 58.2633 32.6465 57.0887 33.6237C55.924 34.591 54.3151 35.0746 52.2621 35.0746C51.7685 35.0549 51.2898 35.0154 50.8259 34.9562C50.4706 35.1733 50.1991 35.4152 50.0116 35.6817C49.8241 35.9383 49.7303 36.2295 49.7303 36.5552C49.7303 36.8217 49.8241 37.0389 50.0116 37.2067C50.1991 37.3646 50.4755 37.483 50.8407 37.562C51.2158 37.641 51.6698 37.6804 52.2028 37.6804H55.0307C56.8271 37.6804 58.1991 38.0605 59.1467 38.8205C60.0943 39.5805 60.568 40.6959 60.568 42.1666C60.568 44.0321 59.7981 45.4682 58.2584 46.475C56.7186 47.4917 54.5026 48 51.6106 48ZM51.7439 45.5571C52.9579 45.5571 53.9795 45.4386 54.8086 45.2017C55.6378 44.9648 56.2645 44.6243 56.689 44.1801C57.1134 43.7458 57.3256 43.2276 57.3256 42.6255C57.3256 42.0925 57.1923 41.6829 56.9258 41.3967C56.6593 41.1104 56.2596 40.913 55.7266 40.8044C55.1936 40.6959 54.5323 40.6416 53.7426 40.6416H51.1664C50.5249 40.6416 49.9573 40.7403 49.4638 40.9377C48.9703 41.145 48.5853 41.4411 48.3089 41.826C48.0424 42.211 47.9092 42.6749 47.9092 43.2178C47.9092 43.9679 48.2398 44.5453 48.9012 44.95C49.5724 45.3547 50.5199 45.5571 51.7439 45.5571ZM52.4249 32.7946C53.4416 32.7946 54.1967 32.5182 54.6902 31.9655C55.1837 31.4028 55.4305 30.6132 55.4305 29.5965C55.4305 28.4911 55.1738 27.6619 54.6606 27.1092C54.1572 26.5564 53.407 26.2801 52.4101 26.2801C51.4329 26.2801 50.6877 26.5614 50.1745 27.124C49.6711 27.6866 49.4194 28.5207 49.4194 29.6262C49.4194 30.6231 49.6711 31.4028 50.1745 31.9655C50.6877 32.5182 51.4379 32.7946 52.4249 32.7946Z" fill="#343633"/>
<path d="M77.7861 24.3257V40.7156H75.047L74.5732 38.5096H74.3808C74.0353 39.0722 73.5961 39.541 73.063 39.9161C72.53 40.2813 71.9378 40.5527 71.2864 40.7304C70.6349 40.918 69.9489 41.0117 69.2284 41.0117C67.9946 41.0117 66.9384 40.8044 66.06 40.3899C65.1914 39.9655 64.5251 39.314 64.0612 38.4355C63.5973 37.5571 63.3653 36.422 63.3653 35.0302V24.3257H66.8595V34.3788C66.8595 35.6521 67.1161 36.6046 67.6294 37.2363C68.1525 37.868 68.9619 38.1838 70.0575 38.1838C71.1136 38.1838 71.9526 37.9667 72.5745 37.5324C73.1963 37.0981 73.6355 36.4565 73.8922 35.6076C74.1587 34.7588 74.2919 33.7175 74.2919 32.4837V24.3257H77.7861Z" fill="#343633"/>
</g>
</g>
</svg>
